SplineFontDB: 3.0
FontName: Wellfleet-Regular
FullName: Wellfleet
FamilyName: Wellfleet
Weight: Regular
Copyright: Copyright (c) 2011, Sorkin Type Co (www.sorkintype.com), with Reserved Font Name Wellfleet
Version: 1.003
ItalicAngle: 0
UnderlinePosition: -103
UnderlineWidth: 102
Ascent: 1638
Descent: 410
LayerCount: 2
Layer: 0 1 "Back"  1
Layer: 1 1 "Fore"  0
XUID: [1021 631 1661839179 6431725]
FSType: 0
OS2Version: 3
OS2_WeightWidthSlopeOnly: 0
OS2_UseTypoMetrics: 1
CreationTime: 1325735760
ModificationTime: 1325718612
PfmFamily: 17
TTFWeight: 400
TTFWidth: 5
LineGap: 0
VLineGap: 0
Panose: 2 4 5 3 5 6 0 6 7 4
OS2TypoAscent: 382
OS2TypoAOffset: 1
OS2TypoDescent: -130
OS2TypoDOffset: 1
OS2TypoLinegap: 0
OS2WinAscent: 0
OS2WinAOffset: 1
OS2WinDescent: 0
OS2WinDOffset: 1
HheadAscent: 0
HheadAOffset: 1
HheadDescent: 0
HheadDOffset: 1
OS2SubXSize: 2937
OS2SubYSize: 2726
OS2SubXOff: 0
OS2SubYOff: 588
OS2SupXSize: 2937
OS2SupYSize: 2726
OS2SupXOff: 0
OS2SupYOff: 2001
OS2StrikeYSize: 209
OS2StrikeYPos: 1049
OS2Vendor: 'STC '
OS2CodePages: 20000093.00000000
OS2UnicodeRanges: a00000af.4000204a.00000000.00000000
DEI: 91125
TtTable: prep
PUSHW_1
 511
SCANCTRL
PUSHB_1
 4
SVTCA[y-axis]
EndTTInstrs
ShortTable: maxp 16
  1
  0
  426
  163
  7
  0
  0
  1
  0
  0
  0
  0
  0
  0
  0
  0
EndShort
LangName: 1033 "" "" "" "RiccardoDeFranceschi: Wellfleet: 2011" "" "Version 1.003" "" "Wellfleet is a trademark of Sorkin Type Co." "Riccardo De Franceschi" "Riccardo De Franceschi" "Wellfleet is a versatile low contrast slab serif text typeface with a a bouncy upbeat feeling. Wellfleet was inspired by German poster lettering. Despite having display letters as a source of inspiration Wellfleet is functional in a wide range of sizes." "www.sorkintype.com" "www.rdftype.it" "This Font Software is licensed under the SIL Open Font License, Version 1.1. This license is available with a FAQ at: http://scripts.sil.org/OFL" "http://scripts.sil.org/OFL" "" "" "" "Wellfleet" 
GaspTable: 1 65535 15

StartChar: .notdef
Encoding: 65536 -1 0
Width: 1877
Flags: HW
LayerCount: 2
Fore
SplineSet
1585 1856 m 2,0,1
 1685 1856 1685 1856 1685 1738 c 2,2,-1
 1681 204 l 2,3,4
 1681 154 1681 154 1658.5 136 c 128,-1,5
 1636 118 1636 118 1596 116 c 1,6,-1
 756 139 l 1,7,-1
 277 125 l 1,8,9
 232 127 232 127 216 151 c 128,-1,10
 200 175 200 175 200 219 c 2,11,-1
 192 1753 l 2,12,13
 192 1802 192 1802 227 1832.5 c 128,-1,14
 262 1863 262 1863 315 1863 c 2,15,-1
 1585 1856 l 2,0,1
1240 1378 m 2,16,17
 1234 1384 1234 1384 1226.5 1384 c 128,-1,18
 1219 1384 1219 1384 1212 1377 c 2,19,-1
 935 1063 l 1,20,-1
 658 1367 l 2,21,22
 651 1374 651 1374 645.5 1374 c 128,-1,23
 640 1374 640 1374 633 1365 c 2,24,-1
 521 1238 l 2,25,26
 513 1228 513 1228 513 1222.5 c 128,-1,27
 513 1217 513 1217 519 1211 c 2,28,-1
 814 937 l 1,29,-1
 520 655 l 2,30,31
 515 650 515 650 515 644 c 128,-1,32
 515 638 515 638 522 631 c 2,33,-1
 634 509 l 2,34,35
 642 501 642 501 652 501 c 256,36,37
 662 501 662 501 668 509 c 2,38,-1
 934 817 l 1,39,-1
 1214 522 l 2,40,41
 1225 511 1225 511 1232 511 c 256,42,43
 1239 511 1239 511 1245 519 c 2,44,-1
 1361 651 l 2,45,46
 1367 659 1367 659 1367 666 c 256,47,48
 1367 673 1367 673 1362 677 c 2,49,-1
 1057 942 l 1,50,-1
 1355 1218 l 2,51,52
 1365 1228 1365 1228 1365 1235 c 256,53,54
 1365 1242 1365 1242 1358 1249 c 2,55,-1
 1240 1378 l 2,16,17
EndSplineSet
EndChar

StartChar: numbersign
Encoding: 35 35 4
Width: 1194
Flags: HW
LayerCount: 2
Fore
SplineSet
1092 1038 m 1,0,1
 1107 1035.86 1107 1035.86 1107 1018 c 1,2,-1
 1098 862 l 1,3,4
 1096 848 1096 848 1084 848 c 2,5,-1
 886 858 l 1,6,-1
 861 703 l 1,7,-1
 848 609 l 1,8,-1
 1042 617 l 2,9,10
 1057 617 1057 617 1057 600 c 1,11,-1
 1041 446 l 2,12,13
 1038.89 427 1038.89 427 1023 427 c 2,14,-1
 825 433 l 1,15,-1
 783 107 l 2,16,17
 780 90 780 90 758 90 c 2,18,-1
 610 90 l 2,19,20
 591 90 591 90 591 110 c 1,21,-1
 645 438 l 1,22,-1
 528 442 l 1,23,-1
 461 441 l 1,24,-1
 416 102 l 2,25,26
 413 85 413 85 391 85 c 2,27,-1
 250 90 l 2,28,29
 231 90 231 90 231 110 c 1,30,-1
 284 439 l 1,31,-1
 104 437 l 2,32,33
 87 437 87 437 87 456 c 1,34,-1
 102 597 l 2,35,36
 105 620 105 620 127 621 c 1,37,-1
 312 611 l 1,38,-1
 329 714 l 1,39,-1
 348 864 l 1,40,-1
 168 858 l 2,41,42
 153 858 153 858 153 877 c 1,43,-1
 162 1018 l 2,44,45
 163 1042 163 1042 181 1042 c 2,46,-1
 370 1036 l 1,47,-1
 410 1344 l 2,48,49
 412 1364 412 1364 433 1364 c 1,50,-1
 581 1356 l 2,51,52
 593 1355 593 1355 596.5 1350 c 128,-1,53
 600 1345 600 1345 601 1332 c 1,54,-1
 551 1031 l 1,55,-1
 601 1030 l 1,56,-1
 732 1032 l 1,57,-1
 770 1329 l 2,58,59
 772 1349 772 1349 793 1349 c 2,60,-1
 941 1351 l 1,61,62
 953 1350 953 1350 956.5 1345 c 128,-1,63
 960 1340 960 1340 961 1327 c 1,64,-1
 914 1035 l 1,65,-1
 1092 1038 l 1,0,1
483 603 m 1,66,-1
 561 599 l 1,67,-1
 673 603 l 1,68,-1
 690 706 l 1,69,-1
 710 866 l 1,70,-1
 584 873 l 1,71,-1
 524 871 l 1,72,-1
 498 712 l 1,73,-1
 483 603 l 1,66,-1
EndSplineSet
EndChar

StartChar: dollar
Encoding: 36 36 5
Width: 1364
Flags: HW
LayerCount: 2
Fore
SplineSet
647 -197 m 1,0,1
 623 -197 623 -197 623 -183 c 2,2,-1
 625 6 l 1,3,4
 525.739 13.3527 525.739 13.3527 429 37 c 1,5,-1
 440 -44 l 1,6,7
 440 -62 440 -62 417 -62 c 2,8,-1
 245 -67 l 1,9,10
 207.099 -64.8944 207.099 -64.8944 203 -28 c 1,11,-1
 175 349 l 1,12,13
 175 369 175 369 199 371 c 2,14,-1
 395 389 l 1,15,16
 412 389 412 389 416 366 c 1,17,-1
 415 205 l 1,18,19
 529.089 185.626 529.089 185.626 627 182 c 1,20,-1
 633 677 l 1,21,22
 388.759 766.003 388.759 766.003 294.5 858.5 c 0,23,24
 191 960.065 191 960.065 191 1134 c 0,25,26
 191 1300.29 191 1300.29 305 1406 c 0,27,28
 418.257 1511.02 418.257 1511.02 620 1527 c 1,29,-1
 617 1680 l 2,30,31
 617 1702.33 617 1702.33 637 1704 c 2,32,-1
 768 1712 l 1,33,34
 785.222 1712 785.222 1712 787 1696 c 1,35,-1
 784 1525 l 1,36,37
 883.294 1515.81 883.294 1515.81 980 1487 c 1,38,39
 1108.14 1526 1108.14 1526 1140.03 1526 c 128,-1,40
 1171.92 1526 1171.92 1526 1174 1499 c 1,41,-1
 1154 1104 l 2,42,43
 1151.91 1081 1151.91 1081 1138 1081 c 2,44,-1
 970 1087 l 2,45,46
 956 1088 956 1088 953 1094 c 128,-1,47
 950 1100 950 1100 949 1113 c 2,48,-1
 941 1322 l 1,49,50
 843.5 1342.31 843.5 1342.31 781 1347 c 1,51,-1
 773 883 l 1,52,53
 1033.75 780.224 1033.75 780.224 1132.5 669.5 c 0,54,55
 1219 572.515 1219 572.515 1219 414 c 0,56,57
 1219 146.982 1219 146.982 983.5 48.5 c 0,58,59
 901 14 901 14 784 5 c 1,60,-1
 787 -171 l 2,61,62
 787 -185.273 787 -185.273 768 -187 c 2,63,-1
 647 -197 l 1,0,1
945 507.681 m 0,64,65
 889.313 574.031 889.313 574.031 774 624 c 1,66,-1
 781 187 l 1,67,68
 885 202 885 202 931.5 252.5 c 128,-1,69
 978 303 978 303 978 385.681 c 128,-1,70
 978 468.362 978 468.362 945 507.681 c 0,64,65
624 1343 m 1,71,72
 436 1314.91 436 1314.91 436 1165 c 0,73,74
 436 1083.17 436 1083.17 479 1035.5 c 0,75,76
 520.254 989.762 520.254 989.762 632 941 c 1,77,-1
 624 1343 l 1,71,72
EndSplineSet
EndChar

StartChar: percent
Encoding: 37 37 6
Width: 1376
Flags: HW
LayerCount: 2
Fore
SplineSet
1247 1407 m 2,0,1
 1255 1401 1255 1401 1255 1393.5 c 128,-1,2
 1255 1386 1255 1386 1250 1378 c 2,3,-1
 777 738 l 1,4,-1
 289 38 l 2,5,6
 283 30 283 30 275 30 c 128,-1,7
 267 30 267 30 259 35 c 2,8,-1
 169 99 l 2,9,10
 161 104 161 104 161 111.5 c 128,-1,11
 161 119 161 119 168 130 c 2,12,-1
 666 821 l 1,13,-1
 1126 1473 l 2,14,15
 1132 1482 1132 1482 1138.5 1482 c 128,-1,16
 1145 1482 1145 1482 1153 1477 c 2,17,-1
 1247 1407 l 2,0,1
631.5 1330.5 m 128,-1,19
 649 1277 649 1277 649 1211.5 c 128,-1,20
 649 1146 649 1146 629.5 1090.5 c 128,-1,21
 610 1035 610 1035 572 995.5 c 0,22,23
 491.671 912 491.671 912 350 912 c 0,24,25
 214.125 912 214.125 912 138 999 c 0,26,27
 67 1080.14 67 1080.14 67 1206 c 256,28,29
 67 1409.16 67 1409.16 228.5 1479 c 0,30,31
 284 1503 284 1503 359.5 1503 c 128,-1,32
 435 1503 435 1503 489 1481.5 c 128,-1,33
 543 1460 543 1460 578.5 1422 c 128,-1,18
 614 1384 614 1384 631.5 1330.5 c 128,-1,19
419.5 1348.5 m 128,-1,35
 396 1361 396 1361 360 1361 c 128,-1,36
 324 1361 324 1361 298 1347 c 128,-1,37
 272 1333 272 1333 257 1310.5 c 0,38,39
 230 1270 230 1270 230 1223.5 c 128,-1,40
 230 1177 230 1177 237 1150.5 c 128,-1,41
 244 1124 244 1124 259.5 1102 c 0,42,43
 294.023 1053 294.023 1053 357 1053 c 0,44,45
 452.19 1053 452.19 1053 481.5 1153 c 0,46,47
 490 1182 490 1182 490 1212.5 c 128,-1,48
 490 1243 490 1243 482.5 1269.5 c 128,-1,49
 475 1296 475 1296 459 1316 c 128,-1,34
 443 1336 443 1336 419.5 1348.5 c 128,-1,35
1291.5 413.5 m 128,-1,51
 1309 360 1309 360 1309 294.5 c 128,-1,52
 1309 229 1309 229 1289.5 173.5 c 128,-1,53
 1270 118 1270 118 1232 78.5 c 0,54,55
 1151.67 -4.99999 1151.67 -4.99999 1010 -5 c 0,56,57
 874.125 -5 874.125 -5 798 82 c 0,58,59
 727 163.143 727 163.143 727 289 c 256,60,61
 727 492.162 727 492.162 888.5 562 c 0,62,63
 944 586 944 586 1019.5 586 c 128,-1,64
 1095 586 1095 586 1149 564.5 c 128,-1,65
 1203 543 1203 543 1238.5 505 c 128,-1,50
 1274 467 1274 467 1291.5 413.5 c 128,-1,51
1079.5 431.5 m 128,-1,67
 1056 444 1056 444 1020 444 c 128,-1,68
 984 444 984 444 958 430 c 128,-1,69
 932 416 932 416 917 393.5 c 0,70,71
 890 353 890 353 890 306.5 c 128,-1,72
 890 260 890 260 897 233.5 c 128,-1,73
 904 207 904 207 919.5 185 c 0,74,75
 954.023 136 954.023 136 1017 136 c 0,76,77
 1112.19 136 1112.19 136 1141.5 236 c 0,78,79
 1150 265 1150 265 1150 295.5 c 128,-1,80
 1150 326 1150 326 1142.5 352.5 c 128,-1,81
 1135 379 1135 379 1119 399 c 128,-1,66
 1103 419 1103 419 1079.5 431.5 c 128,-1,67
EndSplineSet
EndChar

StartChar: ampersand
Encoding: 38 38 7
Width: 1355
Flags: HW
LayerCount: 2
Fore
SplineSet
959 183 m 1,0,1
 761.2 -24 761.2 -24 494 -24 c 0,2,3
 320.348 -24 320.348 -24 205 64.5 c 0,4,5
 78 161.94 78 161.94 78 336 c 0,6,7
 78 547.341 78 547.341 271.5 690.5 c 0,8,9
 333 736 333 736 410 780 c 1,10,11
 315.579 890.842 315.579 890.842 283.789 954.421 c 0,12,13
 230 1062 230 1062 230 1160 c 128,-1,14
 230 1258 230 1258 262 1328 c 128,-1,15
 294 1398 294 1398 351 1445.5 c 0,16,17
 465.6 1541 465.6 1541 654 1541 c 0,18,19
 832.153 1541 832.153 1541 942.5 1456.5 c 0,20,21
 1063 1364.23 1063 1364.23 1063 1193 c 0,22,23
 1063 1056.05 1063 1056.05 980 960.5 c 0,24,25
 902.61 871.412 902.61 871.412 710 772 c 1,26,-1
 934 528.5 l 1,27,-1
 1193 257 l 1,28,-1
 1261 357 l 2,29,30
 1268 366 1268 366 1275.5 366 c 128,-1,31
 1283 366 1283 366 1291 360 c 2,32,-1
 1434 229 l 2,33,34
 1441 222 1441 222 1441 216 c 128,-1,35
 1441 210 1441 210 1436 205 c 2,36,-1
 1122 -127 l 2,37,38
 1116 -133 1116 -133 1110.5 -133 c 128,-1,39
 1105 -133 1105 -133 1097 -125 c 2,40,-1
 976 -18 l 2,41,42
 964 -8 964 -8 964 -2 c 128,-1,43
 964 4 964 4 969 9 c 2,44,-1
 1054 93 l 1,45,-1
 959 183 l 1,0,1
509 664 m 1,46,47
 315 531.074 315 531.074 315 378 c 0,48,49
 315 279.721 315 279.721 382.5 225.5 c 0,50,51
 442.878 177 442.878 177 534.439 177 c 0,52,53
 709 177 709 177 837 305 c 1,54,-1
 665 488 l 1,55,-1
 509 664 l 1,46,47
475.5 1250 m 0,56,57
 459 1215 459 1215 459 1174 c 128,-1,58
 459 1133 459 1133 464.5 1105 c 128,-1,59
 470 1077 470 1077 486.5 1045.5 c 0,60,61
 516.542 988.146 516.542 988.146 612 881 c 1,62,63
 801.881 984.571 801.881 984.571 838.5 1091.5 c 0,64,65
 851 1128 851 1128 851 1168.5 c 128,-1,66
 851 1209 851 1209 839 1243.5 c 128,-1,67
 827 1278 827 1278 803.5 1303 c 0,68,69
 753.68 1356 753.68 1356 664 1356 c 0,70,71
 525.471 1356 525.471 1356 475.5 1250 c 0,56,57
EndSplineSet
EndChar

StartChar: quoteright
Encoding: 8217 8217 8
Width: 512
Flags: HW
LayerCount: 2
Fore
SplineSet
156 1209 m 1,0,1
 171 1312.12 171 1312.12 171 1374.06 c 128,-1,2
 171 1436 171 1436 165.5 1469 c 128,-1,3
 160 1502 160 1502 151.5 1530 c 128,-1,4
 143 1558 143 1558 133 1581 c 2,5,-1
 115 1622 l 2,6,7
 103 1649 103 1649 103 1667 c 128,-1,8
 103 1685 103 1685 119.5 1701 c 128,-1,9
 136 1717 136 1717 161 1728 c 0,10,11
 213.273 1751 213.273 1751 272 1751 c 0,12,13
 379 1751 379 1751 379 1592 c 0,14,15
 379 1406.85 379 1406.85 273 1187 c 1,16,-1
 156 1209 l 1,0,1
EndSplineSet
EndChar

StartChar: parenleft
Encoding: 40 40 9
Width: 683
Flags: HW
LayerCount: 2
Fore
SplineSet
433.5 49 m 128,-1,1
 465 2 465 2 507.5 2 c 128,-1,2
 550 2 550 2 574 6 c 1,3,4
 591 6 591 6 592 -18 c 1,5,-1
 583 -169 l 2,6,7
 581.469 -185.837 581.469 -185.837 560.235 -187.919 c 0,8,9
 508.395 -193 508.395 -193 479 -193 c 0,10,11
 293.269 -193 293.269 -193 218.5 39.5 c 0,12,13
 153 243.178 153 243.178 153 693 c 0,14,15
 153 1164.18 153 1164.18 230.5 1383 c 0,16,17
 317.625 1629 317.625 1629 529 1629 c 0,18,19
 599.571 1629 599.571 1629 604.286 1623.5 c 128,-1,20
 609 1618 609 1618 610 1607 c 2,21,-1
 620 1451 l 1,22,23
 620 1432 620 1432 606 1432 c 1,24,25
 594 1434 594 1434 566 1434 c 0,26,27
 497 1434 497 1434 455.5 1392.5 c 128,-1,28
 414 1351 414 1351 392 1264 c 0,29,30
 356 1121.64 356 1121.64 356 718 c 0,31,32
 356 340.882 356 340.882 379 218.441 c 128,-1,0
 402 96 402 96 433.5 49 c 128,-1,1
EndSplineSet
EndChar

StartChar: parenright
Encoding: 41 41 10
Width: 683
Flags: HW
LayerCount: 2
Fore
SplineSet
249 1387 m 128,-1,1
 218 1434 218 1434 175.5 1434 c 128,-1,2
 133 1434 133 1434 109 1430 c 1,3,4
 92 1430 92 1430 91 1454 c 1,5,-1
 100 1605 l 2,6,7
 101.531 1621.84 101.531 1621.84 122.765 1623.92 c 0,8,9
 174.602 1629 174.602 1629 204 1629 c 0,10,11
 389.731 1629 389.731 1629 464.5 1396.5 c 0,12,13
 530 1192.82 530 1192.82 530 743 c 0,14,15
 530 271.824 530 271.824 452.5 53 c 0,16,17
 365.375 -193 365.375 -193 154 -193 c 0,18,19
 83.4286 -193 83.4286 -193 78.7143 -187.5 c 128,-1,20
 74 -182 74 -182 73 -171 c 2,21,-1
 63 -15 l 1,22,23
 63 4 63 4 77 4 c 1,24,25
 89 2 89 2 117 2 c 0,26,27
 186 2 186 2 227.5 43.5 c 128,-1,28
 269 85 269 85 291 172 c 0,29,30
 327 314.364 327 314.364 327 718 c 0,31,32
 327 1096.94 327 1096.94 303.5 1218.47 c 128,-1,0
 280 1340 280 1340 249 1387 c 128,-1,1
EndSplineSet
EndChar

StartChar: asterisk
Encoding: 42 42 11
Width: 1021
Flags: HW
LayerCount: 2
Fore
SplineSet
970 1196 m 1,0,1
 970 1170 970 1170 949 1170 c 1,2,-1
 610 1194 l 1,3,-1
 757 911 l 1,4,5
 762 899 762 899 762 890.5 c 128,-1,6
 762 882 762 882 748 876 c 2,7,-1
 603 809 l 2,8,9
 599 807 599 807 592 807 c 0,10,11
 577 807 577 807 573 824 c 2,12,-1
 487 1142 l 1,13,-1
 256 907 l 2,14,15
 247 897 247 897 238.5 897 c 128,-1,16
 230 897 230 897 223 907 c 2,17,-1
 126 1031 l 2,18,19
 119 1041 119 1041 119 1050 c 128,-1,20
 119 1059 119 1059 128 1064 c 2,21,-1
 405 1243 l 1,22,-1
 106 1396 l 2,23,24
 93 1402 93 1402 93 1412 c 128,-1,25
 93 1422 93 1422 99 1430 c 2,26,-1
 191 1558 l 2,27,28
 199 1569 199 1569 208.5 1569 c 128,-1,29
 218 1569 218 1569 226 1562 c 2,30,-1
 473 1356 l 1,31,-1
 525 1690 l 2,32,33
 528.273 1708 528.273 1708 555 1708 c 1,34,-1
 693 1654 l 2,35,36
 709 1648 709 1648 709 1634 c 0,37,38
 709 1631 709 1631 707 1623 c 2,39,-1
 599 1327 l 1,40,-1
 904 1382 l 1,41,42
 921 1382 921 1382 926.5 1378.5 c 128,-1,43
 932 1375 932 1375 935 1361 c 2,44,-1
 970 1196 l 1,0,1
EndSplineSet
EndChar

StartChar: plus
Encoding: 43 43 12
Width: 1194
Flags: HW
LayerCount: 2
Fore
SplineSet
165 663 m 1,0,1
 166.727 682 166.727 682 181 682 c 2,2,-1
 503 686 l 1,3,-1
 495 1024 l 2,4,5
 495 1044 495 1044 514 1045 c 1,6,-1
 675 1037 l 2,7,8
 695 1035.33 695 1035.33 695 1013 c 2,9,-1
 685 688 l 1,10,-1
 1011 692 l 1,11,12
 1029 690 1029 690 1029 673 c 2,13,-1
 1026 512 l 2,14,15
 1026 500 1026 500 1020.5 496.5 c 128,-1,16
 1015 493 1015 493 1002 492 c 1,17,-1
 683 502 l 1,18,-1
 689 138 l 2,19,20
 689 124 689 124 665 122 c 1,21,-1
 514 129 l 2,22,23
 495 130.727 495 130.727 495 145 c 2,24,-1
 503 501 l 1,25,-1
 189 488 l 2,26,27
 177 488 177 488 175 512 c 2,28,-1
 165 663 l 1,0,1
EndSplineSet
EndChar

StartChar: comma
Encoding: 44 44 13
Width: 502
Flags: HW
LayerCount: 2
Fore
SplineSet
127 -281 m 1,0,1
 184 -153.846 184 -153.846 184 -95.4231 c 128,-1,2
 184 -37 184 -37 171 -9.5 c 128,-1,3
 158 18 158 18 141 38 c 256,4,5
 104 81.5294 104 81.5294 104 108.265 c 128,-1,6
 104 135 104 135 122 159 c 128,-1,7
 140 183 140 183 166.5 203.5 c 0,8,9
 227.902 251 227.902 251 272.951 251 c 128,-1,10
 318 251 318 251 343 231.5 c 128,-1,11
 368 212 368 212 382 182.5 c 0,12,13
 408 127.714 408 127.714 408 62.8571 c 128,-1,14
 408 -2 408 -2 395 -53 c 128,-1,15
 382 -104 382 -104 360.5 -150.5 c 0,16,17
 320.192 -237.678 320.192 -237.678 254 -313 c 1,18,-1
 127 -281 l 1,0,1
EndSplineSet
EndChar

StartChar: hyphen
Encoding: 45 45 14
Width: 1194
Flags: HW
LayerCount: 2
Fore
SplineSet
1000 772 m 1,0,1
 1016 770.222 1016 770.222 1016 753 c 1,2,-1
 998 602 l 2,3,4
 996 590 996 590 991.5 586.5 c 128,-1,5
 987 583 987 583 974 582 c 2,6,-1
 191 578 l 2,7,8
 177 578 177 578 177 602 c 1,9,-1
 187 743 l 2,10,11
 188.727 762 188.727 762 203 762 c 2,12,-1
 1000 772 l 1,0,1
EndSplineSet
EndChar

StartChar: period
Encoding: 46 46 15
Width: 512
Flags: HW
LayerCount: 2
Fore
SplineSet
415.5 135 m 128,-1,1
 421 105 421 105 421 79 c 128,-1,2
 421 53 421 53 403.5 31.5 c 128,-1,3
 386 10 386 10 357 -4 c 0,4,5
 296.929 -33 296.929 -33 240.964 -33 c 128,-1,6
 185 -33 185 -33 164 -15.5 c 128,-1,7
 143 2 143 2 130 28 c 0,8,9
 105 78 105 78 105 126.5 c 128,-1,10
 105 175 105 175 127 197 c 128,-1,11
 149 219 149 219 181 231.5 c 0,12,13
 236.04 253 236.04 253 290.52 253 c 128,-1,14
 345 253 345 253 365.5 235.5 c 128,-1,15
 386 218 386 218 398 191.5 c 128,-1,0
 410 165 410 165 415.5 135 c 128,-1,1
EndSplineSet
EndChar

StartChar: slash
Encoding: 47 47 16
Width: 682
Flags: HW
LayerCount: 2
Fore
SplineSet
658 1704 m 1,0,1
 673 1699 673 1699 673 1687 c 0,2,3
 673 1684 673 1684 671 1676 c 2,4,-1
 170 -441 l 2,5,6
 167 -455 167 -455 152 -455 c 0,7,8
 146 -455 146 -455 142 -454 c 2,9,-1
 16 -423 l 2,10,11
 0 -419 0 -419 0 -402 c 0,12,13
 0 -397 0 -397 1 -395 c 2,14,-1
 497 1720 l 2,15,16
 500 1737 500 1737 517 1737 c 0,17,18
 521 1737 521 1737 524 1736 c 2,19,-1
 658 1704 l 1,0,1
EndSplineSet
EndChar

StartChar: zero
Encoding: 48 48 17
Width: 1194
Flags: HW
LayerCount: 2
Fore
SplineSet
168.5 391 m 0,0,1
 142 525 142 525 142 668.5 c 128,-1,2
 142 812 142 812 148 918 c 128,-1,3
 154 1024 154 1024 171.5 1117.5 c 128,-1,4
 189 1211 189 1211 221 1288.5 c 128,-1,5
 253 1366 253 1366 305.5 1422 c 0,6,7
 416.125 1540 416.125 1540 626.562 1540 c 0,8,9
 1051 1540 1051 1540 1051 803 c 0,10,11
 1051 379.649 1051 379.649 948.5 188.5 c 0,12,13
 836.696 -19.9999 836.696 -19.9999 571 -20 c 0,14,15
 249.78 -20 249.78 -20 168.5 391 c 0,0,1
601 202 m 0,16,17
 676 202 676 202 720.5 246.5 c 128,-1,18
 765 291 765 291 788 373.5 c 0,19,20
 825 506.217 825 506.217 825 834 c 0,21,22
 825 1095.24 825 1095.24 778.5 1201 c 0,23,24
 728.819 1314 728.819 1314 599 1314 c 0,25,26
 527 1314 527 1314 481 1286.5 c 128,-1,27
 435 1259 435 1259 409.5 1189 c 0,28,29
 365 1066.84 365 1066.84 365 697 c 0,30,31
 365 444.654 365 444.654 409 335.5 c 0,32,33
 462.814 202 462.814 202 601 202 c 0,16,17
EndSplineSet
EndChar

StartChar: one
Encoding: 49 49 18
Width: 1194
Flags: HW
LayerCount: 2
Fore
SplineSet
199 201 m 2,0,1
 199 220 199 220 215 220 c 1,2,-1
 532 198 l 1,3,-1
 532 1236 l 1,4,-1
 221 1196 l 1,5,6
 210 1196 210 1196 206.5 1201 c 128,-1,7
 203 1206 203 1206 201 1218 c 2,8,-1
 186 1343 l 1,9,10
 186 1363 186 1363 209 1372 c 2,11,-1
 573 1521 l 2,12,13
 591.5 1529.41 591.5 1529.41 609 1531 c 1,14,-1
 758 1517 l 2,15,16
 776 1515.36 776 1515.36 776 1494 c 1,17,-1
 759 1280 l 1,18,-1
 747 199 l 1,19,-1
 1022 220 l 1,20,21
 1036.27 220 1036.27 220 1038 201 c 2,22,-1
 1048 20 l 1,23,24
 1048 -4 1048 -4 1034 -4 c 2,25,-1
 231 10 l 2,26,27
 208.667 10 208.667 10 207 30 c 2,28,-1
 199 201 l 2,0,1
EndSplineSet
EndChar

StartChar: two
Encoding: 50 50 19
Width: 1194
Flags: HW
LayerCount: 2
Fore
SplineSet
816 1166 m 0,0,1
 816 1333 816 1333 601.633 1333 c 0,2,3
 489.267 1333 489.267 1333 381 1277 c 1,4,-1
 393 1113 l 2,5,6
 393 1100 393 1100 390 1094 c 128,-1,7
 387 1088 387 1088 372 1087 c 1,8,-1
 184 1101 l 2,9,10
 169.949 1102.56 169.949 1102.56 168 1124 c 2,11,-1
 148 1494 l 1,12,13
 149 1518 149 1518 178 1526 c 0,14,15
 188 1529 188 1529 209.5 1533 c 2,16,-1
 254.5 1541.5 l 2,17,18
 309.333 1552 309.333 1552 325.167 1552 c 0,19,20
 361.444 1552 361.444 1552 365 1520 c 1,21,-1
 369 1454 l 1,22,23
 522.846 1534 522.846 1534 639.423 1534 c 128,-1,24
 756 1534 756 1534 830 1512 c 128,-1,25
 904 1490 904 1490 955 1445.5 c 0,26,27
 1060 1353.88 1060 1353.88 1060 1180 c 0,28,29
 1060 1046.11 1060 1046.11 1022 959.556 c 128,-1,30
 984 873 984 873 937 804 c 128,-1,31
 890 735 890 735 817.5 648 c 128,-1,32
 745 561 745 561 644.5 451.5 c 1,33,-1
 410 200 l 1,34,-1
 863 229 l 1,35,-1
 861 334 l 2,36,37
 861 352 861 352 873 362.5 c 128,-1,38
 885 373 885 373 903 373 c 1,39,-1
 1053 360 l 2,40,41
 1069 358 1069 358 1076.5 352.5 c 128,-1,42
 1084 347 1084 347 1085 330 c 1,43,-1
 1046 -52 l 1,44,45
 1042.17 -75.0002 1042.17 -75.0002 1025 -75 c 2,46,-1
 857 -71 l 2,47,48
 835 -71 835 -71 835 -45 c 1,49,-1
 846 20 l 1,50,-1
 195 12 l 2,51,52
 181 12 181 12 177 36 c 2,53,-1
 153 209 l 1,54,55
 153 225.286 153 225.286 169 239 c 1,56,-1
 416 488.5 l 1,57,58
 775.12 866.612 775.12 866.612 808 1068 c 0,59,60
 816 1117 816 1117 816 1166 c 0,0,1
EndSplineSet
EndChar

StartChar: three
Encoding: 51 51 20
Width: 1194
Flags: HW
LayerCount: 2
Fore
SplineSet
760 808 m 1,0,1
 1103 749.488 1103 749.488 1103 439 c 0,2,3
 1103 242.083 1103 242.083 960 117.5 c 0,4,5
 822.835 -2 822.835 -2 619 -2 c 0,6,7
 482 -2 482 -2 376 28 c 1,8,-1
 383 -32 l 1,9,10
 383 -48 383 -48 360 -50 c 2,11,-1
 208 -65 l 1,12,13
 180 -65 180 -65 173.5 -55 c 128,-1,14
 167 -45 167 -45 166 -26 c 2,15,-1
 158 321 l 2,16,17
 158 339 158 339 182 343 c 2,18,-1
 318 361 l 1,19,20
 335 361 335 361 339 338 c 1,21,-1
 355 200 l 1,22,23
 470 176 470 176 559 176 c 128,-1,24
 648 176 648 176 698.5 192.5 c 128,-1,25
 749 209 749 209 787 242 c 0,26,27
 869 313.211 869 313.211 869 439 c 0,28,29
 869 560.629 869 560.629 797 624.5 c 0,30,31
 740.073 675 740.073 675 661 675 c 0,32,33
 596.8 675 596.8 675 523.4 658.5 c 0,34,35
 414.412 634 414.412 634 400.706 634 c 0,36,37
 372.091 634 372.091 634 370 657 c 2,38,-1
 356 802 l 1,39,40
 358.32 832.155 358.32 832.155 386 834 c 0,41,42
 588.586 845.255 588.586 845.255 697 941.5 c 0,43,44
 791 1024.95 791 1024.95 791 1147 c 0,45,46
 791 1284.91 791 1284.91 681.5 1322.5 c 0,47,48
 648 1334 648 1334 609 1334 c 0,49,50
 491.235 1334 491.235 1334 378 1264 c 1,51,-1
 387 1143 l 1,52,53
 386 1130 386 1130 383.5 1124.5 c 128,-1,54
 381 1119 381 1119 366 1117 c 2,55,-1
 188 1101 l 1,56,57
 174.091 1101 174.091 1101 172 1124 c 1,58,-1
 192 1524 l 2,59,60
 194.017 1554.25 194.017 1554.25 222 1556 c 1,61,-1
 361 1552 l 1,62,63
 395.72 1549.52 395.72 1549.52 399 1520 c 1,64,-1
 389 1449 l 1,65,66
 541.952 1537 541.952 1537 711 1537 c 0,67,68
 856.409 1537 856.409 1537 942 1437.5 c 0,69,70
 1024 1342.18 1024 1342.18 1024 1190 c 0,71,72
 1024 1006.19 1024 1006.19 876.5 887 c 0,73,74
 827 847 827 847 760 808 c 1,0,1
EndSplineSet
EndChar

StartChar: four
Encoding: 52 52 21
Width: 1194
Flags: HW
LayerCount: 2
Fore
SplineSet
1115 484 m 1,0,1
 1113.33 464 1113.33 464 1091 464 c 2,2,-1
 895 462 l 1,3,-1
 895 189 l 1,4,-1
 1035 186 l 2,5,6
 1058 186 1058 186 1059 166 c 2,7,-1
 1067 15 l 1,8,9
 1067 -4 1067 -4 1051 -4 c 2,10,-1
 468 -4 l 2,11,12
 449 -4 449 -4 448 15 c 2,13,-1
 438 176 l 1,14,15
 438 200 438 200 452 200 c 2,16,-1
 673 194 l 1,17,-1
 679 460 l 1,18,-1
 181 456 l 2,19,20
 140.667 456 140.667 456 129 484 c 2,21,-1
 84 586 l 2,22,23
 79 599.333 79 599.333 79 608.167 c 128,-1,24
 79 617 79 617 96 659.5 c 1,25,-1
 279 1079.5 l 1,26,27
 480.466 1520.93 480.466 1520.93 490.233 1539.97 c 128,-1,28
 500 1559 500 1559 506 1563.5 c 128,-1,29
 512 1568 512 1568 526 1568 c 1,30,-1
 741 1518 l 2,31,32
 756.266 1514.61 756.266 1514.61 757.133 1503.8 c 128,-1,33
 758 1493 758 1493 735.5 1446 c 128,-1,34
 713 1399 713 1399 675 1326 c 1,35,-1
 383 782.5 l 1,36,-1
 288 613 l 1,37,-1
 683 627 l 1,38,-1
 691 961 l 2,39,40
 691 984 691 984 716 984 c 2,41,-1
 918 987 l 1,42,43
 938 983.364 938 983.364 938 965 c 1,44,-1
 899 634 l 1,45,-1
 1091 641 l 2,46,47
 1107 641 1107 641 1107 622 c 1,48,-1
 1115 484 l 1,0,1
EndSplineSet
EndChar

StartChar: five
Encoding: 53 53 22
Width: 1194
Flags: HW
LayerCount: 2
Fore
SplineSet
189 -65 m 1,0,1
 149.053 -65 149.053 -65 147 -26 c 1,2,-1
 159 311 l 2,3,4
 159 331.286 159 331.286 183 333 c 2,5,-1
 309 341 l 1,6,7
 330 341 330 341 330 318 c 2,8,-1
 331 211 l 1,9,10
 452.154 186 452.154 186 585.577 186 c 128,-1,11
 719 186 719 186 789.5 255.5 c 128,-1,12
 860 325 860 325 860 466 c 0,13,14
 860 591.644 860 591.644 797.5 660.5 c 0,15,16
 738.954 725 738.954 725 653.977 725 c 0,17,18
 526 725 526 725 451 711.5 c 0,19,20
 342.667 692 342.667 692 329.333 692 c 0,21,22
 310.333 692 310.333 692 295 715 c 2,23,-1
 202 848 l 1,24,-1
 301 1483 l 2,25,26
 306.167 1514 306.167 1514 329 1514 c 1,27,-1
 834 1487 l 1,28,-1
 834 1532 l 2,29,30
 834 1555 834 1555 856 1558 c 2,31,-1
 984 1572 l 1,32,33
 1003.08 1572 1003.08 1572 1005 1549 c 2,34,-1
 1019 1199 l 1,35,36
 1017.54 1182.96 1017.54 1182.96 996 1181 c 2,37,-1
 854 1166 l 1,38,39
 812 1166 812 1166 812 1205 c 1,40,-1
 822 1300 l 1,41,-1
 472 1300 l 1,42,-1
 415 870 l 1,43,44
 573.609 918 573.609 918 679.304 918 c 128,-1,45
 785 918 785 918 859.5 887 c 128,-1,46
 934 856 934 856 983 797.5 c 0,47,48
 1080 681.694 1080 681.694 1080 470 c 0,49,50
 1080 236.092 1080 236.092 953 116.5 c 0,51,52
 836.717 6.99998 836.717 6.99998 627 7 c 0,53,54
 491.143 7 491.143 7 433.571 20 c 128,-1,55
 376 33 376 33 345 42 c 1,56,-1
 354 -32 l 1,57,58
 354 -47.9091 354 -47.9091 331 -50 c 2,59,-1
 189 -65 l 1,0,1
EndSplineSet
EndChar

StartChar: six
Encoding: 54 54 23
Width: 1194
Flags: HW
LayerCount: 2
Fore
SplineSet
619 1548 m 0,0,1
 694.077 1548 694.077 1548 773 1521 c 1,2,-1
 904 1570 l 1,3,4
 941.667 1570 941.667 1570 946 1531 c 2,5,-1
 984 1194 l 1,6,7
 984 1171.14 984 1171.14 962 1168 c 1,8,-1
 784 1134 l 1,9,10
 764.917 1134 764.917 1134 763 1157 c 2,11,-1
 754 1374 l 1,12,13
 724 1382 724 1382 658.5 1382 c 128,-1,14
 593 1382 593 1382 532.5 1350.5 c 128,-1,15
 472 1319 472 1319 437.5 1255 c 0,16,17
 377.362 1143.44 377.362 1143.44 371 872 c 1,18,19
 507.8 920 507.8 920 656 920 c 0,20,21
 987.621 920 987.621 920 1060 639 c 0,22,23
 1077 573 1077 573 1077 464 c 128,-1,24
 1077 355 1077 355 1041.5 257.5 c 128,-1,25
 1006 160 1006 160 942.5 95.5 c 0,26,27
 816.977 -32 816.977 -32 602 -32 c 0,28,29
 349.202 -32 349.202 -32 234.5 160.5 c 0,30,31
 124 345.948 124 345.948 124 738 c 0,32,33
 124 1548 124 1548 619 1548 c 0,0,1
718.5 726.5 m 0,34,35
 677 735 677 735 592.733 735 c 128,-1,36
 508.467 735 508.467 735 370 704 c 1,37,38
 372.033 407.121 372.033 407.121 421.5 292 c 0,39,40
 473.492 171 473.492 171 602.246 171 c 0,41,42
 860 171 860 171 860 465 c 0,43,44
 860 697.518 860 697.518 718.5 726.5 c 0,34,35
EndSplineSet
EndChar

StartChar: seven
Encoding: 55 55 24
Width: 1194
Flags: HW
LayerCount: 2
Fore
SplineSet
153 1049 m 1,0,1
 135.585 1051.49 135.585 1051.49 132 1073 c 1,2,-1
 141 1542 l 2,3,4
 141 1560 141 1560 164 1560 c 1,5,-1
 328 1540 l 1,6,7
 348 1536.36 348 1536.36 348 1517 c 2,8,-1
 348 1488 l 1,9,-1
 1079 1515 l 1,10,11
 1108 1514 1108 1514 1110 1480 c 1,12,-1
 1106 1350 l 1,13,-1
 596 11 l 1,14,15
 586.905 -9.46313 586.905 -9.46313 570 -11 c 1,16,-1
 338 9 l 2,17,18
 322 10 322 10 321 28 c 0,19,20
 321 41.2857 321 41.2857 370.5 153.643 c 1,21,-1
 902 1321 l 1,22,-1
 349 1321 l 1,23,-1
 350 1081 l 2,24,25
 350 1062 350 1062 326 1061 c 2,26,-1
 153 1049 l 1,0,1
EndSplineSet
EndChar

StartChar: eight
Encoding: 56 56 25
Width: 1194
Flags: HW
LayerCount: 2
Fore
SplineSet
991.5 1358 m 128,-1,1
 1028 1287 1028 1287 1028 1202 c 128,-1,2
 1028 1117 1028 1117 1012.5 1062.5 c 128,-1,3
 997 1008 997 1008 968.5 960.5 c 0,4,5
 922.027 883.045 922.027 883.045 812 782 c 1,6,7
 952.601 693.091 952.601 693.091 1009.5 610 c 0,8,9
 1070 521.651 1070 521.651 1070 404.825 c 128,-1,10
 1070 288 1070 288 1037.5 211 c 128,-1,11
 1005 134 1005 134 945 82.5 c 0,12,13
 825.583 -20 825.583 -20 608 -20 c 0,14,15
 405.124 -20 405.124 -20 277.5 74.5 c 0,16,17
 134 180.756 134 180.756 134 380 c 0,18,19
 134 581.122 134 581.122 275 729 c 0,20,21
 316 772 316 772 361 813 c 1,22,23
 175 953.533 175 953.533 175 1154 c 0,24,25
 175 1343.99 175 1343.99 299.5 1455.5 c 0,26,27
 416.175 1560 416.175 1560 594 1560 c 0,28,29
 777.422 1560 777.422 1560 894 1474 c 0,30,0
 955 1429 955 1429 991.5 1358 c 128,-1,1
487 728 m 1,31,32
 353 580.256 353 580.256 353 430 c 0,33,34
 353 310 353 310 429 243.5 c 0,35,36
 501.571 180 501.571 180 622 180 c 0,37,38
 777.169 180 777.169 180 826 297.5 c 0,39,40
 842 336 842 336 842 387.5 c 128,-1,41
 842 439 842 439 825 476 c 128,-1,42
 808 513 808 513 767 549 c 128,-1,43
 726 585 726 585 658 626.5 c 2,44,-1
 487 728 l 1,31,32
402 1251 m 0,45,46
 382 1214 382 1214 382 1171.5 c 128,-1,47
 382 1129 382 1129 395 1096 c 128,-1,48
 408 1063 408 1063 442.5 1027 c 0,49,50
 511.9 954.583 511.9 954.583 690 855 c 1,51,52
 760.5 925.5 760.5 925.5 786.75 972.75 c 0,53,54
 836 1061.4 836 1061.4 836 1154 c 0,55,56
 836 1243.46 836 1243.46 772.5 1300.5 c 0,57,58
 710.717 1356 710.717 1356 619 1356 c 0,59,60
 458.757 1356 458.757 1356 402 1251 c 0,45,46
EndSplineSet
EndChar

StartChar: nine
Encoding: 57 57 26
Width: 1194
Flags: HW
LayerCount: 2
Fore
SplineSet
209 -51 m 1,0,1
 171.333 -51 171.333 -51 167 -12 c 1,2,-1
 199 325 l 2,3,4
 201.674 349.067 201.674 349.067 221 351 c 2,5,-1
 359 361 l 1,6,7
 376.167 361 376.167 361 380 338 c 1,8,-1
 401 140 l 1,9,10
 470 128 470 128 549.5 128 c 128,-1,11
 629 128 629 128 685 160 c 128,-1,12
 741 192 741 192 772.5 257.5 c 0,13,14
 825.578 367.869 825.578 367.869 832 659 c 1,15,16
 698.667 609 698.667 609 547 609 c 0,17,18
 211.282 609 211.282 609 139 887.5 c 0,19,20
 122 953 122 953 122 1065 c 128,-1,21
 122 1177 122 1177 161 1276 c 128,-1,22
 200 1375 200 1375 266.5 1438.5 c 0,23,24
 394.787 1561 394.787 1561 604 1561 c 0,25,26
 845 1561 845 1561 957.5 1377.5 c 128,-1,27
 1070 1194 1070 1194 1070 822 c 0,28,29
 1070 179.929 1070 179.929 830 18.5 c 0,30,31
 746 -38 746 -38 613.857 -38 c 128,-1,32
 481.714 -38 481.714 -38 393 -15 c 1,33,-1
 209 -51 l 1,0,1
487.5 800.5 m 0,34,35
 529 790 529 790 607.5 790 c 128,-1,36
 686 790 686 790 834 827 c 1,37,-1
 834 855 l 2,38,39
 834 1125.97 834 1125.97 780.5 1237.5 c 0,40,41
 723.179 1357 723.179 1357 577 1357 c 0,42,43
 348 1357 348 1357 348 1073 c 0,44,45
 348 835.795 348 835.795 487.5 800.5 c 0,34,35
EndSplineSet
EndChar

StartChar: colon
Encoding: 58 58 27
Width: 512
Flags: HW
LayerCount: 2
Fore
SplineSet
415.5 135 m 128,-1,1
 421 105 421 105 421 79 c 128,-1,2
 421 53 421 53 403.5 31.5 c 128,-1,3
 386 10 386 10 357 -4 c 0,4,5
 296.929 -33 296.929 -33 240.964 -33 c 128,-1,6
 185 -33 185 -33 164 -15.5 c 128,-1,7
 143 2 143 2 130 28 c 0,8,9
 105 78 105 78 105 126.5 c 128,-1,10
 105 175 105 175 127 197 c 128,-1,11
 149 219 149 219 181 231.5 c 0,12,13
 236.04 253 236.04 253 290.52 253 c 128,-1,14
 345 253 345 253 365.5 235.5 c 128,-1,15
 386 218 386 218 398 191.5 c 128,-1,0
 410 165 410 165 415.5 135 c 128,-1,1
415.5 902 m 128,-1,17
 421 872 421 872 421 846 c 128,-1,18
 421 820 421 820 403.5 798.5 c 128,-1,19
 386 777 386 777 357 763 c 0,20,21
 296.929 734 296.929 734 240.964 734 c 128,-1,22
 185 734 185 734 164 751.5 c 128,-1,23
 143 769 143 769 130 795 c 0,24,25
 105 845 105 845 105 893.5 c 128,-1,26
 105 942 105 942 127 964 c 128,-1,27
 149 986 149 986 181 998.5 c 0,28,29
 236.04 1020 236.04 1020 290.52 1020 c 128,-1,30
 345 1020 345 1020 365.5 1002.5 c 128,-1,31
 386 985 386 985 398 958.5 c 128,-1,16
 410 932 410 932 415.5 902 c 128,-1,17
EndSplineSet
EndChar

StartChar: semicolon
Encoding: 59 59 28
Width: 512
Flags: HW
LayerCount: 2
Fore
SplineSet
149 -281 m 1,0,1
 206 -153.846 206 -153.846 206 -95.4231 c 128,-1,2
 206 -37 206 -37 193 -9.5 c 128,-1,3
 180 18 180 18 163 38 c 256,4,5
 126 81.5294 126 81.5294 126 108.265 c 128,-1,6
 126 135 126 135 144 159 c 128,-1,7
 162 183 162 183 188.5 203.5 c 0,8,9
 249.902 251 249.902 251 294.951 251 c 128,-1,10
 340 251 340 251 365 231.5 c 128,-1,11
 390 212 390 212 404 182.5 c 0,12,13
 430 127.714 430 127.714 430 62.8571 c 128,-1,14
 430 -2 430 -2 417 -53 c 128,-1,15
 404 -104 404 -104 382.5 -150.5 c 0,16,17
 342.192 -237.678 342.192 -237.678 276 -313 c 1,18,-1
 149 -281 l 1,0,1
415.5 902 m 128,-1,20
 421 872 421 872 421 846 c 128,-1,21
 421 820 421 820 403.5 798.5 c 128,-1,22
 386 777 386 777 357 763 c 0,23,24
 296.929 734 296.929 734 240.964 734 c 128,-1,25
 185 734 185 734 164 751.5 c 128,-1,26
 143 769 143 769 130 795 c 0,27,28
 105 845 105 845 105 893.5 c 128,-1,29
 105 942 105 942 127 964 c 128,-1,30
 149 986 149 986 181 998.5 c 0,31,32
 236.04 1020 236.04 1020 290.52 1020 c 128,-1,33
 345 1020 345 1020 365.5 1002.5 c 128,-1,34
 386 985 386 985 398 958.5 c 128,-1,19
 410 932 410 932 415.5 902 c 128,-1,20
EndSplineSet
EndChar

StartChar: less
Encoding: 60 60 29
Width: 1194
Flags: HW
LayerCount: 2
Fore
SplineSet
249 490 m 2,0,1
 225.613 504.032 225.613 504.032 224 525 c 2,2,-1
 216 621 l 1,3,4
 218 643 218 643 233 652 c 2,5,-1
 846 1024 l 2,6,7
 854 1030 854 1030 861 1030 c 0,8,9
 875.6 1030 875.6 1030 882 1022 c 1,10,-1
 970 885 l 2,11,12
 976 876 976 876 976 870 c 256,13,14
 976 864 976 864 970 860 c 2,15,-1
 433 577 l 1,16,-1
 971 304 l 2,17,18
 977 300 977 300 977 293 c 256,19,20
 977 286 977 286 971 276 c 2,21,-1
 887 134 l 2,22,23
 883 127 883 127 876.5 127 c 128,-1,24
 870 127 870 127 862 132 c 2,25,-1
 249 490 l 2,0,1
EndSplineSet
EndChar

StartChar: equal
Encoding: 61 61 30
Width: 1194
Flags: HW
LayerCount: 2
Fore
SplineSet
995 852 m 2,0,1
 1009.27 852 1009.27 852 1011 833 c 1,2,-1
 1011 692 l 2,3,4
 1011 668 1011 668 994 668 c 2,5,-1
 596 680 l 1,6,-1
 214 672 l 1,7,8
 201 673 201 673 196 676.5 c 128,-1,9
 191 680 191 680 190 692 c 2,10,-1
 182 843 l 1,11,12
 182 862 182 862 200 862 c 2,13,-1
 995 852 l 2,0,1
198 278 m 2,14,15
 183.727 278 183.727 278 182 297 c 1,16,-1
 182 438 l 2,17,18
 182 462 182 462 201 462 c 2,19,-1
 613 450 l 1,20,-1
 979 458 l 1,21,22
 992 457 992 457 997 453.5 c 128,-1,23
 1002 450 1002 450 1003 438 c 2,24,-1
 1011 287 l 2,25,26
 1011 269.778 1011 269.778 995 268 c 1,27,-1
 198 278 l 2,14,15
EndSplineSet
EndChar

StartChar: greater
Encoding: 62 62 31
Width: 1194
Flags: HW
LayerCount: 2
Fore
SplineSet
945 666 m 2,0,1
 968.387 651.968 968.387 651.968 970 631 c 2,2,-1
 978 535 l 1,3,4
 976 513 976 513 961 504 c 2,5,-1
 348 132 l 2,6,7
 340 126 340 126 333 126 c 0,8,9
 318.4 126 318.4 126 312 134 c 1,10,-1
 224 271 l 2,11,12
 218 280 218 280 218 286 c 256,13,14
 218 292 218 292 224 296 c 2,15,-1
 761 579 l 1,16,-1
 223 852 l 2,17,18
 217 856 217 856 217 862.5 c 128,-1,19
 217 869 217 869 223 880 c 2,20,-1
 307 1022 l 2,21,22
 311 1029 311 1029 317.5 1029 c 128,-1,23
 324 1029 324 1029 332 1024 c 2,24,-1
 945 666 l 2,0,1
EndSplineSet
EndChar

StartChar: question
Encoding: 63 63 32
Width: 1023
Flags: HW
LayerCount: 2
Fore
SplineSet
86 1091 m 2,0,1
 72.0909 1091 72.0909 1091 70 1114 c 1,2,-1
 90 1504 l 1,3,4
 92.6667 1536 92.6667 1536 120 1536 c 2,5,-1
 269 1532 l 1,6,7
 303.525 1529.53 303.525 1529.53 307 1500 c 1,8,-1
 305 1440 l 1,9,10
 465 1524 465 1524 624 1524 c 0,11,12
 880.137 1524 880.137 1524 949.5 1341 c 0,13,14
 973 1279 973 1279 973 1204.5 c 128,-1,15
 973 1130 973 1130 955 1068.5 c 128,-1,16
 937 1007 937 1007 907.5 948.5 c 128,-1,17
 878 890 878 890 840 834 c 1,18,-1
 652.5 571.5 l 1,19,20
 600 496 600 496 582.5 451.5 c 128,-1,21
 565 407 565 407 560.5 401.5 c 128,-1,22
 556 396 556 396 545 396 c 1,23,-1
 389 419 l 2,24,25
 376 420 376 420 376 434 c 128,-1,26
 376 448 376 448 386.5 488.5 c 0,27,28
 410.267 580.171 410.267 580.171 528 751 c 1,29,-1
 604.5 863.5 l 1,30,31
 739 1066.15 739 1066.15 739 1178 c 0,32,33
 739 1278.63 739 1278.63 639 1312.5 c 0,34,35
 608 1323 608 1323 568 1323 c 128,-1,36
 528 1323 528 1323 492.5 1318 c 128,-1,37
 457 1313 457 1313 425 1304 c 0,38,39
 374.085 1289.68 374.085 1289.68 299 1251 c 1,40,-1
 295 1123 l 2,41,42
 294 1110 294 1110 291.5 1104 c 128,-1,43
 289 1098 289 1098 274 1097 c 2,44,-1
 86 1091 l 2,0,1
640.5 135 m 128,-1,46
 646 105 646 105 646 79 c 128,-1,47
 646 53 646 53 628.5 31.5 c 128,-1,48
 611 10 611 10 582 -4 c 0,49,50
 521.929 -33 521.929 -33 465.964 -33 c 128,-1,51
 410 -33 410 -33 389 -15.5 c 128,-1,52
 368 2 368 2 355 28 c 0,53,54
 330 78 330 78 330 126.5 c 128,-1,55
 330 175 330 175 352 197 c 128,-1,56
 374 219 374 219 406 231.5 c 0,57,58
 461.04 253 461.04 253 515.52 253 c 128,-1,59
 570 253 570 253 590.5 235.5 c 128,-1,60
 611 218 611 218 623 191.5 c 128,-1,45
 635 165 635 165 640.5 135 c 128,-1,46
EndSplineSet
EndChar

StartChar: at
Encoding: 64 64 33
Width: 2042
Flags: HW
LayerCount: 2
Fore
SplineSet
1250 140 m 1,0,1
 1134.36 -26.0001 1134.36 -26.0001 937 -26 c 0,2,3
 683.528 -26 683.528 -26 613.5 251 c 0,4,5
 591 340 591 340 591 480.5 c 128,-1,6
 591 621 591 621 618.5 751.5 c 128,-1,7
 646 882 646 882 700 971.5 c 0,8,9
 810.112 1154 810.112 1154 1017 1154 c 0,10,11
 1155.37 1154 1155.37 1154 1246 1072 c 1,12,13
 1243.62 1134 1243.62 1134 1239 1174 c 1,14,15
 1239 1195 1239 1195 1263 1195 c 1,16,-1
 1433 1164 l 2,17,18
 1451 1160.73 1451 1160.73 1451 1141 c 1,19,20
 1432 956 1432 956 1421.5 839 c 2,21,-1
 1404.5 650 l 2,22,23
 1383 411.846 1383 411.846 1383 302 c 0,24,25
 1383 247 1383 247 1415.5 217 c 128,-1,26
 1448 187 1448 187 1495.5 187 c 128,-1,27
 1543 187 1543 187 1585 230 c 128,-1,28
 1627 273 1627 273 1658.5 354 c 0,29,30
 1726 527.571 1726 527.571 1726 816 c 0,31,32
 1726 1397 1726 1397 1100 1397 c 0,33,34
 706 1397 706 1397 515 1161.5 c 128,-1,35
 324 926 324 926 324 447 c 0,36,37
 324 69.982 324 69.982 489.5 -97.5 c 0,38,39
 650.077 -260 650.077 -260 1017.92 -260 c 128,-1,40
 1385.77 -260 1385.77 -260 1776 -82 c 1,41,42
 1789 -82 1789 -82 1793 -85.5 c 128,-1,43
 1797 -89 1797 -89 1799 -100 c 2,44,-1
 1830 -280 l 1,45,46
 1830 -299.111 1830 -299.111 1810 -308 c 1,47,48
 1494.34 -428.406 1494.34 -428.406 1204.5 -457 c 0,49,50
 1093 -468 1093 -468 938 -468 c 128,-1,51
 783 -468 783 -468 630.5 -417 c 128,-1,52
 478 -366 478 -366 368.5 -256.5 c 0,53,54
 138 -26 138 -26 138 438 c 0,55,56
 138 981.964 138 981.964 387.5 1285 c 0,57,58
 642.733 1595 642.733 1595 1114 1595 c 0,59,60
 1684.92 1595 1684.92 1595 1848 1171 c 0,61,62
 1903 1028 1903 1028 1903 830.5 c 128,-1,63
 1903 633 1903 633 1875 476.5 c 128,-1,64
 1847 320 1847 320 1793.5 213 c 0,65,66
 1684.5 -5 1684.5 -5 1482 -5 c 0,67,68
 1326.53 -5 1326.53 -5 1250 140 c 1,0,1
873.5 210 m 128,-1,70
 905 188 905 188 959 188 c 128,-1,71
 1013 188 1013 188 1053.5 213 c 128,-1,72
 1094 238 1094 238 1122.5 279 c 128,-1,73
 1151 320 1151 320 1168.5 372.5 c 128,-1,74
 1186 425 1186 425 1196.5 480.5 c 0,75,76
 1214 573 1214 573 1214 667 c 128,-1,77
 1214 761 1214 761 1202 811 c 128,-1,78
 1190 861 1190 861 1166 892 c 0,79,80
 1121.87 949 1121.87 949 1042.94 949 c 128,-1,81
 964 949 964 949 920.5 917 c 128,-1,82
 877 885 877 885 849.5 824 c 0,83,84
 797 707.545 797 707.545 797 471 c 0,85,86
 797 332.588 797 332.588 819.5 282.294 c 128,-1,69
 842 232 842 232 873.5 210 c 128,-1,70
EndSplineSet
EndChar

StartChar: A
Encoding: 65 65 34
Width: 1366
Flags: HW
LayerCount: 2
Fore
SplineSet
56 2 m 1,0,1
 34 3.69231 34 3.69231 34 34 c 2,2,-1
 34 201 l 2,3,4
 34 217 34 217 40.5 223 c 128,-1,5
 47 229 47 229 64 230 c 1,6,-1
 156 226 l 1,7,-1
 552 1510 l 2,8,9
 558.469 1529.41 558.469 1529.41 576 1531 c 2,10,-1
 803 1539 l 1,11,12
 821 1538 821 1538 828 1516 c 2,13,-1
 1260 233 l 1,14,-1
 1351 236 l 1,15,16
 1379 234 1379 234 1379 204 c 2,17,-1
 1379 46 l 2,18,19
 1379 29 1379 29 1372 24 c 128,-1,20
 1365 19 1365 19 1348 19 c 2,21,-1
 885 19 l 2,22,23
 867 19 867 19 864 27 c 128,-1,24
 861 35 861 35 861 49 c 1,25,-1
 881 195 l 2,26,27
 883 212 883 212 889 217.5 c 128,-1,28
 895 223 895 223 911 223 c 2,29,-1
 1025 226 l 1,30,-1
 939 492 l 1,31,-1
 444 502 l 1,32,-1
 363 212 l 1,33,-1
 484 224 l 1,34,35
 496 224 496 224 500.5 219 c 128,-1,36
 505 214 505 214 507 201 c 2,37,-1
 522 49 l 1,38,39
 520 32 520 32 513.5 26 c 128,-1,40
 507 20 507 20 492 19 c 2,41,-1
 56 2 l 1,0,1
491 672 m 1,42,-1
 880 672 l 1,43,-1
 670 1315 l 1,44,-1
 491 672 l 1,42,-1
EndSplineSet
EndChar

StartChar: B
Encoding: 66 66 35
Width: 1366
Flags: HW
LayerCount: 2
Fore
SplineSet
953 795 m 1,0,1
 1268 730.147 1268 730.147 1268 433 c 0,2,3
 1268 80.2818 1268 80.2818 932 8.5 c 0,4,5
 822 -15 822 -15 718 -15 c 128,-1,6
 614 -15 614 -15 537 -11.5 c 128,-1,7
 460 -8 460 -8 386 -2 c 0,8,9
 136.995 18.1896 136.995 18.1896 124.5 37.5 c 0,10,11
 119 46 119 46 118 58 c 1,12,-1
 127 205 l 2,13,14
 129.154 233 129.154 233 159.177 233 c 128,-1,15
 189.2 233 189.2 233 278 221 c 1,16,-1
 278 1320 l 1,17,18
 198 1315 198 1315 163.5 1315 c 128,-1,19
 129 1315 129 1315 127 1343 c 2,20,-1
 118 1483 l 1,21,22
 120.282 1510.38 120.282 1510.38 142 1514 c 0,23,24
 372.625 1555 372.625 1555 645 1555 c 0,25,26
 1178 1555 1178 1555 1178 1136 c 0,27,28
 1178 929.714 1178 929.714 1048 841.5 c 0,29,30
 1006 813 1006 813 953 795 c 1,0,1
502 195 m 1,31,32
 592 190 592 190 670 190 c 128,-1,33
 748 190 748 190 818.5 198.5 c 128,-1,34
 889 207 889 207 940 232.5 c 0,35,36
 1048 286.5 1048 286.5 1048 431 c 256,37,38
 1048 633.102 1048 633.102 834.5 660 c 0,39,40
 771 668 771 668 682.4 668 c 128,-1,41
 593.8 668 593.8 668 502 659 c 1,42,-1
 502 195 l 1,31,32
771 1342 m 0,43,44
 716 1351 716 1351 652.875 1351 c 128,-1,45
 589.75 1351 589.75 1351 502 1342 c 1,46,-1
 502 855 l 1,47,48
 531 853 531 853 560.5 853 c 2,49,-1
 619 853 l 2,50,51
 782.649 853 782.649 853 861.5 903.5 c 0,52,53
 955 963.382 955 963.382 955 1111 c 0,54,55
 955 1311.89 955 1311.89 771 1342 c 0,43,44
EndSplineSet
EndChar

StartChar: C
Encoding: 67 67 36
Width: 1366
Flags: HW
LayerCount: 2
Fore
SplineSet
1173 1530 m 1,0,1
 1212.83 1530 1212.83 1530 1215 1491 c 1,2,-1
 1203 1055 l 2,3,4
 1203 1029 1203 1029 1181 1029 c 2,5,-1
 1013 1025 l 2,6,7
 993.917 1025 993.917 1025 992 1048 c 2,8,-1
 971 1305 l 1,9,10
 848.857 1335 848.857 1335 745.929 1335 c 128,-1,11
 643 1335 643 1335 572 1304.5 c 128,-1,12
 501 1274 501 1274 455 1206 c 0,13,14
 366 1074.43 366 1074.43 366 765 c 0,15,16
 366 298.449 366 298.449 592.5 206 c 0,17,18
 666 176 666 176 771.765 176 c 128,-1,19
 877.529 176 877.529 176 996 214 c 1,20,-1
 991 348 l 1,21,22
 992.662 366.277 992.662 366.277 1015 370 c 2,23,-1
 1181 398 l 1,24,25
 1198.17 398 1198.17 398 1202 375 c 1,26,-1
 1242 -15 l 1,27,28
 1242 -31 1242 -31 1219 -33 c 2,29,-1
 1047 -48 l 1,30,31
 1007.17 -48 1007.17 -48 1005 -9 c 2,32,-1
 1003 33 l 1,33,34
 863.97 -41 863.97 -41 709.485 -41 c 128,-1,35
 555 -41 555 -41 449.5 12 c 128,-1,36
 344 65 344 65 273 168.5 c 0,37,38
 130 376.958 130 376.958 130 776 c 0,39,40
 130 1171.87 130 1171.87 290 1364.5 c 0,41,42
 435.77 1540 435.77 1540 707 1540 c 0,43,44
 877.1 1540 877.1 1540 993 1502 c 1,45,-1
 1173 1530 l 1,0,1
EndSplineSet
EndChar

StartChar: D
Encoding: 68 68 37
Width: 1366
Flags: HW
LayerCount: 2
Fore
SplineSet
246 1313 m 1,0,1
 184.8 1309.4 184.8 1309.4 105 1301 c 1,2,3
 94 1301 94 1301 91 1306 c 128,-1,4
 88 1311 88 1311 87 1323 c 2,5,-1
 73 1509 l 1,6,7
 74 1521 74 1521 79.5 1524.5 c 128,-1,8
 85 1528 85 1528 97 1530 c 1,9,10
 196 1532 196 1532 269.5 1534 c 128,-1,11
 343 1536 343 1536 397.5 1537 c 128,-1,12
 452 1538 452 1538 490.5 1538.5 c 128,-1,13
 529 1539 529 1539 557.5 1539.5 c 128,-1,14
 586 1540 586 1540 607.5 1540 c 2,15,-1
 650 1540 l 2,16,17
 948.291 1540 948.291 1540 1092.5 1384 c 0,18,19
 1259 1203.89 1259 1203.89 1259 786 c 0,20,21
 1259 390.559 1259 390.559 1089.5 180 c 0,22,23
 929.305 -19 929.305 -19 645 -19 c 0,24,25
 346.833 -19 346.833 -19 101 6 c 0,26,27
 84 7 84 7 83 30 c 1,28,-1
 95 207 l 2,29,30
 96.5795 222.795 96.5795 222.795 111 226 c 1,31,-1
 220 218 l 1,32,-1
 246 1313 l 1,0,1
453 205 m 1,33,34
 537 199 537 199 575 199 c 2,35,-1
 639 199 l 2,36,37
 842 199 842 199 937.5 340 c 128,-1,38
 1033 481 1033 481 1033 761 c 0,39,40
 1033 1225.38 1033 1225.38 810 1309 c 0,41,42
 738 1336 738 1336 680.5 1336 c 0,43,44
 580.5 1336 580.5 1336 465 1329 c 1,45,-1
 453 205 l 1,33,34
EndSplineSet
EndChar

StartChar: E
Encoding: 69 69 38
Width: 1366
Flags: HW
LayerCount: 2
Fore
SplineSet
1272 -41 m 1,0,1
 1268.17 -64.0002 1268.17 -64.0002 1251 -64 c 2,2,-1
 1063 -60 l 2,3,4
 1041 -60 1041 -60 1041 -34 c 2,5,-1
 1039 27 l 1,6,-1
 146 2 l 2,7,8
 123 2 123 2 122 26 c 1,9,-1
 128 210 l 2,10,11
 128 225.444 128 225.444 144 229 c 1,12,-1
 269 212 l 1,13,-1
 261 1301 l 1,14,-1
 135 1290 l 1,15,16
 117 1290 117 1290 117 1312 c 1,17,-1
 128 1494 l 2,18,19
 129.594 1513.13 129.594 1513.13 152 1515 c 1,20,-1
 1151 1553 l 1,21,22
 1181 1550.69 1181 1550.69 1181 1526 c 1,23,-1
 1161 1161 l 1,24,25
 1161 1138 1161 1138 1145 1138 c 2,26,-1
 977 1144 l 2,27,28
 963 1145 963 1145 960 1151 c 128,-1,29
 957 1157 957 1157 956 1170 c 2,30,-1
 950 1342 l 1,31,-1
 477 1317 l 1,32,-1
 484 851 l 1,33,-1
 975 882 l 1,34,35
 1000.36 882 1000.36 882 1002 859 c 2,36,-1
 1009 691 l 1,37,38
 1007 668 1007 668 988 668 c 2,39,-1
 486 661 l 1,40,-1
 493 204 l 1,41,-1
 1033 222 l 1,42,-1
 1029 353 l 1,43,44
 1031.04 389.78 1031.04 389.78 1071 392 c 1,45,-1
 1233 387 l 1,46,47
 1256 385 1256 385 1256 369 c 2,48,-1
 1272 -41 l 1,0,1
EndSplineSet
EndChar

StartChar: F
Encoding: 70 70 39
Width: 1195
Flags: HW
LayerCount: 2
Fore
SplineSet
123 1311 m 1,0,1
 108.58 1314.2 108.58 1314.2 107 1330 c 1,2,-1
 121 1514 l 2,3,4
 122 1538 122 1538 139 1538 c 2,5,-1
 871 1521 l 1,6,-1
 870 1574 l 2,7,8
 870 1597 870 1597 892 1600 c 1,9,-1
 1050 1614 l 1,10,11
 1067.17 1614 1067.17 1614 1071 1591 c 2,12,-1
 1125 1171 l 1,13,14
 1125 1155 1125 1155 1102 1153 c 2,15,-1
 920 1138 l 1,16,17
 880.167 1138 880.167 1138 878 1177 c 1,18,-1
 875 1315 l 1,19,-1
 482 1326 l 1,20,-1
 475 850 l 1,21,-1
 991 852 l 2,22,23
 1009 852 1009 852 1009 833 c 2,24,-1
 1002 671 l 2,25,26
 1000.36 648 1000.36 648 975 648 c 2,27,-1
 472 661 l 1,28,-1
 466 213 l 1,29,-1
 724 228 l 1,30,31
 745.429 228 745.429 228 747 206 c 2,32,-1
 758 30 l 1,33,34
 757 17 757 17 754 12 c 128,-1,35
 751 7 751 7 740 7 c 2,36,-1
 141 -5 l 1,37,38
 129 -3 129 -3 123.5 0.5 c 128,-1,39
 118 4 118 4 117 16 c 2,40,-1
 106 198 l 1,41,42
 106 218.364 106 218.364 124 220 c 1,43,-1
 250 214 l 1,44,-1
 258 1322 l 1,45,-1
 123 1311 l 1,0,1
EndSplineSet
EndChar

StartChar: G
Encoding: 71 71 40
Width: 1366
Flags: HW
LayerCount: 2
Fore
SplineSet
729 596 m 1,0,1
 706 599.833 706 599.833 706 617 c 2,2,-1
 710 795 l 2,3,4
 710 814.833 710 814.833 736 817 c 2,5,-1
 1223 849 l 1,6,7
 1259.78 846.957 1259.78 846.957 1262 807 c 1,8,-1
 1257 635 l 2,9,10
 1257 624 1257 624 1251 618 c 128,-1,11
 1245 612 1245 612 1239 612 c 2,12,-1
 1187 610 l 1,13,-1
 1205 15 l 1,14,15
 1203 -13 1203 -13 1179 -13 c 0,16,17
 1123.4 -13 1123.4 -13 990 56 c 1,18,19
 854.647 -22 854.647 -22 698.323 -22 c 128,-1,20
 542 -22 542 -22 432 24.5 c 128,-1,21
 322 71 322 71 247.5 169.5 c 0,22,23
 96 369.805 96 369.805 96 790 c 0,24,25
 96 1375.57 96 1375.57 426.5 1500.5 c 0,26,27
 531 1540 531 1540 661 1540 c 0,28,29
 846.771 1540 846.771 1540 966 1443 c 1,30,-1
 986 1564 l 1,31,32
 989 1589 989 1589 1008 1590 c 2,33,-1
 1165 1604 l 1,34,35
 1189 1604 1189 1604 1189 1581 c 2,36,-1
 1200 1215 l 2,37,38
 1200 1196 1200 1196 1180 1193 c 2,39,-1
 990 1167 l 1,40,41
 928.525 1248.23 928.525 1248.23 881.763 1277.12 c 0,42,43
 797.762 1329 797.762 1329 708.881 1329 c 128,-1,44
 620 1329 620 1329 546.5 1304 c 128,-1,45
 473 1279 473 1279 421 1217 c 0,46,47
 312 1087.04 312 1087.04 312 786 c 0,48,49
 312 300.69 312 300.69 555.5 219 c 0,50,51
 633 193 633 193 743.889 193 c 128,-1,52
 854.778 193 854.778 193 977 237 c 1,53,-1
 972 603 l 1,54,-1
 729 596 l 1,0,1
EndSplineSet
EndChar

StartChar: H
Encoding: 72 72 41
Width: 1538
Flags: HW
LayerCount: 2
Fore
SplineSet
664 240 m 1,0,1
 680 240 680 240 680 221 c 1,2,-1
 667 33 l 2,3,4
 665.333 12.9998 665.333 12.9998 643 13 c 2,5,-1
 179 6 l 2,6,7
 162 6 162 6 161 30 c 1,8,-1
 163 207 l 2,9,10
 163 222.444 163 222.444 179 226 c 1,11,-1
 286 223 l 1,12,-1
 286 1304 l 1,13,-1
 153 1303 l 2,14,15
 142 1303 142 1303 139 1308 c 128,-1,16
 136 1313 136 1313 135 1325 c 2,17,-1
 126 1501 l 1,18,19
 127 1513 127 1513 132.5 1516.5 c 128,-1,20
 138 1520 138 1520 150 1522 c 1,21,-1
 649 1514 l 1,22,23
 667 1512.36 667 1512.36 667 1491 c 2,24,-1
 663 1315 l 2,25,26
 663 1293 663 1293 640 1293 c 1,27,-1
 509 1300 l 1,28,-1
 508 858 l 1,29,-1
 1050 865 l 1,30,-1
 1050 1322 l 1,31,-1
 913 1326 l 2,32,33
 902 1326 902 1326 899 1331 c 128,-1,34
 896 1336 896 1336 895 1348 c 1,35,-1
 901 1514 l 2,36,37
 902.75 1535 902.75 1535 925 1535 c 2,38,-1
 1392 1537 l 1,39,40
 1403 1536 1403 1536 1406 1531.5 c 128,-1,41
 1409 1527 1409 1527 1410 1514 c 2,42,-1
 1423 1335 l 1,43,44
 1423 1313 1423 1313 1400 1313 c 2,45,-1
 1273 1316 l 1,46,-1
 1270 205 l 1,47,-1
 1424 210 l 2,48,49
 1440 210 1440 210 1440 191 c 1,50,-1
 1427 13 l 2,51,52
 1425.33 -6.99951 1425.33 -6.99951 1403 -7 c 2,53,-1
 929 6 l 2,54,55
 912 6 912 6 911 30 c 1,56,-1
 913 197 l 2,57,58
 913 212.444 913 212.444 929 216 c 1,59,-1
 1050 207 l 1,60,-1
 1050 663 l 1,61,-1
 507 659 l 1,62,-1
 506 229 l 1,63,-1
 664 240 l 1,0,1
EndSplineSet
EndChar

StartChar: I
Encoding: 73 73 42
Width: 682
Flags: HW
LayerCount: 2
Fore
SplineSet
585 210 m 2,0,1
 601 210 601 210 601 191 c 2,2,-1
 598 13 l 2,3,4
 598 -7 598 -7 574 -7 c 2,5,-1
 110 6 l 2,6,7
 93 6 93 6 92 30 c 2,8,-1
 84 207 l 1,9,10
 85.5795 222.795 85.5795 222.795 100 226 c 1,11,-1
 239 216 l 1,12,-1
 231 1305 l 1,13,-1
 94 1306 l 2,14,15
 76 1306 76 1306 76 1328 c 1,16,-1
 92 1504 l 2,17,18
 93 1516 93 1516 98.5 1519.5 c 128,-1,19
 104 1523 104 1523 116 1525 c 1,20,-1
 583 1507 l 2,21,22
 594 1506 594 1506 597 1501.5 c 128,-1,23
 600 1497 600 1497 601 1484 c 1,24,-1
 594 1325 l 2,25,26
 592.429 1303 592.429 1303 571 1303 c 2,27,-1
 454 1303 l 1,28,-1
 451 210 l 1,29,-1
 585 210 l 2,0,1
EndSplineSet
EndChar

StartChar: J
Encoding: 74 74 43
Width: 852
Flags: HW
LayerCount: 2
Fore
SplineSet
679 1315 m 1,0,1
 722 829.714 722 829.714 722 357 c 0,2,3
 722 111.076 722 111.076 633 9.5 c 0,4,5
 546.695 -89 546.695 -89 342 -89 c 0,6,7
 325 -89 325 -89 309 -87 c 2,8,-1
 276 -83 l 1,9,-1
 284 -137 l 1,10,11
 284 -153 284 -153 261 -155 c 2,12,-1
 108 -170 l 1,13,14
 70.3333 -170 70.3333 -170 66 -131 c 1,15,-1
 38 306 l 1,16,17
 39.6145 328.602 39.6145 328.602 60 332 c 1,18,-1
 199 346 l 1,19,20
 216.167 346 216.167 346 220 323 c 2,21,-1
 251 95 l 1,22,23
 277.667 87 277.667 87 320.333 87 c 128,-1,24
 363 87 363 87 401 105 c 128,-1,25
 439 123 439 123 462 162.5 c 0,26,27
 506 238.065 506 238.065 506 416 c 0,28,29
 506 663.647 506 663.647 488 918.824 c 2,30,-1
 460 1310 l 1,31,-1
 253 1298 l 2,32,33
 237 1298 237 1298 237 1317 c 2,34,-1
 230 1505 l 1,35,36
 231 1517 231 1517 236 1520.5 c 128,-1,37
 241 1524 241 1524 254 1525 c 2,38,-1
 816 1542 l 2,39,40
 832 1542 832 1542 834 1518 c 2,41,-1
 842 1331 l 1,42,43
 840.42 1315.2 840.42 1315.2 826 1312 c 1,44,-1
 679 1315 l 1,0,1
EndSplineSet
EndChar

StartChar: K
Encoding: 75 75 44
Width: 1366
Flags: HW
LayerCount: 2
Fore
SplineSet
854 1316 m 2,0,1
 836 1316 836 1316 836 1338 c 1,2,-1
 852 1524 l 2,3,4
 853.408 1540.89 853.408 1540.89 876 1545 c 1,5,-1
 1293 1537 l 1,6,7
 1311 1535.2 1311 1535.2 1311 1514 c 2,8,-1
 1314 1335 l 2,9,10
 1314 1313 1314 1313 1291 1313 c 2,11,-1
 1180 1314 l 1,12,-1
 770 732 l 1,13,-1
 1144 222 l 1,14,-1
 1316 210 l 2,15,16
 1349 207.643 1349 207.643 1349 176 c 2,17,-1
 1350 29 l 2,18,19
 1350 -14.15 1350 -14.15 1313 -16 c 2,20,-1
 1051 -23 l 1,21,22
 1029.42 -21.4589 1029.42 -21.4589 1016 -3 c 1,23,-1
 602 630 l 1,24,-1
 481 626 l 1,25,-1
 481 220 l 1,26,-1
 585 220 l 2,27,28
 601 220 601 220 601 201 c 2,29,-1
 608 13 l 1,30,31
 606.333 -7.00024 606.333 -7.00024 584 -7 c 2,32,-1
 120 -4 l 2,33,34
 103 -4 103 -4 102 20 c 2,35,-1
 94 217 l 1,36,37
 95.5795 232.795 95.5795 232.795 110 236 c 1,38,-1
 257 227 l 1,39,-1
 257 1320 l 1,40,-1
 114 1306 l 1,41,42
 103 1306 103 1306 100 1311 c 128,-1,43
 97 1316 97 1316 96 1328 c 2,44,-1
 82 1524 l 1,45,46
 83.75 1545 83.75 1545 106 1545 c 2,47,-1
 583 1547 l 1,48,49
 594 1546 594 1546 597 1541.5 c 128,-1,50
 600 1537 600 1537 601 1524 c 1,51,-1
 584 1335 l 1,52,53
 580.857 1313 580.857 1313 561 1313 c 1,54,-1
 481 1318 l 1,55,-1
 481 798 l 1,56,-1
 607 806 l 1,57,-1
 946 1315 l 1,58,-1
 854 1316 l 2,0,1
EndSplineSet
EndChar

StartChar: L
Encoding: 76 76 45
Width: 1195
Flags: HW
LayerCount: 2
Fore
SplineSet
969 -43 m 1,0,1
 951.833 -43 951.833 -43 948 -20 c 1,2,-1
 943 28 l 1,3,-1
 100 -7 l 2,4,5
 83 -7 83 -7 82 17 c 1,6,-1
 98 191 l 2,7,8
 99.5795 206.795 99.5795 206.795 114 210 c 1,9,-1
 252 204 l 1,10,-1
 261 1304 l 1,11,-1
 125 1291 l 1,12,13
 114 1291 114 1291 111 1296 c 128,-1,14
 108 1301 108 1301 107 1313 c 2,15,-1
 98 1493 l 1,16,17
 99 1516 99 1516 122 1516 c 2,18,-1
 607 1524 l 1,19,20
 625.723 1522.3 625.723 1522.3 629 1501 c 2,21,-1
 648 1325 l 1,22,23
 648 1311 648 1311 641.5 1307.5 c 128,-1,24
 635 1304 635 1304 625 1303 c 1,25,-1
 479 1308 l 1,26,-1
 476 209 l 1,27,-1
 922 232 l 1,28,-1
 904 407 l 1,29,30
 904 426 904 426 927 428 c 2,31,-1
 1089 443 l 1,32,33
 1128.83 443 1128.83 443 1131 404 c 2,34,-1
 1149 7 l 1,35,36
 1147.11 -15.6479 1147.11 -15.6479 1127 -19 c 2,37,-1
 969 -43 l 1,0,1
EndSplineSet
EndChar

StartChar: M
Encoding: 77 77 46
Width: 1872
Flags: HW
LayerCount: 2
Fore
SplineSet
1369 3 m 2,0,1
 1346.67 3 1346.67 3 1345 23 c 1,2,-1
 1352 191 l 2,3,4
 1353.73 210 1353.73 210 1368 210 c 2,5,-1
 1437 210 l 1,6,-1
 1377 1337 l 1,7,-1
 1058 10 l 1,8,9
 1054.36 -9.99994 1054.36 -9.99994 1034 -10 c 2,10,-1
 822 -13 l 2,11,12
 804 -13 804 -13 799 9 c 2,13,-1
 468 1291 l 1,14,-1
 439 216 l 1,15,-1
 531 220 l 2,16,17
 544.286 220 544.286 220 547 201 c 2,18,-1
 564 23 l 1,19,20
 562.333 2.99976 562.333 2.99976 540 3 c 2,21,-1
 106 -4 l 2,22,23
 89 -4 89 -4 88 20 c 1,24,-1
 100 207 l 2,25,26
 101.58 222.795 101.58 222.795 116 226 c 1,27,-1
 248 214 l 1,28,-1
 307 1295 l 1,29,-1
 183 1283 l 1,30,31
 163 1283 163 1283 162 1305 c 2,32,-1
 153 1491 l 1,33,34
 154.594 1510.13 154.594 1510.13 177 1512 c 2,35,-1
 587 1534 l 1,36,37
 616.364 1534 616.364 1534 624 1506 c 2,38,-1
 942 238 l 1,39,-1
 1258 1497 l 2,40,41
 1264.46 1525 1264.46 1525 1295 1525 c 2,42,-1
 1688 1522 l 1,43,44
 1700 1520 1700 1520 1705.5 1516.5 c 128,-1,45
 1711 1513 1711 1513 1712 1501 c 2,46,-1
 1723 1305 l 1,47,48
 1721 1293 1721 1293 1718.5 1288 c 128,-1,49
 1716 1283 1716 1283 1705 1283 c 2,50,-1
 1582 1284 l 1,51,-1
 1650 213 l 1,52,-1
 1783 216 l 1,53,54
 1797.42 212.795 1797.42 212.795 1799 197 c 1,55,-1
 1781 30 l 1,56,57
 1777 6 1777 6 1763 6 c 2,58,-1
 1369 3 l 2,0,1
EndSplineSet
EndChar

StartChar: N
Encoding: 78 78 47
Width: 1536
Flags: HW
LayerCount: 2
Fore
SplineSet
1472 1325 m 1,0,1
 1472 1303 1472 1303 1449 1303 c 2,2,-1
 1322 1306 l 1,3,-1
 1320 39 l 2,4,5
 1320 11.8462 1320 11.8462 1296 10 c 2,6,-1
 1054 -3 l 2,7,8
 1041 -3 1041 -3 1031 19 c 2,9,-1
 442 1324 l 1,10,-1
 466 230 l 1,11,-1
 623 240 l 2,12,13
 637.273 240 637.273 240 639 221 c 2,14,-1
 656 23 l 1,15,16
 654.333 2.99976 654.333 2.99976 632 3 c 2,17,-1
 148 6 l 2,18,19
 134 6 134 6 130 30 c 1,20,-1
 112 197 l 1,21,22
 113.9 216 113.9 216 128 216 c 2,23,-1
 285 220 l 1,24,-1
 285 1301 l 1,25,-1
 102 1293 l 1,26,27
 91 1294 91 1294 88.5 1298.5 c 128,-1,28
 86 1303 86 1303 84 1315 c 1,29,-1
 95 1491 l 2,30,31
 96.5944 1510.13 96.5944 1510.13 119 1512 c 2,32,-1
 559 1534 l 1,33,34
 584.647 1532.49 584.647 1532.49 596 1506 c 2,35,-1
 1163 232 l 1,36,-1
 1137 1311 l 1,37,-1
 982 1316 l 2,38,39
 971 1316 971 1316 968 1321 c 128,-1,40
 965 1326 965 1326 964 1338 c 1,41,-1
 970 1504 l 2,42,43
 971.75 1525 971.75 1525 994 1525 c 2,44,-1
 1441 1527 l 1,45,46
 1452 1526 1452 1526 1455 1521.5 c 128,-1,47
 1458 1517 1458 1517 1459 1504 c 2,48,-1
 1472 1325 l 1,0,1
EndSplineSet
EndChar

StartChar: O
Encoding: 79 79 48
Width: 1366
Flags: HW
LayerCount: 2
Fore
SplineSet
1260 751 m 0,0,1
 1260 -10 1260 -10 699 -10 c 0,2,3
 406 -10 406 -10 255.5 182.5 c 128,-1,4
 105 375 105 375 105 751 c 0,5,6
 105 1330.5 105 1330.5 422 1487.5 c 0,7,8
 528 1540 528 1540 670.5 1540 c 128,-1,9
 813 1540 813 1540 922.5 1496 c 128,-1,10
 1032 1452 1032 1452 1107 1357 c 0,11,12
 1260 1163.2 1260 1163.2 1260 751 c 0,0,1
1034 763.5 m 0,13,14
 1034 919 1034 919 1010 1029 c 128,-1,15
 986 1139 986 1139 939.5 1202 c 128,-1,16
 893 1265 893 1265 826 1288.5 c 128,-1,17
 759 1312 759 1312 668 1312 c 128,-1,18
 577 1312 577 1312 511 1278 c 128,-1,19
 445 1244 445 1244 404.5 1175 c 0,20,21
 329 1046.37 329 1046.37 329 755 c 0,22,23
 329 457.5 329 457.5 423 332.5 c 0,24,25
 509.856 217 509.856 217 706 217 c 0,26,27
 885.395 217 885.395 217 961.5 344.5 c 0,28,29
 1034 465.961 1034 465.961 1034 763.5 c 0,13,14
EndSplineSet
EndChar

StartChar: P
Encoding: 80 80 49
Width: 1366
Flags: HW
LayerCount: 2
Fore
SplineSet
737 218 m 2,0,1
 753 218 753 218 753 199 c 1,2,-1
 740 33 l 2,3,4
 738.333 12.9998 738.333 12.9998 716 13 c 2,5,-1
 142 6 l 2,6,7
 124 6 124 6 124 30 c 2,8,-1
 126 205 l 2,9,10
 126 220.444 126 220.444 142 224 c 1,11,-1
 299 208 l 1,12,-1
 299 1328 l 1,13,-1
 143 1315 l 2,14,15
 133 1315 133 1315 125.5 1323 c 128,-1,16
 118 1331 118 1331 118 1343 c 2,17,-1
 129 1483 l 2,18,19
 131.282 1510.38 131.282 1510.38 157.141 1514.69 c 128,-1,20
 183 1519 183 1519 225.5 1524.5 c 128,-1,21
 268 1530 268 1530 317.5 1534.5 c 128,-1,22
 367 1539 367 1539 421.5 1543 c 128,-1,23
 476 1547 476 1547 529.5 1549.5 c 0,24,25
 647.2 1555 647.2 1555 758.1 1555 c 128,-1,26
 869 1555 869 1555 976.5 1528 c 128,-1,27
 1084 1501 1084 1501 1155.5 1443.5 c 0,28,29
 1299 1328.1 1299 1328.1 1299 1078 c 0,30,31
 1299 721.931 1299 721.931 966.5 651.5 c 0,32,33
 865 630 865 630 747 630 c 128,-1,34
 629 630 629 630 513 640 c 1,35,-1
 513 205 l 1,36,-1
 737 218 l 2,0,1
513 822 m 1,37,38
 610.2 813 610.2 813 703.1 813 c 128,-1,39
 796 813 796 813 859.5 823.5 c 128,-1,40
 923 834 923 834 969 863.5 c 0,41,42
 1066 925.707 1066 925.707 1066 1080 c 0,43,44
 1066 1354 1066 1354 764 1354 c 0,45,46
 650.25 1354 650.25 1354 513 1345 c 1,47,-1
 513 822 l 1,37,38
EndSplineSet
EndChar

StartChar: Q
Encoding: 81 81 50
Width: 1366
Flags: HW
LayerCount: 2
Fore
SplineSet
227.5 205.5 m 128,-1,1
 110 402 110 402 110 783.5 c 128,-1,2
 110 1165 110 1165 243 1367.5 c 128,-1,3
 376 1570 376 1570 662 1570 c 0,4,5
 954.846 1570 954.846 1570 1101 1382.5 c 0,6,7
 1257 1182.37 1257 1182.37 1257 782.684 c 128,-1,8
 1257 383 1257 383 1135.5 182 c 128,-1,9
 1014 -19 1014 -19 753 -38 c 1,10,11
 783 -110 783 -110 833.5 -136.5 c 128,-1,12
 884 -163 884 -163 939 -163 c 0,13,14
 1028 -163 1028 -163 1097.5 -149.5 c 128,-1,15
 1167 -136 1167 -136 1181 -136 c 256,16,17
 1195 -136 1195 -136 1197 -153 c 2,18,-1
 1208 -320 l 1,19,20
 1206 -332 1206 -332 1201.5 -335.5 c 128,-1,21
 1197 -339 1197 -339 1161.5 -348.5 c 0,22,23
 1040.05 -381 1040.05 -381 937.526 -381 c 128,-1,24
 835 -381 835 -381 777.5 -357 c 128,-1,25
 720 -333 720 -333 681.5 -288 c 0,26,27
 617.807 -213.553 617.807 -213.553 578 -30 c 1,28,0
 345 9 345 9 227.5 205.5 c 128,-1,1
1018.5 494 m 128,-1,30
 1035 604 1035 604 1035 766.5 c 128,-1,31
 1035 929 1035 929 1009 1044 c 128,-1,32
 983 1159 983 1159 935 1225.5 c 0,33,34
 849.466 1344 849.466 1344 664 1344 c 0,35,36
 476.064 1344 476.064 1344 400 1206.5 c 0,37,38
 328 1076.35 328 1076.35 328 766 c 0,39,40
 328 292 328 292 542.5 196 c 0,41,42
 614 164 614 164 707 164 c 128,-1,43
 800 164 800 164 862.5 200.5 c 128,-1,44
 925 237 925 237 963.5 310.5 c 128,-1,29
 1002 384 1002 384 1018.5 494 c 128,-1,30
EndSplineSet
EndChar

StartChar: R
Encoding: 82 82 51
Width: 1366
Flags: HW
LayerCount: 2
Fore
SplineSet
622 13 m 1,0,1
 620.333 -7.00024 620.333 -7.00024 598 -7 c 2,2,-1
 94 -4 l 2,3,4
 77 -4 77 -4 76 20 c 1,5,-1
 98 217 l 2,6,7
 99.5795 232.795 99.5795 232.795 114 236 c 1,8,-1
 241 227 l 1,9,-1
 241 1307 l 1,10,11
 167 1301 167 1301 137 1301 c 128,-1,12
 107 1301 107 1301 99.5 1308.5 c 128,-1,13
 92 1316 92 1316 90 1329 c 2,14,-1
 70 1493 l 1,15,16
 72.2817 1520.38 72.2817 1520.38 94 1524 c 1,17,18
 393.666 1555 393.666 1555 687 1555 c 0,19,20
 1096.08 1555 1096.08 1555 1196.5 1294.5 c 0,21,22
 1231 1205 1231 1205 1231 1095.5 c 128,-1,23
 1231 986 1231 986 1205.5 912.5 c 128,-1,24
 1180 839 1180 839 1133.5 785.5 c 0,25,26
 1042.16 680.414 1042.16 680.414 883 649 c 1,27,-1
 1145 235 l 1,28,-1
 1322 250 l 1,29,30
 1355 247.643 1355 247.643 1355 216 c 2,31,-1
 1356 59 l 2,32,33
 1356 5.85 1356 5.85 1319 4 c 2,34,-1
 1035 -3 l 2,35,36
 1015 -3 1015 -3 1004 17 c 2,37,-1
 666 638 l 1,38,39
 551.589 640.119 551.589 640.119 461 649 c 1,40,-1
 464 220 l 1,41,-1
 599 220 l 2,42,43
 615 220 615 220 615 201 c 2,44,-1
 622 13 l 1,0,1
725 1345 m 0,45,46
 645 1345 645 1345 455 1326 c 1,47,-1
 459 828 l 1,48,49
 545.667 823 545.667 823 639.833 823 c 128,-1,50
 734 823 734 823 795.5 836.5 c 128,-1,51
 857 850 857 850 902.5 880.5 c 0,52,53
 999 945.187 999 945.187 999 1081.59 c 128,-1,54
 999 1218 999 1218 930.5 1281.5 c 128,-1,55
 862 1345 862 1345 725 1345 c 0,45,46
EndSplineSet
EndChar

StartChar: S
Encoding: 83 83 52
Width: 1196
Flags: HW
LayerCount: 2
Fore
SplineSet
878.5 32.5 m 0,0,1
 794 4 794 4 666 4 c 128,-1,2
 538 4 538 4 362 36 c 1,3,-1
 369 -44 l 1,4,5
 369 -62 369 -62 346 -62 c 2,6,-1
 174 -67 l 1,7,8
 136.099 -64.8944 136.099 -64.8944 132 -28 c 2,9,-1
 94 359 l 1,10,11
 94 379 94 379 118 381 c 2,12,-1
 314 399 l 1,13,14
 333.083 399 333.083 399 335 376 c 2,15,-1
 348 214 l 1,16,17
 492.375 199 492.375 199 635.188 199 c 128,-1,18
 778 199 778 199 835 247.5 c 128,-1,19
 892 296 892 296 892 394 c 0,20,21
 892 482.029 892 482.029 825 538.5 c 0,22,23
 790 568 790 568 734 597 c 1,24,-1
 460.5 730 l 1,25,26
 314.942 798.767 314.942 798.767 260.971 840.384 c 128,-1,27
 207 882 207 882 178.5 921.5 c 0,28,29
 120 1002.58 120 1002.58 120 1112.29 c 128,-1,30
 120 1222 120 1222 154 1299.5 c 128,-1,31
 188 1377 188 1377 249.5 1433 c 0,32,33
 380.188 1552 380.188 1552 580 1552 c 0,34,35
 721.5 1552 721.5 1552 888 1507 c 1,36,37
 1016.14 1546 1016.14 1546 1048.53 1546 c 128,-1,38
 1080.92 1546 1080.92 1546 1083 1519 c 1,39,-1
 1063 1104 l 2,40,41
 1060.91 1081 1060.91 1081 1047 1081 c 2,42,-1
 879 1087 l 2,43,44
 865 1088 865 1088 862 1094 c 128,-1,45
 859 1100 859 1100 858 1113 c 2,46,-1
 850 1333 l 1,47,48
 731 1361 731 1361 652 1361 c 256,49,50
 453.15 1361 453.15 1361 381 1250 c 0,51,52
 355 1210 355 1210 355 1155.5 c 128,-1,53
 355 1101 355 1101 381 1065 c 128,-1,54
 407 1029 407 1029 456 997.5 c 128,-1,55
 505 966 505 966 576.5 933.5 c 2,56,-1
 740 859 l 1,57,58
 971.101 751.703 971.101 751.703 1048.5 667.5 c 0,59,60
 1132 576.659 1132 576.659 1132 413 c 0,61,62
 1132 118 1132 118 878.5 32.5 c 0,0,1
EndSplineSet
EndChar

StartChar: T
Encoding: 84 84 53
Width: 1366
Flags: HW
LayerCount: 2
Fore
SplineSet
113 1049 m 1,0,1
 95.5854 1051.49 95.5854 1051.49 92 1073 c 1,2,-1
 101 1542 l 2,3,4
 101 1560 101 1560 124 1560 c 1,5,-1
 288 1540 l 1,6,7
 308 1540 308 1540 308 1517 c 2,8,-1
 308 1491 l 1,9,-1
 1075 1499 l 1,10,-1
 1259 1519 l 1,11,12
 1281 1519 1281 1519 1281 1497 c 1,13,-1
 1251 1054 l 2,14,15
 1249.22 1038 1249.22 1038 1232 1038 c 2,16,-1
 1061 1046 l 1,17,18
 1049 1048 1049 1048 1045.5 1052.5 c 128,-1,19
 1042 1057 1042 1057 1041 1070 c 1,20,-1
 1044 1317 l 1,21,-1
 786 1313 l 1,22,-1
 803 225 l 1,23,-1
 996 236 l 1,24,25
 1012 232.444 1012 232.444 1012 217 c 2,26,-1
 1014 40 l 1,27,28
 1012 16 1012 16 996 16 c 2,29,-1
 402 3 l 2,30,31
 379.667 3 379.667 3 378 23 c 1,32,-1
 385 221 l 2,33,34
 385 240 385 240 401 240 c 2,35,-1
 579 229 l 1,36,-1
 561 1307 l 1,37,-1
 309 1293 l 1,38,-1
 310 1081 l 1,39,40
 309 1062 309 1062 286 1061 c 2,41,-1
 113 1049 l 1,0,1
EndSplineSet
EndChar

StartChar: U
Encoding: 85 85 54
Width: 1538
Flags: HW
LayerCount: 2
Fore
SplineSet
1415 200 m 1,0,1
 1431 200 1431 200 1431 181 c 1,2,-1
 1418 3 l 2,3,4
 1416.33 -16.9995 1416.33 -16.9995 1394 -17 c 2,5,-1
 1051 -24 l 2,6,7
 1028 -24 1028 -24 1028 0 c 2,8,-1
 1029 227 l 1,9,10
 943 125 943 125 835 68.5 c 128,-1,11
 727 12 727 12 621.5 12 c 128,-1,12
 516 12 516 12 443 46.5 c 128,-1,13
 370 81 370 81 320 148 c 0,14,15
 219 283.34 219 283.34 219 538 c 0,16,17
 219 807.583 219 807.583 234.5 1007.79 c 2,18,-1
 258 1306 l 1,19,-1
 94 1293 l 2,20,21
 83 1293 83 1293 80.5 1297.5 c 128,-1,22
 78 1302 78 1302 76 1315 c 1,23,-1
 87 1501 l 2,24,25
 88.5944 1520.13 88.5944 1520.13 111 1522 c 1,26,-1
 543 1537 l 1,27,28
 561 1535.36 561 1535.36 561 1514 c 1,29,-1
 547 1338 l 1,30,31
 543.857 1316 543.857 1316 524 1316 c 2,32,-1
 476 1316 l 1,33,34
 470 1221 470 1221 466 1146.5 c 2,35,-1
 458.5 1012 l 2,36,37
 447 814.857 447 814.857 447 622 c 0,38,39
 447 246 447 246 671 246 c 0,40,41
 812.019 246 812.019 246 954 333.5 c 0,42,43
 997 360 997 360 1030 390 c 1,44,-1
 1036 1280 l 1,45,-1
 929 1276 l 2,46,47
 915 1276 915 1276 915 1298 c 2,48,-1
 921 1484 l 1,49,50
 922.75 1505 922.75 1505 945 1505 c 2,51,-1
 1393 1517 l 1,52,53
 1411 1515.2 1411 1515.2 1411 1494 c 2,54,-1
 1414 1315 l 2,55,56
 1414 1293 1414 1293 1391 1293 c 2,57,-1
 1251 1288 l 1,58,-1
 1251 184 l 1,59,-1
 1415 200 l 1,0,1
EndSplineSet
EndChar

StartChar: V
Encoding: 86 86 55
Width: 1364
Flags: HW
LayerCount: 2
Fore
SplineSet
1324 1529 m 2,0,1
 1346 1529 1346 1529 1346 1497 c 1,2,-1
 1336 1340 l 2,3,4
 1335 1324 1335 1324 1329 1318 c 128,-1,5
 1323 1312 1323 1312 1306 1311 c 1,6,-1
 1223 1315 l 1,7,-1
 810 21 l 2,8,9
 803.531 1.59375 803.531 1.59375 786 0 c 2,10,-1
 599 -8 l 1,11,12
 581 -7 581 -7 574 15 c 2,13,-1
 129 1290 l 1,14,-1
 64 1285 l 1,15,16
 36 1285 36 1285 36 1317 c 1,17,-1
 46 1485 l 1,18,19
 46 1502 46 1502 53 1507 c 128,-1,20
 60 1512 60 1512 77 1512 c 2,21,-1
 520 1522 l 1,22,23
 542.082 1518.85 542.082 1518.85 544 1492 c 2,24,-1
 554 1326 l 1,25,26
 552 1309 552 1309 546 1303.5 c 128,-1,27
 540 1298 540 1298 524 1298 c 2,28,-1
 378 1299 l 1,29,-1
 700 250 l 1,30,-1
 1003 1320 l 1,31,-1
 876 1317 l 2,32,33
 864 1317 864 1317 859.5 1322 c 128,-1,34
 855 1327 855 1327 853 1340 c 1,35,-1
 858 1502 l 2,36,37
 859.654 1530.11 859.654 1530.11 888 1532 c 1,38,-1
 1324 1529 l 2,0,1
EndSplineSet
EndChar

StartChar: W
Encoding: 87 87 56
Width: 1878
Flags: HW
LayerCount: 2
Fore
SplineSet
83 1295 m 1,0,1
 55 1295 55 1295 55 1327 c 1,2,-1
 65 1495 l 2,3,4
 66 1512 66 1512 72.5 1516.5 c 128,-1,5
 79 1521 79 1521 96 1522 c 2,6,-1
 559 1542 l 1,7,8
 576 1541 576 1541 579 1533.5 c 128,-1,9
 582 1526 582 1526 583 1512 c 2,10,-1
 593 1346 l 1,11,12
 591 1329 591 1329 585 1323.5 c 128,-1,13
 579 1318 579 1318 563 1318 c 2,14,-1
 402 1320 l 1,15,-1
 628 323 l 1,16,-1
 868 1491 l 1,17,18
 871 1511 871 1511 892 1512 c 2,19,-1
 1043 1523 l 1,20,21
 1064 1521 1064 1521 1068 1500 c 2,22,-1
 1331 319 l 1,23,-1
 1530 1323 l 1,24,-1
 1376 1327 l 2,25,26
 1364 1327 1364 1327 1359.5 1332 c 128,-1,27
 1355 1337 1355 1337 1353 1350 c 1,28,-1
 1358 1512 l 2,29,30
 1359.65 1540.11 1359.65 1540.11 1388 1542 c 1,31,-1
 1834 1529 l 1,32,33
 1856 1527.31 1856 1527.31 1856 1497 c 1,34,-1
 1846 1340 l 2,35,36
 1845 1324 1845 1324 1839 1318 c 128,-1,37
 1833 1312 1833 1312 1816 1311 c 1,38,-1
 1720 1315 l 1,39,-1
 1408 21 l 2,40,41
 1403.73 1.7937 1403.73 1.7937 1384 0 c 2,42,-1
 1227 -8 l 1,43,44
 1206 -6 1206 -6 1202 15 c 2,45,-1
 955 1080 l 1,46,-1
 722 21 l 2,47,48
 717.732 1.7937 717.732 1.7937 698 0 c 2,49,-1
 531 -8 l 1,50,51
 513 -7 513 -7 506 15 c 1,52,-1
 177 1304 l 1,53,-1
 83 1295 l 1,0,1
EndSplineSet
EndChar

StartChar: X
Encoding: 88 88 57
Width: 1366
Flags: HW
LayerCount: 2
Fore
SplineSet
103 5 m 2,0,1
 82 5 82 5 82 26 c 1,2,-1
 92 213 l 2,3,4
 93.6667 233 93.6667 233 115 233 c 1,5,-1
 225 216 l 1,6,-1
 627 762 l 1,7,-1
 265 1315 l 1,8,-1
 135 1303 l 1,9,10
 114 1303 114 1303 114 1327 c 2,11,-1
 114 1506 l 2,12,13
 114 1526 114 1526 137 1526 c 2,14,-1
 628 1537 l 2,15,16
 642 1537 642 1537 644 1531.5 c 128,-1,17
 646 1526 646 1526 646 1515 c 2,18,-1
 651 1335 l 1,19,20
 649 1322 649 1322 645 1318 c 128,-1,21
 641 1314 641 1314 629 1314 c 2,22,-1
 538 1319 l 1,23,-1
 725 936 l 1,24,-1
 921 1308 l 1,25,-1
 852 1312 l 2,26,27
 836 1313 836 1313 835 1329 c 2,28,-1
 824 1504 l 1,29,30
 827.385 1524.31 827.385 1524.31 846 1526 c 1,31,-1
 1283 1526 l 1,32,33
 1296.96 1524.45 1296.96 1524.45 1299 1502 c 1,34,-1
 1289 1309 l 2,35,36
 1287.09 1288 1287.09 1288 1267 1288 c 1,37,-1
 1147 1295 l 1,38,-1
 805 790 l 1,39,-1
 1186 220 l 1,40,-1
 1320 222 l 2,41,42
 1335 222 1335 222 1335 198 c 1,43,-1
 1316 32 l 2,44,45
 1314 21 1314 21 1310 17 c 128,-1,46
 1306 13 1306 13 1293 13 c 2,47,-1
 847 7 l 1,48,49
 828 9 828 9 827 25 c 2,50,-1
 815 194 l 1,51,52
 816.75 215 816.75 215 838 215 c 2,53,-1
 918 216 l 1,54,-1
 708 635 l 1,55,-1
 462 215 l 1,56,-1
 565 223 l 1,57,58
 581 223 581 223 581 199 c 2,59,-1
 579 24 l 1,60,61
 577 11 577 11 572.5 7.5 c 128,-1,62
 568 4 568 4 557 3 c 1,63,-1
 103 5 l 2,0,1
EndSplineSet
EndChar

StartChar: Y
Encoding: 89 89 58
Width: 1366
Flags: HW
LayerCount: 2
Fore
SplineSet
962 215 m 2,0,1
 980 215 980 215 980 193 c 1,2,-1
 964 17 l 2,3,4
 963 5 963 5 957.5 1.5 c 128,-1,5
 952 -2 952 -2 940 -4 c 1,6,-1
 408 11 l 2,7,8
 397 11 397 11 394 16 c 128,-1,9
 391 21 391 21 390 34 c 1,10,-1
 397 203 l 2,11,12
 398.571 225 398.571 225 420 225 c 2,13,-1
 577 222 l 1,14,-1
 580 559 l 1,15,-1
 152 1307 l 1,16,-1
 66 1301 l 1,17,18
 38 1301 38 1301 38 1333 c 1,19,-1
 28 1503 l 2,20,21
 28 1520 28 1520 35 1525 c 128,-1,22
 42 1530 42 1530 59 1530 c 2,23,-1
 542 1530 l 2,24,25
 560 1530 560 1530 563 1522 c 128,-1,26
 566 1514 566 1514 566 1500 c 2,27,-1
 556 1335 l 2,28,29
 555 1318 555 1318 548.5 1313 c 128,-1,30
 542 1308 542 1308 526 1307 c 1,31,-1
 416 1311 l 1,32,-1
 714 712 l 1,33,-1
 1002 1303 l 1,34,-1
 875 1300 l 2,35,36
 863 1300 863 1300 858.5 1305 c 128,-1,37
 854 1310 854 1310 852 1323 c 2,38,-1
 837 1490 l 1,39,40
 838.765 1520 838.765 1520 867 1520 c 2,41,-1
 1323 1527 l 1,42,43
 1345 1525.31 1345 1525.31 1345 1495 c 1,44,-1
 1335 1333 l 2,45,46
 1334 1317 1334 1317 1328 1310.5 c 128,-1,47
 1322 1304 1322 1304 1305 1304 c 2,48,-1
 1218 1304 l 1,49,-1
 803 558 l 1,50,-1
 796 218 l 1,51,-1
 962 215 l 2,0,1
EndSplineSet
EndChar

StartChar: Z
Encoding: 90 90 59
Width: 1196
Flags: HW
LayerCount: 2
Fore
SplineSet
938 -93 m 1,0,1
 916.024 -91.3095 916.024 -91.3095 914 -65 c 1,2,-1
 917 12 l 1,3,-1
 199 23 l 1,4,5
 144.47 24.9475 144.47 24.9475 139 76 c 2,6,-1
 123 231 l 1,7,-1
 874 1342 l 1,8,-1
 365 1325 l 1,9,-1
 346 1103 l 2,10,11
 344 1081 344 1081 322 1081 c 2,12,-1
 155 1078 l 1,13,14
 136.697 1081.33 136.697 1081.33 135 1100 c 1,15,-1
 148 1499 l 2,16,17
 149 1513 149 1513 153 1518.5 c 128,-1,18
 157 1524 157 1524 170 1526 c 1,19,-1
 357 1503 l 1,20,-1
 1057 1542 l 1,21,22
 1093.95 1542 1093.95 1542 1101 1495 c 2,23,-1
 1127 1297 l 1,24,-1
 382 207 l 1,25,-1
 924 195 l 1,26,-1
 929 336 l 1,27,28
 931.364 362 931.364 362 950 362 c 2,29,-1
 1128 358 l 2,30,31
 1144 358 1144 358 1144 335 c 2,32,-1
 1132 -60 l 2,33,34
 1132 -79 1132 -79 1112 -81 c 2,35,-1
 938 -93 l 1,0,1
EndSplineSet
EndChar

StartChar: bracketleft
Encoding: 91 91 60
Width: 682
Flags: HW
LayerCount: 2
Fore
SplineSet
192 -194 m 1,0,1
 173 -192.273 173 -192.273 173 -178 c 2,2,-1
 193 1611 l 2,3,4
 193 1627 193 1627 212 1627 c 2,5,-1
 586 1636 l 2,6,7
 600.273 1636 600.273 1636 602 1617 c 1,8,-1
 592 1451 l 2,9,10
 591 1432 591 1432 573 1432 c 1,11,-1
 385 1443 l 1,12,-1
 393 840 l 1,13,-1
 366 1 l 1,14,-1
 578 21 l 1,15,16
 592 21 592 21 592 -3 c 1,17,-1
 572 -154 l 2,18,19
 568.907 -171.01 568.907 -171.01 551 -173 c 2,20,-1
 192 -194 l 1,0,1
EndSplineSet
EndChar

StartChar: backslash
Encoding: 92 92 61
Width: 682
Flags: HW
LayerCount: 2
Fore
SplineSet
158 1736 m 2,0,1
 161 1737 161 1737 165 1737 c 0,2,3
 182 1737 182 1737 185 1720 c 2,4,-1
 681 -395 l 2,5,6
 682 -397 682 -397 682 -402 c 0,7,8
 682 -419 682 -419 666 -423 c 2,9,-1
 540 -454 l 2,10,11
 536 -455 536 -455 530 -455 c 0,12,13
 515 -455 515 -455 512 -441 c 2,14,-1
 11 1676 l 2,15,16
 9 1684 9 1684 9 1687 c 0,17,18
 9 1699 9 1699 24 1704 c 1,19,-1
 158 1736 l 2,0,1
EndSplineSet
EndChar

StartChar: bracketright
Encoding: 93 93 62
Width: 682
Flags: HW
LayerCount: 2
Fore
SplineSet
490 1636 m 1,0,1
 509 1634.27 509 1634.27 509 1620 c 2,2,-1
 489 -169 l 2,3,4
 489 -185 489 -185 470 -185 c 2,5,-1
 96 -194 l 2,6,7
 81.7273 -194 81.7273 -194 80 -175 c 1,8,-1
 90 -9 l 2,9,10
 91 10 91 10 109 10 c 1,11,-1
 297 -1 l 1,12,-1
 289 602 l 1,13,-1
 316 1441 l 1,14,-1
 104 1421 l 1,15,16
 90 1421 90 1421 90 1445 c 1,17,-1
 110 1596 l 2,18,19
 113.093 1613.01 113.093 1613.01 131 1615 c 2,20,-1
 490 1636 l 1,0,1
EndSplineSet
EndChar

StartChar: asciicircum
Encoding: 94 94 63
Width: 1194
Flags: HW
LayerCount: 2
Fore
SplineSet
510 1410 m 2,0,1
 519 1431 519 1431 545 1435 c 1,2,-1
 641 1423 l 1,3,4
 665.75 1418.5 665.75 1418.5 672 1406 c 2,5,-1
 1129 421 l 2,6,7
 1133 413 1133 413 1133 401.5 c 128,-1,8
 1133 390 1133 390 1125 387 c 2,9,-1
 959 339 l 1,10,11
 949 335 949 335 942 335 c 128,-1,12
 935 335 935 335 931 345 c 2,13,-1
 591 1188 l 1,14,-1
 260 344 l 2,15,16
 256 335 256 335 246.5 335 c 128,-1,17
 237 335 237 335 227 339 c 2,18,-1
 68 402 l 2,19,20
 61 405 61 405 61 411 c 128,-1,21
 61 417 61 417 66 427 c 2,22,-1
 510 1410 l 2,0,1
EndSplineSet
EndChar

StartChar: underscore
Encoding: 95 95 64
Width: 1659
Flags: HW
LayerCount: 2
Fore
SplineSet
-24 -355 m 2,0,1
 -40 -355 -40 -355 -40 -336 c 1,2,-1
 -32 -196 l 2,3,4
 -30.3333 -176 -30.3333 -176 -8 -176 c 2,5,-1
 1675 -176 l 2,6,7
 1689 -176 1689 -176 1689 -200 c 1,8,-1
 1679 -336 l 2,9,10
 1677.27 -355 1677.27 -355 1663 -355 c 2,11,-1
 -24 -355 l 2,0,1
EndSplineSet
EndChar

StartChar: quoteleft
Encoding: 8216 8216 65
Width: 512
Flags: HW
LayerCount: 2
Fore
SplineSet
356 1729 m 1,0,1
 341 1625.88 341 1625.88 341 1563.94 c 128,-1,2
 341 1502 341 1502 346.5 1469 c 128,-1,3
 352 1436 352 1436 360.5 1408 c 128,-1,4
 369 1380 369 1380 379 1357 c 2,5,-1
 397 1316 l 2,6,7
 409 1289 409 1289 409 1271 c 128,-1,8
 409 1253 409 1253 392.5 1237 c 128,-1,9
 376 1221 376 1221 351 1210 c 0,10,11
 298.727 1187 298.727 1187 240 1187 c 0,12,13
 133 1187 133 1187 133 1346 c 0,14,15
 133 1531.15 133 1531.15 239 1751 c 1,16,-1
 356 1729 l 1,0,1
EndSplineSet
EndChar

StartChar: a
Encoding: 97 97 66
Width: 1196
Flags: HW
LayerCount: 2
Fore
SplineSet
722 1151 m 0,0,1
 1018 1151 1018 1151 1018 783 c 0,2,3
 1018 695.5 1018 695.5 1013.5 558.25 c 2,4,-1
 1007 362 l 2,5,6
 1005 303 1005 303 1002.5 249.5 c 2,7,-1
 998 155 l 1,8,-1
 1058.5 159.5 l 2,9,10
 1091 162 1091 162 1133 166 c 1,11,12
 1154 166 1154 166 1154 147 c 1,13,-1
 1136 -11 l 2,14,15
 1132.95 -29.2769 1132.95 -29.2769 1114 -31 c 2,16,-1
 825 -49 l 2,17,18
 811 -49 811 -49 811 -27 c 1,19,-1
 825 90 l 1,20,21
 658.19 -39 658.19 -39 462 -39 c 0,22,23
 309.287 -39 309.287 -39 209.5 50.5 c 0,24,25
 105 144.227 105 144.227 105 303 c 0,26,27
 105 509.617 105 509.617 247.5 593.5 c 0,28,29
 374.06 668 374.06 668 663 668 c 0,30,31
 723 668 723 668 791 665 c 1,32,33
 792 691 792 691 792 713 c 2,34,-1
 792 751 l 2,35,36
 792 946 792 946 621 946 c 0,37,38
 532.478 946 532.478 946 401 892 c 1,39,-1
 405 854.5 l 2,40,41
 407 835 407 835 407 824 c 0,42,43
 407 802 407 802 385 802 c 2,44,-1
 216 799 l 1,45,46
 197.697 802.328 197.697 802.328 196 821 c 2,47,-1
 179 1107 l 1,48,49
 179 1130.62 179 1130.62 201 1134 c 2,50,-1
 368 1156 l 1,51,52
 389 1156 389 1156 389 1134 c 2,53,-1
 389 1051 l 1,54,55
 567.947 1151 567.947 1151 722 1151 c 0,0,1
532 150 m 0,56,57
 647 150 647 150 785 216 c 1,58,59
 787 282 787 282 787.5 361.5 c 128,-1,60
 788 441 788 441 790 519 c 1,61,62
 526.739 519 526.739 519 425 474 c 0,63,64
 331 432.423 331 432.423 331 333.712 c 0,65,66
 331 150 331 150 532 150 c 0,56,57
EndSplineSet
EndChar

StartChar: b
Encoding: 98 98 67
Width: 1195
Flags: HW
LayerCount: 2
Fore
SplineSet
379 1595 m 1,0,1
 397 1595 397 1595 397 1572 c 2,2,-1
 381 1089 l 1,3,-1
 440.5 1110 l 1,4,5
 561.636 1151 561.636 1151 669.318 1151 c 128,-1,6
 777 1151 777 1151 858.5 1115 c 128,-1,7
 940 1079 940 1079 989.5 1006.5 c 0,8,9
 1080 873.949 1080 873.949 1080 573.975 c 128,-1,10
 1080 274 1080 274 979 132.5 c 128,-1,11
 878 -9 878 -9 670 -9 c 0,12,13
 520.72 -9 520.72 -9 391 38 c 1,14,15
 268.857 -19 268.857 -19 214 -19 c 0,16,17
 181 -19 181 -19 181 19 c 2,18,-1
 181 1369 l 1,19,-1
 35 1377 l 2,20,21
 16 1378 16 1378 15 1396 c 2,22,-1
 3 1551 l 1,23,24
 6.67797 1569.39 6.67797 1569.39 26 1571 c 2,25,-1
 379 1595 l 1,0,1
745 916 m 128,-1,27
 699 935 699 935 603.5 935 c 128,-1,28
 508 935 508 935 378 895 c 1,29,-1
 390 218 l 1,30,31
 510.545 192 510.545 192 595.773 192 c 128,-1,32
 681 192 681 192 728.5 209.5 c 128,-1,33
 776 227 776 227 806 270 c 0,34,35
 864 353.133 864 353.133 864 568 c 0,36,37
 864 778.547 864 778.547 817.5 854 c 0,38,26
 791 897 791 897 745 916 c 128,-1,27
EndSplineSet
EndChar

StartChar: c
Encoding: 99 99 68
Width: 1024
Flags: HW
LayerCount: 2
Fore
SplineSet
327 1126.5 m 128,-1,1
 392 1153 392 1153 486.5 1153 c 128,-1,2
 581 1153 581 1153 697 1124 c 1,3,-1
 885 1159 l 1,4,5
 903.303 1155.67 903.303 1155.67 905 1137 c 2,6,-1
 922 781 l 1,7,8
 920.313 757.385 920.313 757.385 900 754 c 2,9,-1
 733 732 l 1,10,11
 712 732 712 732 712 754 c 2,12,-1
 712 923 l 1,13,14
 647.714 938 647.714 938 574.857 938 c 128,-1,15
 502 938 502 938 446.5 914 c 128,-1,16
 391 890 391 890 360 842 c 0,17,18
 306 758.387 306 758.387 306 553 c 0,19,20
 306 245.383 306 245.383 431.5 202 c 0,21,22
 472 188 472 188 524.5 188 c 0,23,24
 598.625 188 598.625 188 696 207 c 1,25,-1
 700 276 l 2,26,27
 702.221 300.435 702.221 300.435 721 302 c 1,28,-1
 879 296 l 1,29,30
 893.051 294.439 893.051 294.439 895 273 c 2,31,-1
 913 -40 l 1,32,33
 913 -61 913 -61 893 -61 c 2,34,-1
 701 -61 l 2,35,36
 686.111 -61 686.111 -61 684 -42 c 1,37,-1
 687 15 l 1,38,39
 324.959 -55.9883 324.959 -55.9883 190.5 116.5 c 0,40,41
 94 240.293 94 240.293 94 517 c 0,42,43
 94 702.24 94 702.24 110 793.12 c 128,-1,44
 126 884 126 884 151 946 c 128,-1,45
 176 1008 176 1008 219 1054 c 128,-1,0
 262 1100 262 1100 327 1126.5 c 128,-1,1
EndSplineSet
EndChar

StartChar: d
Encoding: 100 100 69
Width: 1194
Flags: HW
LayerCount: 2
Fore
SplineSet
658 1415 m 2,0,1
 638 1415 638 1415 638 1439 c 1,2,-1
 648 1599 l 2,3,4
 649.818 1619 649.818 1619 671 1619 c 1,5,-1
 1014 1600 l 2,6,7
 1032 1598.36 1032 1598.36 1032 1577 c 2,8,-1
 1032 173 l 1,9,-1
 1137 184 l 1,10,11
 1157 184 1157 184 1157 165 c 1,12,-1
 1139 10 l 1,13,14
 1135.66 -6.72424 1135.66 -6.72424 1116 -10 c 2,15,-1
 868 -50 l 1,16,17
 849 -50 849 -50 849 -28 c 1,18,-1
 857 71 l 1,19,20
 689.429 2.00001 689.429 2.00001 556.714 2 c 128,-1,21
 424 2 424 2 343 38 c 128,-1,22
 262 74 262 74 212.5 146.5 c 0,23,24
 122 279.051 122 279.051 122 586 c 0,25,26
 122 1029.81 122 1029.81 351 1122 c 0,27,28
 428 1153 428 1153 560.121 1153 c 128,-1,29
 692.241 1153 692.241 1153 839 1097 c 1,30,-1
 826 1412 l 1,31,-1
 658 1415 l 2,0,1
845 894 m 1,32,33
 702.5 929 702.5 929 611.75 929 c 128,-1,34
 521 929 521 929 473.5 915 c 128,-1,35
 426 901 426 901 396 862 c 0,36,37
 338 786.6 338 786.6 338 575 c 0,38,39
 338 364.453 338 364.453 384.5 289 c 0,40,41
 434.419 208 434.419 208 575 208 c 0,42,43
 690.579 208 690.579 208 824 247 c 1,44,-1
 845 894 l 1,32,33
EndSplineSet
EndChar

StartChar: e
Encoding: 101 101 70
Width: 1196
Flags: HW
LayerCount: 2
Fore
SplineSet
847 6 m 1,0,1
 719 -26 719 -26 522 -26 c 0,2,3
 321.186 -26 321.186 -26 229.5 98.5 c 0,4,5
 135 226.821 135 226.821 135 507 c 0,6,7
 135 800.875 135 800.875 216 946 c 1,8,9
 307.858 1106.01 307.858 1106.01 510.5 1141 c 0,10,11
 580 1153 580 1153 666 1153 c 0,12,13
 851 1153 851 1153 935 1062 c 128,-1,14
 1019 971 1019 971 1019 784 c 0,15,16
 1019 661.556 1019 661.556 975.5 595.5 c 0,17,18
 962 575 962 575 938 548.5 c 128,-1,19
 914 522 914 522 849.5 501.5 c 128,-1,20
 785 481 785 481 702.5 470.5 c 0,21,22
 572.857 454 572.857 454 347 454 c 1,23,24
 359.873 284.813 359.873 284.813 429.5 223.5 c 0,25,26
 483.441 176 483.441 176 614 176 c 0,27,28
 737.2 176 737.2 176 859 197 c 1,29,-1
 862 249 l 2,30,31
 863 261 863 261 867.5 265 c 128,-1,32
 872 269 872 269 884 272 c 2,33,-1
 1028 304 l 1,34,35
 1050.08 304 1050.08 304 1053 285 c 0,36,37
 1055.8 268.2 1055.8 268.2 1058.9 218.6 c 128,-1,38
 1062 169 1062 169 1065 133 c 128,-1,39
 1068 97 1068 97 1070 64.5 c 2,40,-1
 1073.5 7.5 l 2,41,42
 1075 -17 1075 -17 1075 -33.5 c 0,43,44
 1075 -64.1111 1075 -64.1111 1031 -69 c 2,45,-1
 865 -89 l 1,46,47
 843 -89 843 -89 843 -67 c 1,48,-1
 847 6 l 1,0,1
785.5 714.5 m 128,-1,50
 791 745 791 745 791 786.5 c 128,-1,51
 791 828 791 828 783.5 860 c 128,-1,52
 776 892 776 892 757.5 915 c 0,53,54
 718.891 963 718.891 963 631 963 c 0,55,56
 461.333 963 461.333 963 404 877 c 0,57,58
 350.451 796.676 350.451 796.676 344 601 c 1,59,60
 692.532 606.362 692.532 606.362 754 661 c 0,61,49
 780 684 780 684 785.5 714.5 c 128,-1,50
EndSplineSet
EndChar

StartChar: f
Encoding: 102 102 71
Width: 854
Flags: HW
LayerCount: 2
Fore
SplineSet
449 1614 m 128,-1,1
 516 1634 516 1634 580.5 1634 c 128,-1,2
 645 1634 645 1634 683 1632 c 1,3,-1
 684 1659 l 2,4,5
 684 1676 684 1676 703 1676 c 2,6,-1
 860 1676 l 2,7,8
 878 1676 878 1676 881 1653 c 1,9,-1
 865 1358 l 2,10,11
 863 1338 863 1338 850 1338 c 2,12,-1
 702 1334 l 1,13,14
 677 1335 677 1335 676 1357 c 1,15,-1
 679 1463 l 1,16,17
 641 1467 641 1467 602 1467 c 128,-1,18
 563 1467 563 1467 533 1456 c 128,-1,19
 503 1445 503 1445 483 1420.5 c 0,20,21
 443 1371.5 443 1371.5 443 1276.75 c 128,-1,22
 443 1182 443 1182 445 1098 c 1,23,-1
 740 1102 l 1,24,25
 754 1101 754 1101 757.5 1095.5 c 128,-1,26
 761 1090 761 1090 762 1078 c 1,27,-1
 752 925 l 2,28,29
 750.244 905.687 750.244 905.687 730 904 c 1,30,-1
 458 911 l 1,31,-1
 458 206 l 1,32,-1
 642 210 l 2,33,34
 658 210 658 210 658 191 c 1,35,-1
 640 20 l 2,36,37
 638 8 638 8 633.5 4.5 c 128,-1,38
 629 1 629 1 616 0 c 1,39,-1
 133 6 l 2,40,41
 119 6 119 6 119 30 c 1,42,-1
 129 181 l 2,43,44
 130.727 200 130.727 200 145 200 c 2,45,-1
 245 202 l 1,46,-1
 254 909 l 1,47,-1
 78 898 l 1,48,49
 61 899 61 899 58 915 c 2,50,-1
 37 1070 l 1,51,52
 37 1092 37 1092 59 1092 c 2,53,-1
 248 1095 l 1,54,55
 239 1182 239 1182 239 1286.5 c 128,-1,56
 239 1391 239 1391 264 1452 c 128,-1,57
 289 1513 289 1513 335.5 1553.5 c 128,-1,0
 382 1594 382 1594 449 1614 c 128,-1,1
EndSplineSet
EndChar

StartChar: g
Encoding: 103 103 72
Width: 1196
Flags: HW
LayerCount: 2
Fore
SplineSet
1096 1141 m 0,0,1
 1122.6 1141 1122.6 1141 1125 1105 c 1,2,-1
 1112 948 l 2,3,4
 1110.25 927 1110.25 927 1089 927 c 1,5,-1
 909 962 l 1,6,7
 1016 848.312 1016 848.312 1016 756.156 c 128,-1,8
 1016 664 1016 664 991.5 589.5 c 128,-1,9
 967 515 967 515 912.5 464 c 0,10,11
 801.363 360 801.363 360 563 360 c 0,12,13
 469.364 360 469.364 360 393 380 c 1,14,15
 369 325.455 369 325.455 369 290.227 c 128,-1,16
 369 255 369 255 374 240 c 128,-1,17
 379 225 379 225 393.5 216 c 0,18,19
 420.889 199 420.889 199 476.444 199 c 128,-1,20
 532 199 532 199 581 201.5 c 0,21,22
 708.4 208 708.4 208 784.7 208 c 128,-1,23
 861 208 861 208 922.5 183 c 128,-1,24
 984 158 984 158 1022.5 115.5 c 0,25,26
 1096 34.3636 1096 34.3636 1096 -101 c 0,27,28
 1096 -266.295 1096 -266.295 965 -370.5 c 0,29,30
 821.057 -485 821.057 -485 561 -485 c 0,31,32
 343.833 -485 343.833 -485 243 -430 c 0,33,34
 130 -368.364 130 -368.364 130 -238.932 c 128,-1,35
 130 -109.5 130 -109.5 245 40 c 1,36,37
 165 85.4545 165 85.4545 165 185.912 c 128,-1,38
 165 286.37 165 286.37 281 426 c 1,39,40
 119 520.5 119 520.5 119 749 c 0,41,42
 119 950.431 119 950.431 251.5 1056 c 0,43,44
 370.735 1151 370.735 1151 579 1151 c 0,45,46
 687 1151 687 1151 777 1148 c 0,47,48
 987 1141 987 1141 1096 1141 c 0,0,1
801.5 677 m 0,49,50
 813 717 813 717 813 763 c 128,-1,51
 813 809 813 809 799.5 848.5 c 128,-1,52
 786 888 786 888 757.5 916.5 c 0,53,54
 698 976 698 976 585 976 c 0,55,56
 405.414 976 405.414 976 350.5 853.5 c 0,57,58
 331 810 331 810 331 747 c 0,59,60
 331 542 331 542 585 542 c 0,61,62
 762.688 542 762.688 542 801.5 677 c 0,49,50
713 10 m 1,63,-1
 439 2 l 1,64,65
 399 2 399 2 368 5 c 1,66,67
 335 -76.4 335 -76.4 335 -154.2 c 128,-1,68
 335 -232 335 -232 396 -262.5 c 128,-1,69
 457 -293 457 -293 561 -293 c 128,-1,70
 665 -293 665 -293 722 -280.5 c 128,-1,71
 779 -268 779 -268 817.5 -245.5 c 0,72,73
 896 -199.623 896 -199.623 896 -126 c 0,74,75
 896 -62.6923 896 -62.6923 870.5 -37.8462 c 0,76,77
 821.395 10 821.395 10 713 10 c 1,63,-1
EndSplineSet
EndChar

StartChar: h
Encoding: 104 104 73
Width: 1370
Flags: HW
LayerCount: 2
Fore
SplineSet
917 704 m 2,0,1
 917 926 917 926 758 926 c 0,2,3
 668.5 926 668.5 926 551 879 c 0,4,5
 516 865 516 865 487 849 c 1,6,-1
 483 190 l 1,7,-1
 604 178 l 2,8,9
 620 176.222 620 176.222 620 160 c 1,10,-1
 602 31 l 2,11,12
 598.769 9.99997 598.769 9.99997 579 10 c 2,13,-1
 157 3 l 2,14,15
 142 3 142 3 142 27 c 1,16,-1
 161 203 l 2,17,18
 163 214 163 214 167 218 c 128,-1,19
 171 222 171 222 184 222 c 1,20,-1
 260 214 l 1,21,-1
 260 1046 l 1,22,-1
 280 1413 l 1,23,-1
 137 1402 l 1,24,25
 115 1402 115 1402 115 1426 c 2,26,-1
 115 1579 l 2,27,28
 115 1597 115 1597 139 1599 c 1,29,-1
 478 1613 l 2,30,31
 499 1613 499 1613 501 1589 c 1,32,-1
 477 1035 l 1,33,34
 657.375 1152 657.375 1152 837 1152 c 0,35,36
 1080.13 1152 1080.13 1152 1122 889.5 c 0,37,38
 1135 808 1135 808 1135 650.375 c 128,-1,39
 1135 492.75 1135 492.75 1114 204 c 1,40,-1
 1234 210 l 1,41,42
 1255 208.091 1255 208.091 1255 189 c 2,43,-1
 1255 42 l 2,44,45
 1255 22 1255 22 1232 22 c 2,46,-1
 802 12 l 2,47,48
 786 12 786 12 786 36 c 1,49,-1
 808 171 l 2,50,51
 810 184 810 184 814.5 187.5 c 128,-1,52
 819 191 819 191 830 192 c 2,53,-1
 914 195 l 1,54,55
 915 255 915 255 915.5 328.5 c 2,56,-1
 916.5 473 l 2,57,58
 917 544 917 544 917 605.5 c 2,59,-1
 917 704 l 2,0,1
EndSplineSet
EndChar

StartChar: i
Encoding: 105 105 74
Width: 683
Flags: HW
LayerCount: 2
Fore
SplineSet
150 -14 m 2,0,1
 136 -14 136 -14 136 10 c 2,2,-1
 136 161 l 2,3,4
 136 180 136 180 152 180 c 2,5,-1
 272 180 l 1,6,-1
 280 879 l 1,7,-1
 118 896 l 2,8,9
 100 897.636 100 897.636 100 918 c 1,10,-1
 122 1083 l 1,11,12
 125.923 1100.65 125.923 1100.65 146 1104 c 1,13,-1
 467 1137 l 1,14,15
 478 1137 478 1137 481 1131.5 c 128,-1,16
 484 1126 484 1126 485 1114 c 2,17,-1
 498 932 l 1,18,-1
 495 180 l 1,19,-1
 609 180 l 2,20,21
 625 180 625 180 625 161 c 1,22,-1
 607 30 l 2,23,24
 605 18 605 18 600.5 14.5 c 128,-1,25
 596 11 596 11 583 10 c 2,26,-1
 150 -14 l 2,0,1
410 1342 m 128,-1,28
 378 1337 378 1337 333.5 1337 c 128,-1,29
 289 1337 289 1337 265.5 1342 c 128,-1,30
 242 1347 242 1347 228.5 1360.5 c 0,31,32
 205 1384 205 1384 205 1445 c 128,-1,33
 205 1506 205 1506 211.5 1532.5 c 128,-1,34
 218 1559 218 1559 236 1574 c 0,35,36
 267.2 1600 267.2 1600 337.6 1600 c 128,-1,37
 408 1600 408 1600 432 1596.5 c 128,-1,38
 456 1593 456 1593 470 1580.5 c 0,39,40
 494 1559.07 494 1559.07 494 1496.04 c 128,-1,41
 494 1433 494 1433 487 1405 c 128,-1,42
 480 1377 480 1377 461 1362 c 128,-1,27
 442 1347 442 1347 410 1342 c 128,-1,28
EndSplineSet
EndChar

StartChar: j
Encoding: 106 106 75
Width: 682
Flags: HW
LayerCount: 2
Fore
SplineSet
84 -241 m 0,0,1
 302 -241 302 -241 302 -75 c 0,2,3
 302 -6 302 -6 301.5 74 c 2,4,-1
 300.5 239.5 l 2,5,6
 300 325 300 325 299 413.5 c 0,7,8
 294.878 770.049 294.878 770.049 293 894 c 1,9,-1
 119 886 l 1,10,11
 102.697 887.63 102.697 887.63 101 908 c 2,12,-1
 86 1089 l 1,13,14
 87 1114 87 1114 111 1115 c 2,15,-1
 475 1137 l 1,16,17
 492.101 1135.45 492.101 1135.45 496 1114 c 1,18,-1
 489 925 l 1,19,20
 492 875 492 875 494.5 809.5 c 0,21,22
 516 260.273 516 260.273 516 86.6364 c 128,-1,23
 516 -87 516 -87 501 -176.5 c 128,-1,24
 486 -266 486 -266 442.5 -326.5 c 0,25,26
 355.141 -448 355.141 -448 114 -448 c 0,27,28
 95 -448 95 -448 91 -425 c 2,29,-1
 61 -261 l 1,30,31
 61 -241 61 -241 84 -241 c 0,0,1
504 1511 m 0,32,33
 504 1334 504 1334 392 1334 c 0,34,35
 205 1334 205 1334 205 1430 c 0,36,37
 205 1603 205 1603 317 1603 c 0,38,39
 504 1603 504 1603 504 1511 c 0,32,33
EndSplineSet
EndChar

StartChar: k
Encoding: 107 107 76
Width: 1195
Flags: HW
LayerCount: 2
Fore
SplineSet
73 161 m 1,0,1
 74.9 180 74.9 180 89 180 c 2,2,-1
 218 180 l 1,3,-1
 218 1377 l 1,4,-1
 75 1396 l 2,5,6
 64 1398 64 1398 60.5 1402 c 128,-1,7
 57 1406 57 1406 57 1418 c 2,8,-1
 53 1554 l 2,9,10
 53 1572 53 1572 77 1575 c 2,11,-1
 384 1607 l 1,12,13
 403 1607 403 1607 406 1583 c 2,14,-1
 425 1405 l 1,15,-1
 412 649 l 1,16,-1
 540 654 l 1,17,-1
 781 951 l 1,18,-1
 659 937 l 1,19,20
 643 937 643 937 643 956 c 2,21,-1
 651 1117 l 2,22,23
 652.667 1137 652.667 1137 675 1137 c 2,24,-1
 1128 1141 l 2,25,26
 1142 1141 1142 1141 1142 1117 c 1,27,-1
 1132 966 l 2,28,29
 1130.27 947 1130.27 947 1116 947 c 1,30,-1
 1015 956 l 1,31,-1
 702 583 l 1,32,-1
 990 197 l 1,33,-1
 1155 191 l 2,34,35
 1174.29 191 1174.29 191 1176 167 c 2,36,-1
 1186 30 l 2,37,38
 1186 18 1186 18 1180.5 14.5 c 128,-1,39
 1175 11 1175 11 1163 10 c 2,40,-1
 858 -2 l 2,41,42
 844.75 -2 844.75 -2 831 20 c 2,43,-1
 528 483 l 1,44,-1
 409 474 l 1,45,-1
 404 189 l 1,46,-1
 506 200 l 1,47,48
 522 200 522 200 522 181 c 1,49,-1
 514 30 l 2,50,51
 513 18 513 18 508 14.5 c 128,-1,52
 503 11 503 11 490 10 c 2,53,-1
 97 -4 l 2,54,55
 82.0833 -4 82.0833 -4 80 21 c 2,56,-1
 73 161 l 1,0,1
EndSplineSet
EndChar

StartChar: l
Encoding: 108 108 77
Width: 683
Flags: HW
LayerCount: 2
Fore
SplineSet
126 1356 m 1,0,1
 108 1356 108 1356 108 1378 c 2,2,-1
 114 1574 l 2,3,4
 114 1586 114 1586 120 1589.5 c 128,-1,5
 126 1593 126 1593 138 1595 c 1,6,-1
 463 1587 l 2,7,8
 474 1587 474 1587 477 1581.5 c 128,-1,9
 480 1576 480 1576 481 1564 c 1,10,-1
 474 1405 l 1,11,-1
 489 209 l 1,12,-1
 625 220 l 1,13,14
 639.273 220 639.273 220 641 201 c 2,15,-1
 653 20 l 1,16,17
 651 8 651 8 646.5 4.5 c 128,-1,18
 642 1 642 1 629 0 c 1,19,-1
 86 6 l 2,20,21
 72 6 72 6 72 30 c 2,22,-1
 72 201 l 2,23,24
 72 220 72 220 88 220 c 1,25,-1
 277 208 l 1,26,-1
 277 1368 l 1,27,-1
 126 1356 l 1,0,1
EndSplineSet
EndChar

StartChar: m
Encoding: 109 109 78
Width: 1875
Flags: HW
LayerCount: 2
Fore
SplineSet
1030 1000 m 1,0,1
 1195.61 1151 1195.61 1151 1356 1151 c 0,2,3
 1590.98 1151 1590.98 1151 1637 925.5 c 0,4,5
 1652 852 1652 852 1652 782.5 c 128,-1,6
 1652 713 1652 713 1650.5 644 c 128,-1,7
 1649 575 1649 575 1646 496 c 2,8,-1
 1640 337 l 2,9,10
 1637 257 1637 257 1634 192 c 1,11,-1
 1779 201 l 1,12,13
 1800 201 1800 201 1800 177 c 1,14,-1
 1780 10 l 1,15,16
 1780 -2 1780 -2 1774.5 -5.5 c 128,-1,17
 1769 -9 1769 -9 1757 -10 c 1,18,-1
 1458 -2 l 2,19,20
 1435 -2 1435 -2 1435 20 c 0,21,22
 1437.62 129.953 1437.62 129.953 1438.31 220.476 c 2,23,-1
 1439.5 378 l 2,24,25
 1440 445 1440 445 1440 504 c 2,26,-1
 1440 679 l 2,27,28
 1440 808.968 1440 808.968 1419.5 847.984 c 128,-1,29
 1399 887 1399 887 1370 901.5 c 128,-1,30
 1341 916 1341 916 1286.5 916 c 0,31,32
 1190.17 916 1190.17 916 1071 852 c 1,33,34
 1078 803 1078 803 1078 744.5 c 128,-1,35
 1078 686 1078 686 1077 616.5 c 128,-1,36
 1076 547 1076 547 1074.5 470 c 128,-1,37
 1073 393 1073 393 1071.5 316 c 128,-1,38
 1070 239 1070 239 1068 178 c 1,39,-1
 1199 181 l 2,40,41
 1220 181 1220 181 1220 157 c 1,42,-1
 1210 20 l 2,43,44
 1209 8 1209 8 1204 4.5 c 128,-1,45
 1199 1 1199 1 1187 0 c 1,46,-1
 816 8 l 2,47,48
 795 8 795 8 795 30 c 2,49,-1
 790 170 l 1,50,51
 791.75 191 791.75 191 812 191 c 1,52,-1
 874 186 l 1,53,54
 876 324 876 324 876 433.5 c 2,55,-1
 876 679 l 2,56,57
 876 807.182 876 807.182 853.5 848.091 c 128,-1,58
 831 889 831 889 801 904.5 c 128,-1,59
 771 920 771 920 722 920 c 0,60,61
 601.667 920 601.667 920 467 819 c 1,62,-1
 467 197 l 1,63,-1
 572 202 l 2,64,65
 589 202 589 202 589 185 c 1,66,-1
 600 30 l 1,67,68
 596.333 7.99988 596.333 7.99988 578 8 c 2,69,-1
 168 18 l 2,70,71
 145 18 145 18 145 42 c 1,72,-1
 135 195 l 1,73,74
 138.818 216 138.818 216 157 216 c 2,75,-1
 254 216 l 1,76,-1
 254 874 l 1,77,-1
 101 874 l 2,78,79
 81 874 81 874 81 898 c 2,80,-1
 79 1089 l 1,81,82
 82.5172 1106.59 82.5172 1106.59 103 1110 c 1,83,-1
 355 1101 l 2,84,85
 373.071 1099.36 373.071 1099.36 378 1078 c 2,86,-1
 407 945 l 1,87,88
 597.974 1141 597.974 1141 780.27 1141 c 128,-1,89
 962.565 1141 962.565 1141 1030 1000 c 1,0,1
EndSplineSet
EndChar

StartChar: n
Encoding: 110 110 79
Width: 1370
Flags: HW
LayerCount: 2
Fore
SplineSet
792 903 m 0,0,1
 664.783 903 664.783 903 502 799 c 1,2,-1
 514 200 l 1,3,-1
 623 212 l 1,4,5
 640 212 640 212 640 195 c 1,6,-1
 621 40 l 2,7,8
 617.333 17.9999 617.333 17.9999 599 18 c 2,9,-1
 182 18 l 2,10,11
 166 18 166 18 166 42 c 1,12,-1
 186 195 l 1,13,14
 189.818 216 189.818 216 208 216 c 2,15,-1
 293 216 l 1,16,-1
 293 877 l 1,17,-1
 140 881 l 2,18,19
 120 881 120 881 120 905 c 1,20,-1
 138 1078 l 2,21,22
 140.488 1095.41 140.488 1095.41 162 1099 c 2,23,-1
 439 1140 l 1,24,25
 457 1140 457 1140 457 1117 c 2,26,-1
 457 944 l 1,27,28
 663 1150 663 1150 862 1150 c 0,29,30
 1089.8 1150 1089.8 1150 1133.5 933 c 0,31,32
 1148 861 1148 861 1148 798.5 c 128,-1,33
 1148 736 1148 736 1147 693.5 c 128,-1,34
 1146 651 1146 651 1144.5 600.5 c 2,35,-1
 1141.5 495.5 l 2,36,37
 1140 441 1140 441 1138 386.5 c 2,38,-1
 1134 280.5 l 2,39,40
 1132 229 1132 229 1130 186 c 1,41,-1
 1245 191 l 2,42,43
 1266 191 1266 191 1266 167 c 2,44,-1
 1266 20 l 2,45,46
 1266 8 1266 8 1260.5 4.5 c 128,-1,47
 1255 1 1255 1 1243 0 c 2,48,-1
 953 -22 l 1,49,50
 931 -22 931 -22 931 0 c 0,51,52
 933.6 109.199 933.6 109.199 934.3 205.099 c 2,53,-1
 935.5 372 l 2,54,55
 936 443 936 443 936 505 c 2,56,-1
 936 688 l 2,57,58
 936 811.903 936 811.903 915 846.452 c 128,-1,59
 894 881 894 881 866 892 c 128,-1,60
 838 903 838 903 792 903 c 0,0,1
EndSplineSet
EndChar

StartChar: o
Encoding: 111 111 80
Width: 1194
Flags: HW
LayerCount: 2
Fore
SplineSet
123 561.5 m 0,0,1
 123 733 123 733 151.5 846.5 c 128,-1,2
 180 960 180 960 236.5 1027.5 c 0,3,4
 339.874 1151 339.874 1151 575 1151 c 0,5,6
 738.75 1151 738.75 1151 814.375 1118 c 128,-1,7
 890 1085 890 1085 933.5 1043 c 128,-1,8
 977 1001 977 1001 1007.5 935 c 0,9,10
 1070 799.754 1070 799.754 1070 595.377 c 128,-1,11
 1070 391 1070 391 1041.5 280 c 128,-1,12
 1013 169 1013 169 955.5 102.5 c 0,13,14
 849.579 -20 849.579 -20 613 -20 c 0,15,16
 365.211 -20 365.211 -20 252 99.5 c 0,17,18
 123 235.667 123 235.667 123 561.5 c 0,0,1
849 363 m 128,-1,20
 864 435 864 435 864 539 c 128,-1,21
 864 643 864 643 853 707 c 128,-1,22
 842 771 842 771 822.5 813.5 c 128,-1,23
 803 856 803 856 776 880.5 c 128,-1,24
 749 905 749 905 717 917 c 0,25,26
 669 935 669 935 590 935 c 128,-1,27
 511 935 511 935 464 923 c 128,-1,28
 417 911 417 911 386.5 872 c 0,29,30
 327 795.918 327 795.918 327 566 c 0,31,32
 327 239.37 327 239.37 503 197 c 0,33,34
 557 184 557 184 620 184 c 128,-1,35
 683 184 683 184 728.5 197.5 c 128,-1,36
 774 211 774 211 804 251 c 128,-1,19
 834 291 834 291 849 363 c 128,-1,20
EndSplineSet
EndChar

StartChar: p
Encoding: 112 112 81
Width: 1194
Flags: HW
LayerCount: 2
Fore
SplineSet
120 -458 m 2,0,1
 98 -458 98 -458 98 -434 c 1,2,-1
 110 -269 l 2,3,4
 111 -256 111 -256 116 -252.5 c 128,-1,5
 121 -249 121 -249 132 -248 c 1,6,-1
 201 -257 l 1,7,-1
 201 921 l 1,8,-1
 37 907 l 1,9,10
 17 907 17 907 17 926 c 2,11,-1
 15 1131 l 1,12,13
 18.3448 1147.72 18.3448 1147.72 38 1151 c 1,14,-1
 316 1141 l 2,15,16
 334 1141 334 1141 335 1119 c 1,17,-1
 341 1054 l 1,18,19
 518.231 1150 518.231 1150 653.615 1150 c 128,-1,20
 789 1150 789 1150 870.5 1114 c 128,-1,21
 952 1078 952 1078 1001.5 1005 c 0,22,23
 1092 871.535 1092 871.535 1092 565 c 0,24,25
 1092 132.143 1092 132.143 863 34 c 0,26,27
 786 1 786 1 658.269 1 c 128,-1,28
 530.538 1 530.538 1 394 51 c 1,29,-1
 408 -267 l 1,30,-1
 596 -260 l 1,31,32
 617 -261.909 617 -261.909 617 -281 c 1,33,-1
 607 -428 l 2,34,35
 605.333 -448 605.333 -448 584 -448 c 2,36,-1
 120 -458 l 2,0,1
387 242 m 1,37,38
 511.615 212 511.615 212 602.308 212 c 128,-1,39
 693 212 693 212 740.5 226 c 128,-1,40
 788 240 788 240 818 279 c 0,41,42
 876 354.4 876 354.4 876 566 c 0,43,44
 876 776.17 876 776.17 829.5 852.5 c 0,45,46
 779.851 934 779.851 934 639 934 c 0,47,48
 542.526 934 542.526 934 409 891 c 1,49,-1
 387 242 l 1,37,38
EndSplineSet
EndChar

StartChar: q
Encoding: 113 113 82
Width: 1194
Flags: HW
LayerCount: 2
Fore
SplineSet
641 -451 m 2,0,1
 622.667 -451 622.667 -451 619 -429 c 1,2,-1
 630 -274 l 2,3,4
 631.719 -258.528 631.719 -258.528 647 -257 c 1,5,-1
 805 -263 l 1,6,-1
 808 59 l 1,7,8
 670 2 670 2 553 2 c 128,-1,9
 436 2 436 2 355 33 c 128,-1,10
 274 64 274 64 222.5 127 c 0,11,12
 123 248.718 123 248.718 123 509 c 0,13,14
 123 834.673 123 834.673 219.5 988.5 c 0,15,16
 320.814 1150 320.814 1150 545 1150 c 0,17,18
 654.926 1150 654.926 1150 795 1088 c 1,19,-1
 996 1130 l 1,20,21
 1016 1130 1016 1130 1016 1106 c 2,22,-1
 1025 -277 l 1,23,-1
 1112 -273 l 1,24,25
 1134 -274.833 1134 -274.833 1134 -294 c 1,26,-1
 1124 -427 l 2,27,28
 1121.82 -450.999 1121.82 -450.999 1108 -451 c 2,29,-1
 641 -451 l 2,0,1
465.5 220 m 128,-1,31
 511 203 511 203 600 203 c 128,-1,32
 689 203 689 203 809 237 c 1,33,-1
 805 900 l 1,34,35
 702.385 929 702.385 929 614.192 929 c 128,-1,36
 526 929 526 929 476 908 c 128,-1,37
 426 887 426 887 396 839 c 0,38,39
 340 749.4 340 749.4 340 522 c 0,40,41
 340 347 340 347 392 275.5 c 0,42,30
 420 237 420 237 465.5 220 c 128,-1,31
EndSplineSet
EndChar

StartChar: r
Encoding: 114 114 83
Width: 1024
Flags: HW
LayerCount: 2
Fore
SplineSet
136 -12 m 2,0,1
 120 -12 120 -12 120 12 c 2,2,-1
 120 185 l 2,3,4
 120 206 120 206 142 206 c 2,5,-1
 259 206 l 1,6,-1
 259 883 l 1,7,-1
 116 871 l 1,8,9
 99.7538 872.477 99.7538 872.477 96 895 c 1,10,-1
 74 1108 l 1,11,12
 76.747 1127.23 76.747 1127.23 98 1129 c 2,13,-1
 405 1150 l 1,14,15
 423 1150 423 1150 423 1127 c 1,16,-1
 408 962 l 1,17,18
 520.689 1086.55 520.689 1086.55 740.5 1128.5 c 0,19,20
 806 1141 806 1141 867 1141 c 128,-1,21
 928 1141 928 1141 930 1109 c 2,22,-1
 942 743 l 2,23,24
 942 724.667 942 724.667 927 723 c 2,25,-1
 739 709 l 2,26,27
 727 709 727 709 720 713 c 128,-1,28
 713 717 713 717 713 734 c 2,29,-1
 713 911 l 1,30,31
 583.284 899.881 583.284 899.881 484 859 c 1,32,-1
 473 199 l 1,33,-1
 647 212 l 1,34,35
 663 212 663 212 664 195 c 2,36,-1
 675 30 l 1,37,38
 671.615 9.69214 671.615 9.69214 653 8 c 2,39,-1
 136 -12 l 2,0,1
EndSplineSet
EndChar

StartChar: s
Encoding: 115 115 84
Width: 1024
Flags: HW
LayerCount: 2
Fore
SplineSet
873 853 m 1,0,1
 602.52 945 602.52 945 492 945 c 0,2,3
 371.826 945 371.826 945 329.5 886 c 0,4,5
 313 863 313 863 313 829 c 128,-1,6
 313 795 313 795 321 770 c 128,-1,7
 329 745 329 745 350 725.5 c 0,8,9
 392.376 686.151 392.376 686.151 512.188 667.076 c 128,-1,10
 632 648 632 648 721.5 625.5 c 128,-1,11
 811 603 811 603 865.5 567.5 c 128,-1,12
 920 532 920 532 943.5 478 c 128,-1,13
 967 424 967 424 967 339.5 c 128,-1,14
 967 255 967 255 942 190 c 128,-1,15
 917 125 917 125 871 80.5 c 0,16,17
 778.483 -8.99999 778.483 -8.99999 613 -9 c 0,18,19
 500 -9 500 -9 353 19 c 1,20,-1
 370 -64 l 1,21,22
 370 -80 370 -80 347 -82 c 2,23,-1
 175 -97 l 1,24,25
 137.333 -97 137.333 -97 133 -58 c 2,26,-1
 105 239 l 1,27,28
 105 257 105 257 129 261 c 2,29,-1
 285 289 l 1,30,31
 302 289 302 289 306 266 c 2,32,-1
 318 200 l 1,33,34
 462.9 177 462.9 177 556.95 177 c 128,-1,35
 651 177 651 177 697 216.5 c 128,-1,36
 743 256 743 256 743 321 c 0,37,38
 743 381.962 743 381.962 694.5 408.5 c 0,39,40
 651.181 432.203 651.181 432.203 525.59 451.602 c 128,-1,41
 400 471 400 471 319 494.5 c 128,-1,42
 238 518 238 518 186 557 c 0,43,44
 87 631.25 87 631.25 87 808 c 0,45,46
 87 961.505 87 961.505 180.5 1054 c 0,47,48
 278.554 1151 278.554 1151 457 1151 c 0,49,50
 561.692 1151 561.692 1151 699 1081 c 1,51,-1
 680 1160 l 1,52,53
 680 1184.25 680 1184.25 701 1186 c 2,54,-1
 899 1202 l 1,55,56
 915 1202 915 1202 915 1179 c 1,57,-1
 893 874 l 2,58,59
 892 853 892 853 873 853 c 1,0,1
EndSplineSet
EndChar

StartChar: t
Encoding: 116 116 85
Width: 851
Flags: HW
LayerCount: 2
Fore
SplineSet
608 6 m 1,0,1
 560 3 560 3 466.5 3 c 128,-1,2
 373 3 373 3 314.5 22 c 128,-1,3
 256 41 256 41 218 83 c 0,4,5
 143 165.895 143 165.895 143 350 c 0,6,7
 143 469 143 469 146.5 577.5 c 128,-1,8
 150 686 150 686 152.5 770.5 c 128,-1,9
 155 855 155 855 158 938 c 1,10,-1
 25 948 l 2,11,12
 5 949 5 949 5 975 c 2,13,-1
 4 1090 l 2,14,15
 4 1112 4 1112 26 1112 c 2,16,-1
 166 1115 l 1,17,18
 168 1167 168 1167 170.5 1214 c 2,19,-1
 178.5 1365 l 2,20,21
 181.329 1417.8 181.329 1417.8 186.164 1425.4 c 128,-1,22
 191 1433 191 1433 204 1435 c 2,23,-1
 390 1457 l 1,24,25
 411 1457 411 1457 411 1435 c 0,26,27
 411 1402.7 411 1402.7 400.5 1290.35 c 2,28,-1
 385 1121 l 1,29,-1
 777 1132 l 2,30,31
 799 1132 799 1132 799 1108 c 2,32,-1
 799 945 l 2,33,34
 799 925 799 925 777 924 c 1,35,-1
 372 941 l 1,36,37
 355 707.25 355 707.25 355 533.125 c 128,-1,38
 355 359 355 359 362.5 308 c 128,-1,39
 370 257 370 257 390 229 c 0,40,41
 424.286 181 424.286 181 535 181 c 0,42,43
 567 181 567 181 593 183 c 1,44,45
 590 217.5 590 217.5 590 235.25 c 128,-1,46
 590 253 590 253 609 256 c 2,47,-1
 776 276 l 1,48,49
 797 276 797 276 797 253 c 2,50,-1
 801 -1 l 2,51,52
 801 -18 801 -18 786 -21 c 2,53,-1
 638 -45 l 1,54,55
 614.815 -42.8923 614.815 -42.8923 612 -26 c 2,56,-1
 608 6 l 1,0,1
EndSplineSet
EndChar

StartChar: u
Encoding: 117 117 86
Width: 1195
Flags: HW
LayerCount: 2
Fore
SplineSet
996 1100 m 2,0,1
 1012 1100 1012 1100 1012 1076 c 2,2,-1
 1022 232 l 1,3,-1
 1156 237 l 1,4,5
 1176 236 1176 236 1176 213 c 1,6,-1
 1158 30 l 1,7,8
 1157 9 1157 9 1134 9 c 2,9,-1
 887 9 l 2,10,11
 855.5 9 855.5 9 846 47 c 2,12,-1
 822 148 l 1,13,14
 656.687 6.00002 656.687 6.00002 446 6 c 0,15,16
 151 6 151 6 151 383 c 0,17,18
 151 513.538 151 513.538 165.5 675.269 c 2,19,-1
 186 901 l 1,20,-1
 58 897 l 2,21,22
 37 897 37 897 37 921 c 1,23,-1
 57 1098 l 2,24,25
 59 1110 59 1110 63.5 1113.5 c 128,-1,26
 68 1117 68 1117 80 1118 c 1,27,-1
 398 1110 l 2,28,29
 412 1110 412 1110 412 1088 c 1,30,31
 407 1040 407 1040 401.5 980 c 0,32,33
 360 528.913 360 528.913 360 422.957 c 128,-1,34
 360 317 360 317 400 269.5 c 128,-1,35
 440 222 440 222 544.033 222 c 128,-1,36
 648.067 222 648.067 222 809 324 c 1,37,-1
 809 899 l 1,38,-1
 684 906 l 2,39,40
 670.443 907.506 670.443 907.506 667 923 c 1,41,-1
 686 1088 l 1,42,43
 689.667 1110 689.667 1110 708 1110 c 2,44,-1
 996 1100 l 2,0,1
EndSplineSet
EndChar

StartChar: v
Encoding: 118 118 87
Width: 1195
Flags: HW
LayerCount: 2
Fore
SplineSet
25 1100 m 2,0,1
 25 1120 25 1120 48 1120 c 2,2,-1
 502 1120 l 2,3,4
 516 1120 516 1120 518 1114.5 c 128,-1,5
 520 1109 520 1109 520 1098 c 1,6,-1
 505 938 l 2,7,8
 503 925 503 925 499 921 c 128,-1,9
 495 917 495 917 483 917 c 2,10,-1
 378 914 l 1,11,-1
 633 198 l 1,12,-1
 855 929 l 1,13,-1
 733 916 l 1,14,15
 717 916 717 916 716 933 c 2,16,-1
 705 1098 l 1,17,18
 708.385 1118.31 708.385 1118.31 727 1120 c 2,19,-1
 1154 1140 l 1,20,21
 1170 1139 1170 1139 1170 1116 c 2,22,-1
 1170 933 l 1,23,24
 1166.18 912 1166.18 912 1148 912 c 2,25,-1
 1049 912 l 1,26,-1
 739 17 l 2,27,28
 732.571 -2.28577 732.571 -2.28577 712 -4 c 2,29,-1
 533 -12 l 1,30,31
 513.551 -10.2319 513.551 -10.2319 505 12 c 2,32,-1
 138 909 l 1,33,-1
 46 907 l 2,34,35
 25 907 25 907 25 931 c 2,36,-1
 25 1100 l 2,0,1
EndSplineSet
EndChar

StartChar: w
Encoding: 119 119 88
Width: 1702
Flags: HW
LayerCount: 2
Fore
SplineSet
17 1108 m 1,0,1
 17 1128 17 1128 40 1128 c 2,2,-1
 484 1118 l 2,3,4
 498 1118 498 1118 500 1112.5 c 128,-1,5
 502 1107 502 1107 502 1096 c 2,6,-1
 497 926 l 2,7,8
 496 913 496 913 491.5 909 c 128,-1,9
 487 905 487 905 475 905 c 2,10,-1
 365 914 l 1,11,-1
 556 213 l 1,12,-1
 746 1108 l 2,13,14
 749.169 1127.01 749.169 1127.01 773 1129 c 2,15,-1
 963 1138 l 1,16,17
 987.241 1135.8 987.241 1135.8 991 1117 c 2,18,-1
 1211 213 l 1,19,-1
 1369 927 l 1,20,-1
 1245 914 l 1,21,22
 1229 914 1229 914 1228 931 c 2,23,-1
 1217 1096 l 1,24,25
 1220.38 1116.31 1220.38 1116.31 1239 1118 c 2,26,-1
 1656 1138 l 1,27,28
 1672 1137 1672 1137 1672 1114 c 2,29,-1
 1672 931 l 2,30,31
 1672 910 1672 910 1650 910 c 2,32,-1
 1551 910 l 1,33,-1
 1317 15 l 2,34,35
 1311.75 -6 1311.75 -6 1290 -6 c 2,36,-1
 1101 -9 l 2,37,38
 1078 -9 1078 -9 1073 12 c 2,39,-1
 862 856 l 1,40,-1
 667 23 l 2,41,42
 662.213 3.85107 662.213 3.85107 640 2 c 2,43,-1
 461 -6 l 1,44,45
 439 -4 439 -4 433 15 c 2,46,-1
 142 914 l 1,47,-1
 48 905 l 1,48,49
 27 905 27 905 27 929 c 1,50,-1
 17 1108 l 1,0,1
EndSplineSet
EndChar

StartChar: x
Encoding: 120 120 89
Width: 1196
Flags: HW
LayerCount: 2
Fore
SplineSet
96 15 m 2,0,1
 75 15 75 15 75 36 c 2,2,-1
 75 183 l 2,3,4
 75 203 75 203 98 203 c 2,5,-1
 196 204 l 1,6,-1
 513 551 l 1,7,-1
 185 935 l 1,8,-1
 81 933 l 2,9,10
 60 933 60 933 60 957 c 1,11,-1
 70 1116 l 1,12,13
 70 1136 70 1136 93 1136 c 2,14,-1
 554 1127 l 2,15,16
 568 1127 568 1127 570 1121.5 c 128,-1,17
 572 1116 572 1116 572 1105 c 2,18,-1
 577 965 l 1,19,20
 575 952 575 952 571 948 c 128,-1,21
 567 944 567 944 555 944 c 2,22,-1
 433 941 l 1,23,-1
 614 673 l 1,24,-1
 806 925 l 1,25,-1
 728 922 l 2,26,27
 712 922 712 922 711 939 c 1,28,-1
 720 1114 l 2,29,30
 721.679 1134.15 721.679 1134.15 742 1136 c 1,31,-1
 1139 1126 l 2,32,33
 1155 1126 1155 1126 1155 1102 c 1,34,-1
 1145 959 l 2,35,36
 1143.24 939.687 1143.24 939.687 1123 938 c 2,37,-1
 1012 933 l 1,38,-1
 707 579 l 1,39,-1
 1034 211 l 1,40,-1
 1163 222 l 1,41,42
 1178 222 1178 222 1178 198 c 1,43,-1
 1159 22 l 2,44,45
 1157 11 1157 11 1153 7.5 c 128,-1,46
 1149 4 1149 4 1136 3 c 1,47,-1
 706 17 l 2,48,49
 690 17 690 17 690 38 c 1,50,-1
 708 164 l 2,51,52
 710 177 710 177 715 180.5 c 128,-1,53
 720 184 720 184 731 185 c 2,54,-1
 798 191 l 1,55,-1
 604 453 l 1,56,-1
 411 207 l 1,57,-1
 482 208 l 2,58,59
 498 208 498 208 498 184 c 2,60,-1
 502 24 l 1,61,62
 500 11 500 11 495.5 7.5 c 128,-1,63
 491 4 491 4 480 3 c 1,64,-1
 96 15 l 2,0,1
EndSplineSet
EndChar

StartChar: y
Encoding: 121 121 90
Width: 1197
Flags: HW
LayerCount: 2
Fore
SplineSet
16 1100 m 1,0,1
 16 1120 16 1120 39 1120 c 2,2,-1
 493 1130 l 2,3,4
 511 1130 511 1130 511 1108 c 2,5,-1
 516 938 l 1,6,7
 514 925 514 925 510 921 c 128,-1,8
 506 917 506 917 494 917 c 2,9,-1
 363 914 l 1,10,-1
 623 179 l 1,11,-1
 859 919 l 1,12,-1
 722 906 l 1,13,14
 706 906 706 906 705 923 c 1,15,-1
 714 1108 l 2,16,17
 715 1130 715 1130 736 1130 c 2,18,-1
 1173 1140 l 1,19,20
 1189 1139 1189 1139 1189 1116 c 1,21,-1
 1179 943 l 2,22,23
 1177.09 922 1177.09 922 1157 922 c 1,24,-1
 1069 930 l 1,25,-1
 587 -430 l 2,26,27
 579 -454 579 -454 563 -454 c 1,28,-1
 365 -400 l 1,29,30
 343 -397 343 -397 343 -380 c 0,31,32
 343 -373 343 -373 347 -366 c 2,33,-1
 566 53 l 1,34,-1
 480 50 l 2,35,36
 467 50 467 50 458 68 c 1,37,-1
 122 909 l 1,38,-1
 27 907 l 2,39,40
 6 907 6 907 6 931 c 1,41,-1
 16 1100 l 1,0,1
EndSplineSet
EndChar

StartChar: z
Encoding: 122 122 91
Width: 1196
Flags: HW
LayerCount: 2
Fore
SplineSet
872 306 m 1,0,1
 874.221 330.435 874.221 330.435 893 332 c 1,2,-1
 1071 318 l 2,3,4
 1087 317 1087 317 1087 295 c 2,5,-1
 1075 -40 l 2,6,7
 1074 -61 1074 -61 1055 -61 c 1,8,-1
 911 -53 l 2,9,10
 889.024 -51.3095 889.024 -51.3095 887 -25 c 2,11,-1
 885 16 l 1,12,-1
 224 3 l 1,13,14
 196 5 196 5 181.5 16.5 c 128,-1,15
 167 28 167 28 164 56 c 2,16,-1
 148 201 l 1,17,-1
 810 950 l 1,18,-1
 352 952 l 1,19,-1
 331 780 l 2,20,21
 328 758 328 758 307 758 c 1,22,-1
 160 775 l 1,23,24
 141.697 778.328 141.697 778.328 140 797 c 1,25,-1
 153 1136 l 2,26,27
 154 1150 154 1150 158 1155.5 c 128,-1,28
 162 1161 162 1161 175 1163 c 1,29,-1
 352 1140 l 1,30,-1
 372 1114 l 1,31,-1
 977 1142 l 2,32,33
 999 1143 999 1143 1005.5 1129 c 128,-1,34
 1012 1115 1012 1115 1015 1095 c 2,35,-1
 1041 917 l 1,36,-1
 405 189 l 1,37,-1
 876 213 l 1,38,-1
 872 306 l 1,0,1
EndSplineSet
EndChar

StartChar: braceleft
Encoding: 123 123 92
Width: 683
Flags: HW
LayerCount: 2
Fore
SplineSet
71 850 m 0,0,1
 233 850 233 850 233 953 c 0,2,3
 233 1001 233 1001 231 1039 c 128,-1,4
 229 1077 229 1077 227 1115 c 256,5,6
 221 1229 221 1229 221 1299.5 c 128,-1,7
 221 1370 221 1370 228.5 1435.5 c 128,-1,8
 236 1501 236 1501 267.5 1546.5 c 0,9,10
 331.538 1639 331.538 1639 539 1639 c 0,11,12
 619.571 1639 619.571 1639 624.286 1633.5 c 128,-1,13
 629 1628 629 1628 630 1617 c 1,14,-1
 620 1456 l 2,15,16
 618 1432 618 1432 606 1432 c 0,17,18
 486.741 1432 486.741 1432 458.87 1414.5 c 128,-1,19
 431 1397 431 1397 423 1369.5 c 128,-1,20
 415 1342 415 1342 415 1296 c 2,21,-1
 422 958 l 1,22,23
 422 869 422 869 365 795.5 c 0,24,25
 346 771 346 771 320 755 c 1,26,27
 413 708.5 413 708.5 413 556 c 0,28,29
 413 478 413 478 406.5 410.5 c 0,30,31
 393 270.308 393 270.308 393 183.654 c 128,-1,32
 393 97 393 97 399.5 74 c 128,-1,33
 406 51 406 51 421 37 c 0,34,35
 462.15 -1.40709 462.15 -1.40709 584 16 c 1,36,37
 593 16 593 16 595 10.5 c 128,-1,38
 597 5 597 5 598 -8 c 1,39,-1
 588 -169 l 2,40,41
 586.418 -186.398 586.418 -186.398 567.709 -188.199 c 0,42,43
 517.838 -193 517.838 -193 456.419 -193 c 128,-1,44
 395 -193 395 -193 338 -168.5 c 128,-1,45
 281 -144 281 -144 249.5 -104 c 0,46,47
 197 -37.3333 197 -37.3333 197 96 c 0,48,49
 197 195.5 197 195.5 210 317.25 c 0,50,51
 231 513.923 231 513.923 231 556.962 c 128,-1,52
 231 600 231 600 219.5 619 c 128,-1,53
 208 638 208 638 187.5 648.5 c 0,54,55
 153.333 666 153.333 666 80 666 c 0,56,57
 62 666 62 666 61 690 c 2,58,-1
 51 831 l 1,59,60
 51 850 51 850 71 850 c 0,0,1
EndSplineSet
EndChar

StartChar: bar
Encoding: 124 124 93
Width: 851
Flags: HW
LayerCount: 2
Fore
SplineSet
498 1636 m 1,0,1
 518 1634.33 518 1634.33 518 1612 c 2,2,-1
 522 -506 l 2,3,4
 522 -523.455 522 -523.455 505 -525 c 2,5,-1
 357 -535 l 1,6,7
 338 -535 338 -535 338 -517 c 2,8,-1
 328 1614 l 2,9,10
 328 1634 328 1634 347 1634 c 2,11,-1
 498 1636 l 1,0,1
EndSplineSet
EndChar

StartChar: braceright
Encoding: 125 125 94
Width: 683
Flags: HW
LayerCount: 2
Fore
SplineSet
612 596 m 0,0,1
 450 596 450 596 450 493 c 0,2,3
 450 445 450 445 452 407 c 128,-1,4
 454 369 454 369 456 331 c 256,5,6
 462 217 462 217 462 146.5 c 128,-1,7
 462 76 462 76 454.5 10.5 c 128,-1,8
 447 -55 447 -55 415.5 -100.5 c 0,9,10
 351.462 -193 351.462 -193 144 -193 c 0,11,12
 63.4286 -193 63.4286 -193 58.7143 -187.5 c 128,-1,13
 54 -182 54 -182 53 -171 c 1,14,-1
 63 -10 l 2,15,16
 65 14 65 14 77 14 c 0,17,18
 196.259 14 196.259 14 224.13 31.5 c 128,-1,19
 252 49 252 49 260 76 c 128,-1,20
 268 103 268 103 268 150 c 2,21,-1
 261 488 l 1,22,23
 261 578 261 578 318 650 c 0,24,25
 337 674 337 674 363 691 c 1,26,27
 270 737.5 270 737.5 270 890 c 0,28,29
 270 968 270 968 276.5 1035.5 c 0,30,31
 290 1175.69 290 1175.69 290 1262.35 c 128,-1,32
 290 1349 290 1349 283.5 1372 c 128,-1,33
 277 1395 277 1395 262 1409 c 0,34,35
 235.214 1434 235.214 1434 181.107 1434 c 128,-1,36
 127 1434 127 1434 108.5 1432 c 128,-1,37
 90 1430 90 1430 88 1435.5 c 128,-1,38
 86 1441 86 1441 85 1454 c 1,39,-1
 95 1615 l 2,40,41
 96.5816 1632.4 96.5816 1632.4 115.291 1634.2 c 0,42,43
 165.164 1639 165.164 1639 226.582 1639 c 128,-1,44
 288 1639 288 1639 345 1614.5 c 128,-1,45
 402 1590 402 1590 433.5 1550 c 0,46,47
 486 1483.33 486 1483.33 486 1350 c 0,48,49
 486 1250.5 486 1250.5 473 1128.75 c 0,50,51
 452 932.077 452 932.077 452 889.038 c 128,-1,52
 452 846 452 846 463.5 827 c 128,-1,53
 475 808 475 808 495 797.5 c 0,54,55
 528.333 780 528.333 780 603 780 c 0,56,57
 620 780 620 780 622 756 c 2,58,-1
 632 615 l 1,59,60
 632 596 632 596 612 596 c 0,0,1
EndSplineSet
EndChar

StartChar: asciitilde
Encoding: 126 126 95
Width: 1194
Flags: HW
LayerCount: 2
Fore
SplineSet
105 852 m 1,0,1
 105 867.083 105 867.083 152.5 909.042 c 128,-1,2
 200 951 200 951 237 973.5 c 0,3,4
 321.689 1025 321.689 1025 391.344 1025 c 128,-1,5
 461 1025 461 1025 503.5 1006.5 c 128,-1,6
 546 988 546 988 588.5 965 c 0,7,8
 697.522 906 697.522 906 769 906 c 0,9,10
 848.545 906 848.545 906 938 947 c 1,11,-1
 982 968 l 1,12,13
 1023.82 991 1023.82 991 1032.91 991 c 0,14,15
 1044.5 991 1044.5 991 1054 972 c 2,16,-1
 1087 904 l 2,17,18
 1089 899 1089 899 1089 892.5 c 0,19,20
 1089 883 1089 883 1073 865.5 c 128,-1,21
 1057 848 1057 848 1024 820 c 128,-1,22
 991 792 991 792 949.5 766.5 c 0,23,24
 852.667 707 852.667 707 780.833 707 c 128,-1,25
 709 707 709 707 660.5 729 c 2,26,-1
 563 775 l 1,27,28
 465 824 465 824 397 824 c 0,29,30
 329.4 824 329.4 824 274.2 800 c 128,-1,31
 219 776 219 776 202.5 768 c 0,32,33
 167.438 751 167.438 751 158.719 751 c 0,34,35
 145.333 751 145.333 751 137 771 c 2,36,-1
 105 852 l 1,0,1
EndSplineSet
EndChar

StartChar: exclamdown
Encoding: 161 161 96
Width: 512
Flags: HW
LayerCount: 2
Fore
SplineSet
395 -409 m 1,0,1
 393.31 -429.282 393.31 -429.282 371 -433 c 1,2,-1
 153 -425 l 2,3,4
 132 -423.25 132 -423.25 132 -399 c 2,5,-1
 175 680 l 2,6,7
 176 700 176 700 193 700 c 0,8,9
 207.667 700 207.667 700 226.333 698 c 2,10,-1
 329 687 l 1,11,12
 353.442 682.926 353.442 682.926 355 658 c 2,13,-1
 395 -409 l 1,0,1
103.5 995 m 128,-1,15
 98 1025 98 1025 98 1051 c 128,-1,16
 98 1077 98 1077 115.5 1098.5 c 128,-1,17
 133 1120 133 1120 162 1134 c 0,18,19
 222.071 1163 222.071 1163 278.036 1163 c 128,-1,20
 334 1163 334 1163 355 1145.5 c 128,-1,21
 376 1128 376 1128 389 1102 c 0,22,23
 414 1052 414 1052 414 1003.5 c 128,-1,24
 414 955 414 955 392 933 c 128,-1,25
 370 911 370 911 338 898.5 c 0,26,27
 282.96 877 282.96 877 228.48 877 c 128,-1,28
 174 877 174 877 153.5 894.5 c 128,-1,29
 133 912 133 912 121 938.5 c 128,-1,14
 109 965 109 965 103.5 995 c 128,-1,15
EndSplineSet
EndChar

StartChar: cent
Encoding: 162 162 97
Width: 1194
Flags: HW
LayerCount: 2
Fore
SplineSet
854 1183 m 0,0,1
 854 1206 854 1206 879 1206 c 2,2,-1
 1025 1209 l 1,3,4
 1043.3 1205.67 1043.3 1205.67 1045 1187 c 2,5,-1
 1062 831 l 1,6,7
 1060.31 807.385 1060.31 807.385 1040 804 c 2,8,-1
 893 782 l 1,9,10
 872 782 872 782 872 804 c 2,11,-1
 872 913 l 1,12,13
 788.714 928.143 788.714 928.143 695 935 c 1,14,-1
 688 565 l 1,15,-1
 695 194 l 1,16,17
 800.923 205.769 800.923 205.769 877 219 c 1,18,-1
 880 276 l 2,19,20
 882.221 300.435 882.221 300.435 901 302 c 1,21,-1
 1039 296 l 2,22,23
 1053.05 294.439 1053.05 294.439 1055 273 c 2,24,-1
 1073 -40 l 1,25,26
 1073 -61 1073 -61 1053 -61 c 2,27,-1
 881 -61 l 2,28,29
 866.111 -61 866.111 -61 864 -42 c 1,30,-1
 867 28 l 1,31,32
 791.91 15.1798 791.91 15.1798 698 4 c 1,33,-1
 703 -221 l 2,34,35
 703 -235.273 703 -235.273 684 -237 c 2,36,-1
 561 -247 l 1,37,38
 539 -247 539 -247 539 -226 c 2,39,-1
 539 -7 l 1,40,41
 229.512 -3.99526 229.512 -3.99526 158.5 281.5 c 0,42,43
 134 380 134 380 134 485.5 c 128,-1,44
 134 591 134 591 140.5 663.5 c 128,-1,45
 147 736 147 736 163.5 801.5 c 128,-1,46
 180 867 180 867 208.5 923.5 c 128,-1,47
 237 980 237 980 281.5 1023.5 c 0,48,49
 376.101 1115.98 376.101 1115.98 535 1133 c 1,50,-1
 533 1340 l 2,51,52
 533 1362.33 533 1362.33 553 1364 c 2,53,-1
 684 1372 l 1,54,55
 701.222 1372 701.222 1372 703 1356 c 1,56,-1
 699 1133 l 1,57,58
 792.699 1125.6 792.699 1125.6 859 1114 c 1,59,-1
 855.5 1156.5 l 2,60,61
 854 1175 854 1175 854 1183 c 0,0,1
354.5 688 m 0,62,63
 346 626 346 626 346 537 c 128,-1,64
 346 448 346 448 359.5 379.5 c 128,-1,65
 373 311 373 311 398.5 270 c 0,66,67
 443.417 197.78 443.417 197.78 540 189 c 1,68,-1
 541 588 l 1,69,-1
 537 926 l 1,70,71
 381.416 884.326 381.416 884.326 354.5 688 c 0,62,63
EndSplineSet
EndChar

StartChar: sterling
Encoding: 163 163 98
Width: 1364
Flags: HW
LayerCount: 2
Fore
SplineSet
1081 1510 m 1,0,1
 1121 1510 1121 1510 1121 1471 c 2,2,-1
 1121 1085 l 2,3,4
 1121 1061 1121 1061 1099 1059 c 2,5,-1
 911 1045 l 1,6,7
 893.833 1045 893.833 1045 890 1068 c 1,8,-1
 917 1298 l 1,9,10
 801.286 1325 801.286 1325 725.643 1325 c 128,-1,11
 650 1325 650 1325 612.5 1311 c 128,-1,12
 575 1297 575 1297 552.5 1268.5 c 0,13,14
 511 1215.93 511 1215.93 511 1099 c 0,15,16
 511 984 511 984 519 828 c 1,17,-1
 769 859 l 1,18,19
 787 859 787 859 791 835 c 1,20,-1
 811 674 l 1,21,22
 809.273 655 809.273 655 795 655 c 2,23,-1
 528 655 l 1,24,25
 539.506 401.867 539.506 401.867 543 180 c 1,26,-1
 1018 211 l 1,27,-1
 994 373 l 1,28,29
 994 394.818 994 394.818 1017 399 c 2,30,-1
 1179 434 l 1,31,32
 1216.67 434 1216.67 434 1221 395 c 1,33,-1
 1249 -32 l 1,34,35
 1249 -55 1249 -55 1227 -58 c 1,36,-1
 1039 -62 l 2,37,38
 1021.83 -62 1021.83 -62 1018 -39 c 1,39,-1
 1020 8 l 1,40,-1
 142 -27 l 2,41,42
 125 -27 125 -27 124 -3 c 1,43,-1
 140 171 l 2,44,45
 141.58 186.795 141.58 186.795 156 190 c 1,46,-1
 340 175 l 1,47,-1
 340 217 l 2,48,49
 340 387.455 340 387.455 313 655 c 1,50,-1
 161 655 l 2,51,52
 145 655 145 655 143 674 c 1,53,-1
 141 815 l 2,54,55
 141 835 141 835 162 835 c 1,56,-1
 296 826 l 1,57,58
 280 999.714 280 999.714 280 1104.36 c 128,-1,59
 280 1209 280 1209 300.5 1288.5 c 128,-1,60
 321 1368 321 1368 364.5 1424.5 c 0,61,62
 455.735 1543 455.735 1543 640 1543 c 0,63,64
 759.214 1543 759.214 1543 864.5 1499 c 0,65,66
 898 1485 898 1485 936 1467 c 1,67,68
 940.071 1483.29 940.071 1483.29 955 1486 c 2,69,-1
 1081 1510 l 1,0,1
EndSplineSet
EndChar

StartChar: fraction
Encoding: 8260 8260 99
Width: 1194
Flags: HW
LayerCount: 2
Fore
SplineSet
1136 1407 m 2,0,1
 1144 1401 1144 1401 1144 1393.5 c 0,2,3
 1144 1386 1144 1386 1139 1378 c 2,4,-1
 666 738 l 1,5,-1
 178 38 l 1,6,7
 170 30 170 30 163 30 c 0,8,9
 156 30 156 30 148 35 c 2,10,-1
 58 99 l 2,11,12
 50 104 50 104 50 111.5 c 0,13,14
 50 119 50 119 57 130 c 2,15,-1
 555 821 l 1,16,-1
 1015 1473 l 2,17,18
 1021 1482 1021 1482 1027.5 1482 c 0,19,20
 1034 1482 1034 1482 1042 1477 c 2,21,-1
 1136 1407 l 2,0,1
EndSplineSet
EndChar

StartChar: yen
Encoding: 165 165 100
Width: 1364
Flags: HW
LayerCount: 2
Fore
SplineSet
209 476 m 2,0,1
 209 500 209 500 223 500 c 2,2,-1
 581 491 l 1,3,-1
 582 633 l 1,4,-1
 241 629 l 1,5,6
 228 630 228 630 223 633.5 c 128,-1,7
 218 637 218 637 217 649 c 2,8,-1
 209 777 l 1,9,10
 209 794.222 209 794.222 225 796 c 1,11,-1
 527 793 l 1,12,-1
 205 1309 l 1,13,-1
 123 1303 l 1,14,15
 96.7778 1303 96.7778 1303 95 1335 c 2,16,-1
 85 1503 l 1,17,18
 85 1520 85 1520 92 1525 c 128,-1,19
 99 1530 99 1530 116 1530 c 2,20,-1
 529 1540 l 1,21,22
 551.082 1536.85 551.082 1536.85 553 1510 c 2,23,-1
 563 1344 l 1,24,25
 561 1327 561 1327 555 1321.5 c 128,-1,26
 549 1316 549 1316 533 1316 c 2,27,-1
 465 1317 l 1,28,-1
 715 811 l 1,29,-1
 951 1324 l 1,30,-1
 880 1315 l 1,31,32
 868 1315 868 1315 863.5 1320 c 128,-1,33
 859 1325 859 1325 857 1338 c 2,34,-1
 842 1500 l 1,35,36
 843.654 1528.11 843.654 1528.11 872 1530 c 2,37,-1
 1258 1547 l 1,38,39
 1280 1545.31 1280 1545.31 1280 1515 c 1,40,-1
 1270 1358 l 2,41,42
 1269 1342 1269 1342 1263 1335.5 c 128,-1,43
 1257 1329 1257 1329 1240 1329 c 2,44,-1
 1164 1329 l 1,45,-1
 879 793 l 1,46,-1
 1154 796 l 2,47,48
 1170 796 1170 796 1170 777 c 2,49,-1
 1170 659 l 2,50,51
 1170 635 1170 635 1156 635 c 2,52,-1
 805 634 l 1,53,-1
 803 492 l 1,54,-1
 1138 506 l 1,55,56
 1151 505 1151 505 1156 501.5 c 128,-1,57
 1161 498 1161 498 1162 486 c 2,58,-1
 1170 359 l 1,59,60
 1170 340 1170 340 1154 340 c 2,61,-1
 800 340 l 1,62,-1
 798 202 l 1,63,-1
 932 205 l 2,64,65
 953.429 205 953.429 205 955 183 c 2,66,-1
 962 14 l 1,67,68
 961 1 961 1 958 -4 c 128,-1,69
 955 -9 955 -9 944 -9 c 2,70,-1
 452 -24 l 1,71,72
 440 -22 440 -22 434.5 -18.5 c 128,-1,73
 429 -15 429 -15 428 -3 c 2,74,-1
 412 173 l 1,75,76
 412 195 412 195 430 195 c 2,77,-1
 579 198 l 1,78,-1
 580 340 l 1,79,-1
 225 340 l 2,80,81
 209 340 209 340 209 359 c 2,82,-1
 209 476 l 2,0,1
EndSplineSet
EndChar

StartChar: florin
Encoding: 402 402 101
Width: 1364
Flags: HW
LayerCount: 2
Fore
SplineSet
111 -143 m 2,0,1
 111 -120.5 111 -120.5 132 -117 c 1,2,-1
 300 -123 l 2,3,4
 314 -123 314 -123 314 -139 c 2,5,-1
 308 -302 l 1,6,7
 313 -303 313 -303 318.5 -303 c 2,8,-1
 329 -303 l 2,9,10
 406.844 -303 406.844 -303 446.5 -261.5 c 0,11,12
 491.6 -214.303 491.6 -214.303 503 -106 c 2,13,-1
 591 699 l 1,14,-1
 387 688 l 1,15,16
 370 689 370 689 367 705 c 1,17,-1
 376 870 l 1,18,19
 378.75 892 378.75 892 398 892 c 2,20,-1
 605 885 l 1,21,22
 609 942 609 942 615 1005 c 2,23,-1
 626.5 1126.5 l 2,24,25
 639.181 1261.37 639.181 1261.37 650.59 1328.69 c 128,-1,26
 662 1396 662 1396 688.5 1457.5 c 128,-1,27
 715 1519 715 1519 756.5 1558 c 0,28,29
 837.372 1634 837.372 1634 994 1634 c 0,30,31
 1051 1634 1051 1634 1107 1624 c 1,32,-1
 1239 1636 l 1,33,34
 1257 1636 1257 1636 1260 1613 c 1,35,-1
 1244 1288 l 1,36,37
 1242 1268 1242 1268 1229 1268 c 1,38,-1
 1061 1284 l 1,39,40
 1036.6 1287.75 1036.6 1287.75 1035 1307 c 1,41,-1
 1051 1466 l 1,42,43
 1043 1467 1043 1467 1036 1467 c 128,-1,44
 1029 1467 1029 1467 1022 1467 c 0,45,46
 872.167 1467 872.167 1467 839 1268 c 0,47,48
 835 1246 835 1246 830.5 1204 c 2,49,-1
 820.5 1108.5 l 2,50,51
 809.804 1004.46 809.804 1004.46 801 879 c 1,52,-1
 1049 872 l 2,53,54
 1063 871 1063 871 1066.5 865.5 c 128,-1,55
 1070 860 1070 860 1071 848 c 1,56,-1
 1061 715 l 2,57,58
 1059.24 695.687 1059.24 695.687 1039 694 c 1,59,-1
 786 701 l 1,60,-1
 706 -106 l 1,61,62
 688.877 -290.073 688.877 -290.073 632 -374.5 c 0,63,64
 566.316 -472 566.316 -472 427 -472 c 0,65,66
 344.143 -472 344.143 -472 279 -460 c 1,67,-1
 122 -470 l 1,68,69
 105 -470 105 -470 105 -451 c 2,70,-1
 111 -143 l 2,0,1
EndSplineSet
EndChar

StartChar: section
Encoding: 167 167 102
Width: 1190
Flags: HW
LayerCount: 2
Fore
SplineSet
380 983 m 1,0,1
 227 1090.51 227 1090.51 227 1246 c 0,2,3
 227 1430.44 227 1430.44 331 1535.5 c 0,4,5
 430.485 1636 430.485 1636 598 1636 c 0,6,7
 810.222 1636 810.222 1636 961 1590 c 0,8,9
 977 1586 977 1586 977 1561 c 1,10,-1
 961 1376 l 2,11,12
 960 1355 960 1355 941 1355 c 0,13,14
 925.929 1355 925.929 1355 886.964 1373.5 c 128,-1,15
 848 1392 848 1392 821 1402.5 c 128,-1,16
 794 1413 794 1413 764 1422 c 0,17,18
 697.333 1442 697.333 1442 646.167 1442 c 128,-1,19
 595 1442 595 1442 562 1435.5 c 128,-1,20
 529 1429 529 1429 504.5 1411.5 c 0,21,22
 452 1374 452 1374 452 1283 c 0,23,24
 452 1204.36 452 1204.36 519 1146.5 c 0,25,26
 552 1118 552 1118 599.5 1091 c 2,27,-1
 708 1031 l 1,28,29
 896.24 929.796 896.24 929.796 967 854.5 c 0,30,31
 1039 777.885 1039 777.885 1039 657.942 c 128,-1,32
 1039 538 1039 538 981 447 c 128,-1,33
 923 356 923 356 817 322 c 1,34,35
 908.256 275.311 908.256 275.311 938.628 236.656 c 0,36,37
 991 170 991 170 991 80 c 0,38,39
 991 -115 991 -115 888.5 -210 c 128,-1,40
 786 -305 786 -305 569 -305 c 0,41,42
 392.214 -305 392.214 -305 241 -276 c 0,43,44
 202.623 -269.604 202.623 -269.604 199 -237 c 1,45,-1
 224 -72 l 2,46,47
 227.667 -50 227.667 -50 248 -50 c 0,48,49
 258 -50 258 -50 292.5 -59.5 c 2,50,-1
 364 -78.5 l 1,51,52
 510.053 -116 510.053 -116 575.526 -116 c 128,-1,53
 641 -116 641 -116 674 -103.5 c 128,-1,54
 707 -91 707 -91 728 -68.5 c 0,55,56
 768 -25.6429 768 -25.6429 768 51 c 0,57,58
 768 110.375 768 110.375 693 163.5 c 0,59,60
 657 189 657 189 607 214.5 c 2,61,-1
 497 269 l 1,62,63
 302.151 362.095 302.151 362.095 247.075 414.547 c 128,-1,64
 192 467 192 467 172 512.5 c 128,-1,65
 152 558 152 558 152 618 c 128,-1,66
 152 678 152 678 168 734.5 c 128,-1,67
 184 791 184 791 213.5 838.5 c 0,68,69
 274.922 937.4 274.922 937.4 380 983 c 1,0,1
375 649 m 0,70,71
 375 521.286 375 521.286 588 430 c 1,72,73
 628 425 628 425 659 425 c 128,-1,74
 690 425 690 425 723 444.5 c 128,-1,75
 756 464 756 464 778.5 496 c 0,76,77
 824 560.711 824 560.711 824 653 c 0,78,79
 824 702.211 824 702.211 797.5 730.105 c 0,80,81
 743.857 786.571 743.857 786.571 626 845.5 c 0,82,83
 611 853 611 853 597.5 857 c 0,84,85
 573.875 864 573.875 864 542.438 864 c 128,-1,86
 511 864 511 864 478 846.5 c 128,-1,87
 445 829 445 829 422 799.5 c 0,88,89
 375 739.217 375 739.217 375 649 c 0,70,71
EndSplineSet
EndChar

StartChar: currency
Encoding: 164 164 103
Width: 1194
Flags: HW
LayerCount: 2
Fore
SplineSet
851 272 m 1,0,1
 752.4 214 752.4 214 595.815 214 c 128,-1,2
 439.231 214 439.231 214 349 265 c 1,3,-1
 194 102 l 2,4,5
 190 97 190 97 183 97 c 128,-1,6
 176 97 176 97 169 104 c 2,7,-1
 61 209 l 2,8,9
 53 217 53 217 53 223.5 c 128,-1,10
 53 230 53 230 64 241 c 2,11,-1
 224 404 l 1,12,13
 178 502 178 502 178 659.5 c 128,-1,14
 178 817 178 817 222 917 c 1,15,-1
 46 1085 l 2,16,17
 41 1089 41 1089 41 1096 c 128,-1,18
 41 1103 41 1103 48 1110 c 2,19,-1
 153 1218 l 2,20,21
 161 1226 161 1226 167.5 1226 c 128,-1,22
 174 1226 174 1226 185 1215 c 2,23,-1
 346 1057 l 1,24,25
 444.968 1116 444.968 1116 587.546 1116 c 128,-1,26
 730.125 1116 730.125 1116 807 1086 c 1,27,-1
 965 1252 l 2,28,29
 969 1257 969 1257 976 1257 c 128,-1,30
 983 1257 983 1257 990 1250 c 2,31,-1
 1098 1145 l 2,32,33
 1106 1137 1106 1137 1106 1130.5 c 128,-1,34
 1106 1124 1106 1124 1095 1113 c 2,35,-1
 952 967 l 1,36,37
 1016 863 1016 863 1016 687.5 c 128,-1,38
 1016 512 1016 512 973 413 c 1,39,-1
 1148 247 l 2,40,41
 1153 243 1153 243 1153 236 c 128,-1,42
 1153 229 1153 229 1146 222 c 2,43,-1
 1041 114 l 2,44,45
 1033 106 1033 106 1026.5 106 c 128,-1,46
 1020 106 1020 106 1009 117 c 2,47,-1
 851 272 l 1,0,1
810.5 533.5 m 128,-1,49
 825 581 825 581 825 659 c 128,-1,50
 825 737 825 737 808.5 789 c 128,-1,51
 792 841 792 841 762 869 c 0,52,53
 712.714 915 712.714 915 622.857 915 c 128,-1,54
 533 915 533 915 488.5 902.5 c 128,-1,55
 444 890 444 890 417 859.5 c 0,56,57
 368 804.148 368 804.148 368 654 c 0,58,59
 368 457.224 368 457.224 499.5 417 c 0,60,61
 542 404 542 404 597.5 404 c 128,-1,62
 653 404 653 404 696 416.5 c 128,-1,63
 739 429 739 429 767.5 457.5 c 128,-1,48
 796 486 796 486 810.5 533.5 c 128,-1,49
EndSplineSet
EndChar

StartChar: quotesingle
Encoding: 39 39 104
Width: 512
Flags: HW
LayerCount: 2
Fore
SplineSet
136 1729 m 1,0,1
 137.778 1745 137.778 1745 155 1745 c 2,2,-1
 356 1737 l 2,3,4
 368 1736 368 1736 371.5 1731 c 128,-1,5
 375 1726 375 1726 376 1713 c 1,6,-1
 330 1200 l 1,7,8
 330 1186 330 1186 306 1186 c 1,9,-1
 195 1196 l 2,10,11
 176 1197.73 176 1197.73 176 1212 c 1,12,-1
 136 1729 l 1,0,1
EndSplineSet
EndChar

StartChar: quotedblleft
Encoding: 8220 8220 105
Width: 1024
Flags: HW
LayerCount: 2
Fore
SplineSet
377 1729 m 1,0,1
 362 1625.88 362 1625.88 362 1563.94 c 128,-1,2
 362 1502 362 1502 367.5 1469 c 128,-1,3
 373 1436 373 1436 381.5 1408 c 128,-1,4
 390 1380 390 1380 400 1357 c 2,5,-1
 418 1316 l 2,6,7
 430 1289 430 1289 430 1271 c 128,-1,8
 430 1253 430 1253 413.5 1237 c 128,-1,9
 397 1221 397 1221 372 1210 c 0,10,11
 319.727 1187 319.727 1187 261 1187 c 0,12,13
 154 1187 154 1187 154 1346 c 0,14,15
 154 1531.15 154 1531.15 260 1751 c 1,16,-1
 377 1729 l 1,0,1
847 1729 m 1,17,18
 832 1625.88 832 1625.88 832 1563.94 c 128,-1,19
 832 1502 832 1502 837.5 1469 c 128,-1,20
 843 1436 843 1436 851.5 1408 c 128,-1,21
 860 1380 860 1380 870 1357 c 2,22,-1
 888 1316 l 2,23,24
 900 1289 900 1289 900 1271 c 128,-1,25
 900 1253 900 1253 883.5 1237 c 128,-1,26
 867 1221 867 1221 842 1210 c 0,27,28
 789.727 1187 789.727 1187 731 1187 c 0,29,30
 624 1187 624 1187 624 1346 c 0,31,32
 624 1531.15 624 1531.15 730 1751 c 1,33,-1
 847 1729 l 1,17,18
EndSplineSet
EndChar

StartChar: guillemotleft
Encoding: 171 171 106
Width: 1533
Flags: HW
LayerCount: 2
Fore
SplineSet
115 506 m 1,0,1
 98.5 523 l 2,2,3
 90 532 90 532 90 541 c 1,4,-1
 100 617 l 2,5,6
 103.111 634.111 103.111 634.111 117 648 c 2,7,-1
 664 1155 l 2,8,9
 669 1160 669 1160 679.5 1160 c 128,-1,10
 690 1160 690 1160 698 1152 c 2,11,-1
 766 1085 l 2,12,13
 772 1079 772 1079 772 1072 c 256,14,15
 772 1065 772 1065 768 1061 c 2,16,-1
 353 577 l 1,17,-1
 775 104 l 2,18,19
 781 96 781 96 781 89 c 128,-1,20
 781 82 781 82 773 74 c 2,21,-1
 701 4 l 2,22,23
 693 -4 693 -4 686.5 -4 c 128,-1,24
 680 -4 680 -4 675 1 c 2,25,-1
 115 506 l 1,0,1
755 506 m 1,26,-1
 738.5 523 l 2,27,28
 730 532 730 532 730 541 c 1,29,-1
 740 617 l 2,30,31
 743.111 634.111 743.111 634.111 757 648 c 2,32,-1
 1304 1155 l 2,33,34
 1309 1160 1309 1160 1319.5 1160 c 128,-1,35
 1330 1160 1330 1160 1338 1152 c 2,36,-1
 1406 1085 l 2,37,38
 1412 1079 1412 1079 1412 1072 c 256,39,40
 1412 1065 1412 1065 1408 1061 c 2,41,-1
 993 577 l 1,42,-1
 1415 104 l 2,43,44
 1421 96 1421 96 1421 89 c 128,-1,45
 1421 82 1421 82 1413 74 c 2,46,-1
 1341 4 l 2,47,48
 1333 -4 1333 -4 1326.5 -4 c 128,-1,49
 1320 -4 1320 -4 1315 1 c 2,50,-1
 755 506 l 1,26,-1
EndSplineSet
EndChar

StartChar: guilsinglleft
Encoding: 8249 8249 107
Width: 854
Flags: HW
LayerCount: 2
Fore
SplineSet
95 506 m 1,0,1
 78.5 523 l 2,2,3
 70 532 70 532 70 541 c 1,4,-1
 80 617 l 2,5,6
 83.1111 634.111 83.1111 634.111 97 648 c 2,7,-1
 644 1155 l 2,8,9
 649 1160 649 1160 659.5 1160 c 128,-1,10
 670 1160 670 1160 678 1152 c 2,11,-1
 746 1085 l 2,12,13
 752 1079 752 1079 752 1072 c 256,14,15
 752 1065 752 1065 748 1061 c 2,16,-1
 333 577 l 1,17,-1
 755 104 l 2,18,19
 761 96 761 96 761 89 c 128,-1,20
 761 82 761 82 753 74 c 2,21,-1
 681 4 l 2,22,23
 673 -4 673 -4 666.5 -4 c 128,-1,24
 660 -4 660 -4 655 1 c 2,25,-1
 95 506 l 1,0,1
EndSplineSet
EndChar

StartChar: guilsinglright
Encoding: 8250 8250 108
Width: 852
Flags: HW
LayerCount: 2
Fore
SplineSet
197 1 m 2,0,1
 192 -4 192 -4 185.5 -4 c 128,-1,2
 179 -4 179 -4 171 4 c 2,3,-1
 99 74 l 2,4,5
 91 82 91 82 91 89 c 128,-1,6
 91 96 91 96 97 104 c 2,7,-1
 519 577 l 1,8,-1
 104 1061 l 2,9,10
 100 1065 100 1065 100 1072 c 256,11,12
 100 1079 100 1079 106 1085 c 2,13,-1
 174 1152 l 2,14,15
 182 1160 182 1160 192.5 1160 c 128,-1,16
 203 1160 203 1160 208 1155 c 2,17,-1
 755 648 l 2,18,19
 768.889 634.111 768.889 634.111 772 617 c 2,20,-1
 782 541 l 1,21,22
 782 532 782 532 773.5 523 c 2,23,-1
 757 506 l 1,24,-1
 197 1 l 2,0,1
EndSplineSet
EndChar

StartChar: fi
Encoding: 64257 64257 109
Width: 1537
Flags: HW
LayerCount: 2
Fore
SplineSet
449 1614 m 128,-1,1
 516 1634 516 1634 580.5 1634 c 128,-1,2
 645 1634 645 1634 683 1632 c 1,3,-1
 684 1659 l 2,4,5
 684 1676 684 1676 703 1676 c 2,6,-1
 860 1676 l 2,7,8
 878 1676 878 1676 881 1653 c 1,9,-1
 865 1358 l 2,10,11
 863 1338 863 1338 850 1338 c 2,12,-1
 702 1334 l 1,13,14
 677 1335 677 1335 676 1357 c 1,15,-1
 679 1463 l 1,16,17
 641 1467 641 1467 602 1467 c 128,-1,18
 563 1467 563 1467 533 1456 c 128,-1,19
 503 1445 503 1445 483 1420.5 c 0,20,21
 443 1371.5 443 1371.5 443 1276.75 c 128,-1,22
 443 1182 443 1182 445 1098 c 1,23,-1
 740 1102 l 1,24,25
 754 1101 754 1101 757.5 1095.5 c 128,-1,26
 761 1090 761 1090 762 1078 c 1,27,-1
 752 925 l 2,28,29
 750.244 905.687 750.244 905.687 730 904 c 1,30,-1
 458 911 l 1,31,-1
 458 206 l 1,32,-1
 642 210 l 2,33,34
 658 210 658 210 658 191 c 1,35,-1
 640 20 l 2,36,37
 638 8 638 8 633.5 4.5 c 128,-1,38
 629 1 629 1 616 0 c 1,39,-1
 133 6 l 2,40,41
 119 6 119 6 119 30 c 1,42,-1
 129 181 l 2,43,44
 130.727 200 130.727 200 145 200 c 2,45,-1
 245 202 l 1,46,-1
 254 909 l 1,47,-1
 78 898 l 1,48,49
 61 899 61 899 58 915 c 2,50,-1
 37 1070 l 1,51,52
 37 1092 37 1092 59 1092 c 2,53,-1
 248 1095 l 1,54,55
 239 1182 239 1182 239 1286.5 c 128,-1,56
 239 1391 239 1391 264 1452 c 128,-1,57
 289 1513 289 1513 335.5 1553.5 c 128,-1,0
 382 1594 382 1594 449 1614 c 128,-1,1
1004 -14 m 2,58,59
 990 -14 990 -14 990 10 c 2,60,-1
 990 161 l 2,61,62
 990 180 990 180 1006 180 c 2,63,-1
 1126 180 l 1,64,-1
 1134 879 l 1,65,-1
 972 896 l 2,66,67
 954 897.636 954 897.636 954 918 c 1,68,-1
 976 1083 l 1,69,70
 979.923 1100.65 979.923 1100.65 1000 1104 c 1,71,-1
 1321 1137 l 1,72,73
 1332 1137 1332 1137 1335 1131.5 c 128,-1,74
 1338 1126 1338 1126 1339 1114 c 2,75,-1
 1352 932 l 1,76,-1
 1349 180 l 1,77,-1
 1463 180 l 2,78,79
 1479 180 1479 180 1479 161 c 1,80,-1
 1461 30 l 2,81,82
 1459 18 1459 18 1454.5 14.5 c 128,-1,83
 1450 11 1450 11 1437 10 c 2,84,-1
 1004 -14 l 2,58,59
1264 1342 m 128,-1,86
 1232 1337 1232 1337 1187.5 1337 c 128,-1,87
 1143 1337 1143 1337 1119.5 1342 c 128,-1,88
 1096 1347 1096 1347 1082.5 1360.5 c 0,89,90
 1059 1384 1059 1384 1059 1445 c 128,-1,91
 1059 1506 1059 1506 1065.5 1532.5 c 128,-1,92
 1072 1559 1072 1559 1090 1574 c 0,93,94
 1121.2 1600 1121.2 1600 1191.6 1600 c 128,-1,95
 1262 1600 1262 1600 1286 1596.5 c 128,-1,96
 1310 1593 1310 1593 1324 1580.5 c 0,97,98
 1348 1559.07 1348 1559.07 1348 1496.04 c 128,-1,99
 1348 1433 1348 1433 1341 1405 c 128,-1,100
 1334 1377 1334 1377 1315 1362 c 128,-1,85
 1296 1347 1296 1347 1264 1342 c 128,-1,86
EndSplineSet
EndChar

StartChar: fl
Encoding: 64258 64258 110
Width: 1537
Flags: HW
LayerCount: 2
Fore
SplineSet
449 1614 m 128,-1,1
 516 1634 516 1634 580.5 1634 c 128,-1,2
 645 1634 645 1634 683 1632 c 1,3,-1
 684 1659 l 2,4,5
 684 1676 684 1676 703 1676 c 2,6,-1
 860 1676 l 2,7,8
 878 1676 878 1676 881 1653 c 1,9,-1
 865 1358 l 2,10,11
 863 1338 863 1338 850 1338 c 2,12,-1
 702 1334 l 1,13,14
 677 1335 677 1335 676 1357 c 1,15,-1
 679 1463 l 1,16,17
 641 1467 641 1467 602 1467 c 128,-1,18
 563 1467 563 1467 533 1456 c 128,-1,19
 503 1445 503 1445 483 1420.5 c 0,20,21
 443 1371.5 443 1371.5 443 1276.75 c 128,-1,22
 443 1182 443 1182 445 1098 c 1,23,-1
 740 1102 l 1,24,25
 754 1101 754 1101 757.5 1095.5 c 128,-1,26
 761 1090 761 1090 762 1078 c 1,27,-1
 752 925 l 2,28,29
 750.244 905.687 750.244 905.687 730 904 c 1,30,-1
 458 911 l 1,31,-1
 458 206 l 1,32,-1
 642 210 l 2,33,34
 658 210 658 210 658 191 c 1,35,-1
 640 20 l 2,36,37
 638 8 638 8 633.5 4.5 c 128,-1,38
 629 1 629 1 616 0 c 1,39,-1
 133 6 l 2,40,41
 119 6 119 6 119 30 c 1,42,-1
 129 181 l 2,43,44
 130.727 200 130.727 200 145 200 c 2,45,-1
 245 202 l 1,46,-1
 254 909 l 1,47,-1
 78 898 l 1,48,49
 61 899 61 899 58 915 c 2,50,-1
 37 1070 l 1,51,52
 37 1092 37 1092 59 1092 c 2,53,-1
 248 1095 l 1,54,55
 239 1182 239 1182 239 1286.5 c 128,-1,56
 239 1391 239 1391 264 1452 c 128,-1,57
 289 1513 289 1513 335.5 1553.5 c 128,-1,0
 382 1594 382 1594 449 1614 c 128,-1,1
980 1356 m 1,58,59
 962 1356 962 1356 962 1378 c 2,60,-1
 968 1574 l 2,61,62
 968 1586 968 1586 974 1589.5 c 128,-1,63
 980 1593 980 1593 992 1595 c 1,64,-1
 1317 1587 l 2,65,66
 1328 1587 1328 1587 1331 1581.5 c 128,-1,67
 1334 1576 1334 1576 1335 1564 c 1,68,-1
 1328 1405 l 1,69,-1
 1343 209 l 1,70,-1
 1479 220 l 1,71,72
 1493.27 220 1493.27 220 1495 201 c 2,73,-1
 1507 20 l 1,74,75
 1505 8 1505 8 1500.5 4.5 c 128,-1,76
 1496 1 1496 1 1483 0 c 1,77,-1
 940 6 l 2,78,79
 926 6 926 6 926 30 c 2,80,-1
 926 201 l 2,81,82
 926 220 926 220 942 220 c 1,83,-1
 1131 208 l 1,84,-1
 1131 1368 l 1,85,-1
 980 1356 l 1,58,59
EndSplineSet
EndChar

StartChar: endash
Encoding: 8211 8211 111
Width: 1193
Flags: HW
LayerCount: 2
Fore
SplineSet
1111 697 m 2,0,1
 1111 678 1111 678 1098 678 c 2,2,-1
 104 688 l 2,3,4
 87 688 87 688 87 707 c 2,5,-1
 82 848 l 2,6,7
 82 872 82 872 109 872 c 2,8,-1
 611 860 l 1,9,-1
 1091 868 l 1,10,11
 1107 866 1107 866 1107 848 c 2,12,-1
 1111 697 l 2,0,1
EndSplineSet
EndChar

StartChar: dagger
Encoding: 8224 8224 112
Width: 856
Flags: HW
LayerCount: 2
Fore
SplineSet
319 1520 m 1,0,1
 320.778 1536 320.778 1536 338 1536 c 2,2,-1
 509 1538 l 1,3,4
 521 1537 521 1537 524.5 1532 c 128,-1,5
 528 1527 528 1527 529 1514 c 1,6,-1
 521 1081 l 1,7,-1
 776 1092 l 1,8,9
 792 1090.22 792 1090.22 792 1073 c 2,10,-1
 784 922 l 1,11,12
 782 910 782 910 777.5 906 c 128,-1,13
 773 902 773 902 760 902 c 2,14,-1
 521 900 l 1,15,-1
 533 -141 l 2,16,17
 533 -161 533 -161 509 -163 c 2,18,-1
 348 -173 l 1,19,20
 329 -171.273 329 -171.273 329 -157 c 2,21,-1
 331 899 l 1,22,-1
 77 898 l 2,23,24
 63 898 63 898 63 922 c 2,25,-1
 63 1063 l 2,26,27
 63 1082 63 1082 79 1082 c 2,28,-1
 330 1078 l 1,29,-1
 319 1520 l 1,0,1
EndSplineSet
EndChar

StartChar: daggerdbl
Encoding: 8225 8225 113
Width: 856
Flags: HW
LayerCount: 2
Fore
SplineSet
76 898 m 2,0,1
 62 898 62 898 62 922 c 1,2,-1
 72 1063 l 2,3,4
 73 1082 73 1082 90 1082 c 2,5,-1
 329 1078 l 1,6,-1
 318 1508 l 1,7,8
 319.582 1523.82 319.582 1523.82 337 1526 c 2,9,-1
 508 1538 l 1,10,11
 520 1537 520 1537 523.5 1532 c 128,-1,12
 527 1527 527 1527 528 1514 c 1,13,-1
 520 1078 l 1,14,-1
 770 1082 l 1,15,16
 786 1080.22 786 1080.22 786 1063 c 2,17,-1
 783 922 l 2,18,19
 783 902 783 902 759 902 c 2,20,-1
 517 900 l 1,21,-1
 512 511 l 1,22,-1
 775 522 l 1,23,24
 791 521 791 521 791 503 c 2,25,-1
 793 352 l 2,26,27
 793 332 793 332 769 332 c 2,28,-1
 512 330 l 1,29,-1
 522 -153 l 2,30,31
 522 -173 522 -173 498 -173 c 2,32,-1
 337 -168 l 2,33,34
 318 -168 318 -168 318 -148 c 2,35,-1
 332 329 l 1,36,-1
 80 328 l 2,37,38
 62 328 62 328 62 352 c 2,39,-1
 67 483 l 2,40,41
 68 502 68 502 86 502 c 2,42,-1
 333 505 l 1,43,-1
 331 899 l 1,44,-1
 76 898 l 2,0,1
EndSplineSet
EndChar

StartChar: periodcentered
Encoding: 183 183 114
Width: 512
Flags: HW
LayerCount: 2
Fore
SplineSet
415.5 675 m 128,-1,1
 421 645 421 645 421 619 c 128,-1,2
 421 593 421 593 403.5 571.5 c 128,-1,3
 386 550 386 550 357 536 c 0,4,5
 296.929 507 296.929 507 240.964 507 c 128,-1,6
 185 507 185 507 164 524.5 c 128,-1,7
 143 542 143 542 130 568 c 0,8,9
 105 618 105 618 105 666.5 c 128,-1,10
 105 715 105 715 127 737 c 128,-1,11
 149 759 149 759 181 771.5 c 0,12,13
 236.04 793 236.04 793 290.52 793 c 128,-1,14
 345 793 345 793 365.5 775.5 c 128,-1,15
 386 758 386 758 398 731.5 c 128,-1,0
 410 705 410 705 415.5 675 c 128,-1,1
EndSplineSet
EndChar

StartChar: paragraph
Encoding: 182 182 115
Width: 1529
Flags: HW
LayerCount: 2
Fore
SplineSet
684 730 m 1,0,1
 634 725 634 725 576.5 725 c 128,-1,2
 519 725 519 725 440.5 754.5 c 128,-1,3
 362 784 362 784 304 841 c 0,4,5
 179 963.845 179 963.845 179 1175 c 0,6,7
 179 1429 179 1429 362 1551 c 0,8,9
 518 1655 518 1655 792 1655 c 0,10,11
 1101.38 1655 1101.38 1655 1350 1604 c 0,12,13
 1371.72 1600.38 1371.72 1600.38 1374 1573 c 1,14,-1
 1365 1433 l 1,15,16
 1360.33 1405 1360.33 1405 1340 1405 c 1,17,18
 1179 1420 l 1,19,-1
 1198 -266 l 2,20,21
 1198 -289 1198 -289 1180 -290 c 1,22,-1
 1056 -306 l 1,23,24
 1032 -306 1032 -306 1032 -286 c 2,25,-1
 1024 1430 l 1,26,27
 986 1432 986 1432 944.5 1433 c 2,28,-1
 858 1435 l 1,29,-1
 849 -276 l 2,30,31
 849 -300 849 -300 831 -300 c 2,32,-1
 679 -296 l 2,33,34
 655 -296 655 -296 655 -271 c 2,35,-1
 684 730 l 1,0,1
EndSplineSet
EndChar

StartChar: bullet
Encoding: 8226 8226 116
Width: 686
Flags: HW
LayerCount: 2
Fore
SplineSet
521.5 551 m 128,-1,1
 499 524 499 524 462.5 506 c 0,2,3
 387.472 469 387.472 469 282 469 c 0,4,5
 211.5 469 211.5 469 172.5 547 c 0,6,7
 142 608 142 608 142 670.5 c 128,-1,8
 142 733 142 733 170 761 c 128,-1,9
 198 789 198 789 239 805 c 0,10,11
 310.75 833 310.75 833 409 833 c 0,12,13
 477.864 833 477.864 833 514.5 755 c 0,14,15
 544 692.194 544 692.194 544 635.097 c 128,-1,0
 544 578 544 578 521.5 551 c 128,-1,1
EndSplineSet
EndChar

StartChar: quotesinglbase
Encoding: 8218 8218 117
Width: 512
Flags: HW
LayerCount: 2
Fore
SplineSet
156 -291 m 1,0,1
 171 -187.875 171 -187.875 171 -125.938 c 128,-1,2
 171 -64 171 -64 165.5 -31 c 128,-1,3
 160 2 160 2 151.5 30 c 128,-1,4
 143 58 143 58 133 81 c 2,5,-1
 115 122 l 2,6,7
 103 149 103 149 103 167 c 128,-1,8
 103 185 103 185 119.5 201 c 128,-1,9
 136 217 136 217 161 228 c 0,10,11
 213.273 251 213.273 251 272 251 c 0,12,13
 379 251 379 251 379 92 c 0,14,15
 379 -93.1481 379 -93.1481 273 -313 c 1,16,-1
 156 -291 l 1,0,1
EndSplineSet
EndChar

StartChar: quotedblbase
Encoding: 8222 8222 118
Width: 1020
Flags: HW
LayerCount: 2
Fore
SplineSet
177 -291 m 1,0,1
 192 -187.875 192 -187.875 192 -125.938 c 128,-1,2
 192 -64 192 -64 186.5 -31 c 128,-1,3
 181 2 181 2 172.5 30 c 128,-1,4
 164 58 164 58 154 81 c 2,5,-1
 136 122 l 2,6,7
 124 149 124 149 124 167 c 128,-1,8
 124 185 124 185 140.5 201 c 128,-1,9
 157 217 157 217 182 228 c 0,10,11
 234.273 251 234.273 251 293 251 c 0,12,13
 400 251 400 251 400 92 c 0,14,15
 400 -93.1481 400 -93.1481 294 -313 c 1,16,-1
 177 -291 l 1,0,1
647 -291 m 1,17,18
 662 -187.875 662 -187.875 662 -125.938 c 128,-1,19
 662 -64 662 -64 656.5 -31 c 128,-1,20
 651 2 651 2 642.5 30 c 128,-1,21
 634 58 634 58 624 81 c 2,22,-1
 606 122 l 2,23,24
 594 149 594 149 594 167 c 128,-1,25
 594 185 594 185 610.5 201 c 128,-1,26
 627 217 627 217 652 228 c 0,27,28
 704.273 251 704.273 251 763 251 c 0,29,30
 870 251 870 251 870 92 c 0,31,32
 870 -93.1481 870 -93.1481 764 -313 c 1,33,-1
 647 -291 l 1,17,18
EndSplineSet
EndChar

StartChar: quotedblright
Encoding: 8221 8221 119
Width: 1024
Flags: HW
LayerCount: 2
Fore
SplineSet
177 1209 m 1,0,1
 192 1312.12 192 1312.12 192 1374.06 c 128,-1,2
 192 1436 192 1436 186.5 1469 c 128,-1,3
 181 1502 181 1502 172.5 1530 c 128,-1,4
 164 1558 164 1558 154 1581 c 2,5,-1
 136 1622 l 2,6,7
 124 1649 124 1649 124 1667 c 128,-1,8
 124 1685 124 1685 140.5 1701 c 128,-1,9
 157 1717 157 1717 182 1728 c 0,10,11
 234.273 1751 234.273 1751 293 1751 c 0,12,13
 400 1751 400 1751 400 1592 c 0,14,15
 400 1406.85 400 1406.85 294 1187 c 1,16,-1
 177 1209 l 1,0,1
647 1209 m 1,17,18
 662 1312.12 662 1312.12 662 1374.06 c 128,-1,19
 662 1436 662 1436 656.5 1469 c 128,-1,20
 651 1502 651 1502 642.5 1530 c 128,-1,21
 634 1558 634 1558 624 1581 c 2,22,-1
 606 1622 l 2,23,24
 594 1649 594 1649 594 1667 c 128,-1,25
 594 1685 594 1685 610.5 1701 c 128,-1,26
 627 1717 627 1717 652 1728 c 0,27,28
 704.273 1751 704.273 1751 763 1751 c 0,29,30
 870 1751 870 1751 870 1592 c 0,31,32
 870 1406.85 870 1406.85 764 1187 c 1,33,-1
 647 1209 l 1,17,18
EndSplineSet
EndChar

StartChar: guillemotright
Encoding: 187 187 120
Width: 1533
Flags: HW
LayerCount: 2
Fore
SplineSet
778 650 m 1,0,1
 794.5 633 l 2,2,3
 803 624 803 624 803 615 c 1,4,-1
 793 539 l 2,5,6
 789.889 521.889 789.889 521.889 776 508 c 2,7,-1
 229 1 l 2,8,9
 224 -4 224 -4 213.5 -4 c 128,-1,10
 203 -4 203 -4 195 4 c 2,11,-1
 127 71 l 2,12,13
 121 77 121 77 121 84 c 256,14,15
 121 91 121 91 125 95 c 2,16,-1
 540 579 l 1,17,-1
 118 1052 l 2,18,19
 112 1059 112 1059 112 1066.5 c 128,-1,20
 112 1074 112 1074 120 1082 c 2,21,-1
 192 1152 l 2,22,23
 200 1160 200 1160 206.5 1160 c 128,-1,24
 213 1160 213 1160 218 1155 c 2,25,-1
 778 650 l 1,0,1
1418 650 m 1,26,-1
 1434.5 633 l 2,27,28
 1443 624 1443 624 1443 615 c 1,29,-1
 1433 539 l 2,30,31
 1429.89 521.889 1429.89 521.889 1416 508 c 2,32,-1
 869 1 l 2,33,34
 864 -4 864 -4 853.5 -4 c 128,-1,35
 843 -4 843 -4 835 4 c 2,36,-1
 767 71 l 2,37,38
 761 77 761 77 761 84 c 256,39,40
 761 91 761 91 765 95 c 2,41,-1
 1180 579 l 1,42,-1
 758 1052 l 2,43,44
 752 1059 752 1059 752 1066.5 c 128,-1,45
 752 1074 752 1074 760 1082 c 2,46,-1
 832 1152 l 2,47,48
 840 1160 840 1160 846.5 1160 c 128,-1,49
 853 1160 853 1160 858 1155 c 2,50,-1
 1418 650 l 1,26,-1
EndSplineSet
EndChar

StartChar: ellipsis
Encoding: 8230 8230 121
Width: 1536
Flags: HW
LayerCount: 2
Fore
SplineSet
415.5 135 m 128,-1,1
 421 105 421 105 421 79 c 128,-1,2
 421 53 421 53 403.5 31.5 c 128,-1,3
 386 10 386 10 357 -4 c 0,4,5
 296.929 -33 296.929 -33 240.964 -33 c 128,-1,6
 185 -33 185 -33 164 -15.5 c 128,-1,7
 143 2 143 2 130 28 c 0,8,9
 105 78 105 78 105 126.5 c 128,-1,10
 105 175 105 175 127 197 c 128,-1,11
 149 219 149 219 181 231.5 c 0,12,13
 236.04 253 236.04 253 290.52 253 c 128,-1,14
 345 253 345 253 365.5 235.5 c 128,-1,15
 386 218 386 218 398 191.5 c 128,-1,0
 410 165 410 165 415.5 135 c 128,-1,1
927.5 135 m 128,-1,17
 933 105 933 105 933 79 c 128,-1,18
 933 53 933 53 915.5 31.5 c 128,-1,19
 898 10 898 10 869 -4 c 0,20,21
 808.929 -33 808.929 -33 752.964 -33 c 128,-1,22
 697 -33 697 -33 676 -15.5 c 128,-1,23
 655 2 655 2 642 28 c 0,24,25
 617 78 617 78 617 126.5 c 128,-1,26
 617 175 617 175 639 197 c 128,-1,27
 661 219 661 219 693 231.5 c 0,28,29
 748.04 253 748.04 253 802.52 253 c 128,-1,30
 857 253 857 253 877.5 235.5 c 128,-1,31
 898 218 898 218 910 191.5 c 128,-1,16
 922 165 922 165 927.5 135 c 128,-1,17
1439.5 135 m 128,-1,33
 1445 105 1445 105 1445 79 c 128,-1,34
 1445 53 1445 53 1427.5 31.5 c 128,-1,35
 1410 10 1410 10 1381 -4 c 0,36,37
 1320.93 -33 1320.93 -33 1264.96 -33 c 128,-1,38
 1209 -33 1209 -33 1188 -15.5 c 128,-1,39
 1167 2 1167 2 1154 28 c 0,40,41
 1129 78 1129 78 1129 126.5 c 128,-1,42
 1129 175 1129 175 1151 197 c 128,-1,43
 1173 219 1173 219 1205 231.5 c 0,44,45
 1260.04 253 1260.04 253 1314.52 253 c 128,-1,46
 1369 253 1369 253 1389.5 235.5 c 128,-1,47
 1410 218 1410 218 1422 191.5 c 128,-1,32
 1434 165 1434 165 1439.5 135 c 128,-1,33
EndSplineSet
EndChar

StartChar: perthousand
Encoding: 8240 8240 122
Width: 2050
Flags: HW
LayerCount: 2
Fore
SplineSet
1247 1407 m 2,0,1
 1255 1401 1255 1401 1255 1393.5 c 128,-1,2
 1255 1386 1255 1386 1250 1378 c 2,3,-1
 777 738 l 1,4,-1
 289 38 l 2,5,6
 283 30 283 30 275 30 c 128,-1,7
 267 30 267 30 259 35 c 2,8,-1
 169 99 l 2,9,10
 161 104 161 104 161 111.5 c 128,-1,11
 161 119 161 119 168 130 c 2,12,-1
 666 821 l 1,13,-1
 1126 1473 l 2,14,15
 1132 1482 1132 1482 1138.5 1482 c 128,-1,16
 1145 1482 1145 1482 1153 1477 c 2,17,-1
 1247 1407 l 2,0,1
631.5 1330.5 m 128,-1,19
 649 1277 649 1277 649 1211.5 c 128,-1,20
 649 1146 649 1146 629.5 1090.5 c 128,-1,21
 610 1035 610 1035 572 995.5 c 0,22,23
 491.671 912 491.671 912 350 912 c 0,24,25
 214.125 912 214.125 912 138 999 c 0,26,27
 67 1080.14 67 1080.14 67 1206 c 256,28,29
 67 1409.16 67 1409.16 228.5 1479 c 0,30,31
 284 1503 284 1503 359.5 1503 c 128,-1,32
 435 1503 435 1503 489 1481.5 c 128,-1,33
 543 1460 543 1460 578.5 1422 c 128,-1,18
 614 1384 614 1384 631.5 1330.5 c 128,-1,19
419.5 1348.5 m 128,-1,35
 396 1361 396 1361 360 1361 c 128,-1,36
 324 1361 324 1361 298 1347 c 128,-1,37
 272 1333 272 1333 257 1310.5 c 0,38,39
 230 1270 230 1270 230 1223.5 c 128,-1,40
 230 1177 230 1177 237 1150.5 c 128,-1,41
 244 1124 244 1124 259.5 1102 c 0,42,43
 294.023 1053 294.023 1053 357 1053 c 0,44,45
 452.19 1053 452.19 1053 481.5 1153 c 0,46,47
 490 1182 490 1182 490 1212.5 c 128,-1,48
 490 1243 490 1243 482.5 1269.5 c 128,-1,49
 475 1296 475 1296 459 1316 c 128,-1,34
 443 1336 443 1336 419.5 1348.5 c 128,-1,35
1291.5 413.5 m 128,-1,51
 1309 360 1309 360 1309 294.5 c 128,-1,52
 1309 229 1309 229 1289.5 173.5 c 128,-1,53
 1270 118 1270 118 1232 78.5 c 0,54,55
 1151.67 -4.99999 1151.67 -4.99999 1010 -5 c 0,56,57
 874.125 -5 874.125 -5 798 82 c 0,58,59
 727 163.143 727 163.143 727 289 c 256,60,61
 727 492.162 727 492.162 888.5 562 c 0,62,63
 944 586 944 586 1019.5 586 c 128,-1,64
 1095 586 1095 586 1149 564.5 c 128,-1,65
 1203 543 1203 543 1238.5 505 c 128,-1,50
 1274 467 1274 467 1291.5 413.5 c 128,-1,51
1079.5 431.5 m 128,-1,67
 1056 444 1056 444 1020 444 c 128,-1,68
 984 444 984 444 958 430 c 128,-1,69
 932 416 932 416 917 393.5 c 0,70,71
 890 353 890 353 890 306.5 c 128,-1,72
 890 260 890 260 897 233.5 c 128,-1,73
 904 207 904 207 919.5 185 c 0,74,75
 954.023 136 954.023 136 1017 136 c 0,76,77
 1112.19 136 1112.19 136 1141.5 236 c 0,78,79
 1150 265 1150 265 1150 295.5 c 128,-1,80
 1150 326 1150 326 1142.5 352.5 c 128,-1,81
 1135 379 1135 379 1119 399 c 128,-1,66
 1103 419 1103 419 1079.5 431.5 c 128,-1,67
1971.5 413.5 m 128,-1,83
 1989 360 1989 360 1989 294.5 c 128,-1,84
 1989 229 1989 229 1969.5 173.5 c 128,-1,85
 1950 118 1950 118 1912 78.5 c 0,86,87
 1831.67 -4.99999 1831.67 -4.99999 1690 -5 c 0,88,89
 1554.12 -5 1554.12 -5 1478 82 c 0,90,91
 1407 163.143 1407 163.143 1407 289 c 256,92,93
 1407 492.162 1407 492.162 1568.5 562 c 0,94,95
 1624 586 1624 586 1699.5 586 c 128,-1,96
 1775 586 1775 586 1829 564.5 c 128,-1,97
 1883 543 1883 543 1918.5 505 c 128,-1,82
 1954 467 1954 467 1971.5 413.5 c 128,-1,83
1759.5 431.5 m 128,-1,99
 1736 444 1736 444 1700 444 c 128,-1,100
 1664 444 1664 444 1638 430 c 128,-1,101
 1612 416 1612 416 1597 393.5 c 0,102,103
 1570 353 1570 353 1570 306.5 c 128,-1,104
 1570 260 1570 260 1577 233.5 c 128,-1,105
 1584 207 1584 207 1599.5 185 c 0,106,107
 1634.02 136 1634.02 136 1697 136 c 0,108,109
 1792.19 136 1792.19 136 1821.5 236 c 0,110,111
 1830 265 1830 265 1830 295.5 c 128,-1,112
 1830 326 1830 326 1822.5 352.5 c 128,-1,113
 1815 379 1815 379 1799 399 c 128,-1,98
 1783 419 1783 419 1759.5 431.5 c 128,-1,99
EndSplineSet
EndChar

StartChar: questiondown
Encoding: 191 191 123
Width: 1023
Flags: HW
LayerCount: 2
Fore
SplineSet
937 32 m 2,0,1
 950.909 32 950.909 32 953 9 c 1,2,-1
 933 -381 l 1,3,4
 930.333 -413 930.333 -413 903 -413 c 2,5,-1
 754 -409 l 1,6,7
 719.475 -406.534 719.475 -406.534 716 -377 c 1,8,-1
 718 -317 l 1,9,10
 558 -401 558 -401 399 -401 c 0,11,12
 142.863 -401 142.863 -401 73.5 -218 c 0,13,14
 50 -156 50 -156 50 -81.5 c 128,-1,15
 50 -7 50 -7 68 54.5 c 128,-1,16
 86 116 86 116 115.5 174.5 c 128,-1,17
 145 233 145 233 183 289 c 1,18,-1
 370.5 551.5 l 1,19,20
 423 627 423 627 440.5 671.5 c 128,-1,21
 458 716 458 716 462.5 721.5 c 128,-1,22
 467 727 467 727 478 727 c 1,23,-1
 634 704 l 2,24,25
 647 703 647 703 647 689 c 128,-1,26
 647 675 647 675 636.5 634.5 c 0,27,28
 612.733 542.829 612.733 542.829 495 372 c 1,29,-1
 418.5 259.5 l 1,30,31
 284 56.8533 284 56.8533 284 -55 c 0,32,33
 284 -155.246 284 -155.246 383.5 -189.5 c 0,34,35
 414 -200 414 -200 454.5 -200 c 128,-1,36
 495 -200 495 -200 530.5 -195 c 128,-1,37
 566 -190 566 -190 598 -181 c 0,38,39
 648.915 -166.68 648.915 -166.68 724 -128 c 1,40,-1
 728 0 l 2,41,42
 729 13 729 13 731.5 19 c 128,-1,43
 734 25 734 25 749 26 c 2,44,-1
 937 32 l 2,0,1
382.5 988 m 128,-1,46
 377 1018 377 1018 377 1044 c 128,-1,47
 377 1070 377 1070 394.5 1091.5 c 128,-1,48
 412 1113 412 1113 441 1127 c 0,49,50
 501.071 1156 501.071 1156 557.036 1156 c 128,-1,51
 613 1156 613 1156 634 1138.5 c 128,-1,52
 655 1121 655 1121 668 1095 c 0,53,54
 693 1045 693 1045 693 996.5 c 128,-1,55
 693 948 693 948 671 926 c 128,-1,56
 649 904 649 904 617 891.5 c 0,57,58
 561.96 870 561.96 870 507.48 870 c 128,-1,59
 453 870 453 870 432.5 887.5 c 128,-1,60
 412 905 412 905 400 931.5 c 128,-1,45
 388 958 388 958 382.5 988 c 128,-1,46
EndSplineSet
EndChar

StartChar: grave
Encoding: 96 96 124
Width: 900
Flags: HW
LayerCount: 2
Fore
SplineSet
253 1799 m 2,0,1
 262 1810 262 1810 274.5 1810 c 0,2,3
 287 1810 287 1810 296 1799 c 2,4,-1
 679 1379 l 1,5,6
 684 1372 684 1372 684 1363.5 c 0,7,8
 684 1355 684 1355 676 1345 c 1,9,-1
 609 1277 l 2,10,11
 603 1271 603 1271 596 1271 c 256,12,13
 589 1271 589 1271 585 1275 c 2,14,-1
 123 1615 l 2,15,16
 115 1622 115 1622 115 1632 c 0,17,18
 115 1642 115 1642 120 1649 c 2,19,-1
 253 1799 l 2,0,1
EndSplineSet
EndChar

StartChar: acute
Encoding: 180 180 125
Width: 900
Flags: HW
LayerCount: 2
Fore
SplineSet
769 1649 m 2,0,1
 774 1642 774 1642 774 1632 c 0,2,3
 774 1622 774 1622 766 1615 c 2,4,-1
 304 1275 l 2,5,6
 298 1271 298 1271 292 1271 c 0,7,8
 286 1271 286 1271 280 1277 c 2,9,-1
 213 1345 l 1,10,11
 205 1355 205 1355 205 1363.5 c 0,12,13
 205 1372 205 1372 210 1379 c 1,14,-1
 593 1799 l 2,15,16
 602 1810 602 1810 614.5 1810 c 0,17,18
 627 1810 627 1810 636 1799 c 2,19,-1
 769 1649 l 2,0,1
EndSplineSet
EndChar

StartChar: circumflex
Encoding: 710 710 126
Width: 900
Flags: HW
LayerCount: 2
Fore
SplineSet
365 1745 m 1,0,1
 387.167 1767.17 387.167 1767.17 407 1770 c 2,2,-1
 508 1780 l 1,3,4
 531 1780 531 1780 555 1750 c 2,5,-1
 853 1369 l 2,6,7
 858 1362 858 1362 858 1352.5 c 128,-1,8
 858 1343 858 1343 850 1335 c 2,9,-1
 783 1267 l 2,10,11
 777 1261 777 1261 770 1261 c 128,-1,12
 763 1261 763 1261 759 1265 c 2,13,-1
 449 1545 l 1,14,-1
 150 1268 l 1,15,16
 142 1262 142 1262 135 1262 c 128,-1,17
 128 1262 128 1262 120 1270 c 2,18,-1
 50 1342 l 2,19,20
 42 1350 42 1350 42 1356.5 c 128,-1,21
 42 1363 42 1363 47 1368 c 2,22,-1
 365 1745 l 1,0,1
EndSplineSet
EndChar

StartChar: tilde
Encoding: 732 732 127
Width: 900
Flags: HW
LayerCount: 2
Fore
SplineSet
58 1462 m 1,0,1
 58 1477.43 58 1477.43 107 1520.72 c 128,-1,2
 156 1564 156 1564 188 1585 c 0,3,4
 259.619 1632 259.619 1632 300.31 1632 c 128,-1,5
 341 1632 341 1632 376 1614 c 128,-1,6
 411 1596 411 1596 446.5 1575 c 0,7,8
 539.476 1520 539.476 1520 571.238 1520 c 128,-1,9
 603 1520 603 1520 629 1527 c 128,-1,10
 655 1534 655 1534 679 1544.5 c 128,-1,11
 703 1555 703 1555 723.5 1567 c 2,12,-1
 759 1588 l 2,13,14
 780 1601 780 1601 790 1601 c 128,-1,15
 800 1601 800 1601 807 1582 c 2,16,-1
 840 1504 l 2,17,18
 842 1499 842 1499 842 1492.5 c 0,19,20
 842 1483 842 1483 825 1465 c 2,21,-1
 779 1418.5 l 1,22,23
 668.596 1310 668.596 1310 580 1310 c 0,24,25
 534.2 1310 534.2 1310 437 1364 c 256,26,27
 339.8 1418 339.8 1418 307.4 1418 c 0,28,29
 257.562 1418 257.562 1418 208.281 1392.5 c 0,30,31
 128.078 1351 128.078 1351 115.539 1351 c 0,32,33
 96.6667 1351 96.6667 1351 90 1371 c 2,34,-1
 58 1462 l 1,0,1
EndSplineSet
EndChar

StartChar: macron
Encoding: 175 175 128
Width: 900
Flags: HW
LayerCount: 2
Fore
SplineSet
776 1611 m 1,0,1
 792 1609.22 792 1609.22 792 1592 c 1,2,-1
 774 1421 l 2,3,4
 772 1409 772 1409 767.5 1405 c 128,-1,5
 763 1401 763 1401 750 1401 c 2,6,-1
 121 1407 l 2,7,8
 107 1407 107 1407 107 1431 c 1,9,-1
 117 1582 l 2,10,11
 118.727 1601 118.727 1601 133 1601 c 2,12,-1
 776 1611 l 1,0,1
EndSplineSet
EndChar

StartChar: breve
Encoding: 728 728 129
Width: 900
Flags: HW
LayerCount: 2
Fore
SplineSet
816 1698 m 2,0,1
 840 1698 840 1698 840 1675 c 0,2,3
 840 1532.55 840 1532.55 745.5 1435 c 0,4,5
 643.781 1330 643.781 1330 477 1330 c 0,6,7
 305.614 1330 305.614 1330 196 1421 c 0,8,9
 83 1514.81 83 1514.81 83 1676 c 0,10,11
 83 1697 83 1697 107 1699 c 2,12,-1
 250 1712 l 1,13,14
 269 1712 269 1712 271.5 1680 c 128,-1,15
 274 1648 274 1648 290.5 1616 c 128,-1,16
 307 1584 307 1584 333.5 1561 c 0,17,18
 388.804 1513 388.804 1513 470 1513 c 0,19,20
 622 1513 622 1513 652 1678 c 0,21,22
 656 1702 656 1702 673 1702 c 2,23,-1
 816 1698 l 2,0,1
EndSplineSet
EndChar

StartChar: dotaccent
Encoding: 729 729 130
Width: 900
Flags: HW
LayerCount: 2
Fore
SplineSet
510 1342 m 128,-1,1
 478 1337 478 1337 433.5 1337 c 128,-1,2
 389 1337 389 1337 365.5 1342 c 128,-1,3
 342 1347 342 1347 328.5 1360.5 c 0,4,5
 305 1384 305 1384 305 1445 c 128,-1,6
 305 1506 305 1506 311.5 1532.5 c 128,-1,7
 318 1559 318 1559 336 1574 c 0,8,9
 367.2 1600 367.2 1600 437.6 1600 c 128,-1,10
 508 1600 508 1600 532 1596.5 c 128,-1,11
 556 1593 556 1593 570 1580.5 c 0,12,13
 594 1559.07 594 1559.07 594 1496.04 c 128,-1,14
 594 1433 594 1433 587 1405 c 128,-1,15
 580 1377 580 1377 561 1362 c 128,-1,0
 542 1347 542 1347 510 1342 c 128,-1,1
EndSplineSet
EndChar

StartChar: dieresis
Encoding: 168 168 131
Width: 900
Flags: HW
LayerCount: 2
Fore
SplineSet
275 1342 m 128,-1,1
 243 1337 243 1337 200.5 1337 c 128,-1,2
 158 1337 158 1337 134.5 1343 c 128,-1,3
 111 1349 111 1349 97 1363.5 c 0,4,5
 70 1391.46 70 1391.46 70 1448.73 c 128,-1,6
 70 1506 70 1506 76.5 1532.5 c 128,-1,7
 83 1559 83 1559 101 1574 c 0,8,9
 132.2 1600 132.2 1600 201.1 1600 c 128,-1,10
 270 1600 270 1600 293.5 1595 c 128,-1,11
 317 1590 317 1590 331.5 1576.5 c 0,12,13
 359 1550.9 359 1550.9 359 1491.95 c 128,-1,14
 359 1433 359 1433 352 1405 c 128,-1,15
 345 1377 345 1377 326 1362 c 128,-1,0
 307 1347 307 1347 275 1342 c 128,-1,1
746 1342 m 128,-1,17
 714 1337 714 1337 671.5 1337 c 128,-1,18
 629 1337 629 1337 605.5 1343 c 128,-1,19
 582 1349 582 1349 568 1363.5 c 0,20,21
 541 1391.46 541 1391.46 541 1448.73 c 128,-1,22
 541 1506 541 1506 547.5 1532.5 c 128,-1,23
 554 1559 554 1559 572 1574 c 0,24,25
 603.2 1600 603.2 1600 672.1 1600 c 128,-1,26
 741 1600 741 1600 764.5 1595 c 128,-1,27
 788 1590 788 1590 802.5 1576.5 c 0,28,29
 830 1550.9 830 1550.9 830 1491.95 c 128,-1,30
 830 1433 830 1433 823 1405 c 128,-1,31
 816 1377 816 1377 797 1362 c 128,-1,16
 778 1347 778 1347 746 1342 c 128,-1,17
EndSplineSet
EndChar

StartChar: ring
Encoding: 730 730 132
Width: 900
Flags: HW
LayerCount: 2
Fore
SplineSet
730 1528 m 256,0,1
 730 1267 730 1267 450 1267 c 128,-1,2
 170 1267 170 1267 170 1508 c 0,3,4
 170 1772 170 1772 454 1772 c 0,5,6
 667.319 1772 667.319 1772 714.5 1633.5 c 0,7,8
 730 1588 730 1588 730 1528 c 256,0,1
333 1519 m 0,9,10
 333 1408 333 1408 450 1408 c 0,11,12
 544.341 1408 544.341 1408 566.5 1483 c 0,13,14
 573 1505 573 1505 573 1540.5 c 128,-1,15
 573 1576 573 1576 547 1606 c 128,-1,16
 521 1636 521 1636 469 1636 c 128,-1,17
 417 1636 417 1636 392.5 1625.5 c 128,-1,18
 368 1615 368 1615 355 1598.5 c 0,19,20
 333 1570.58 333 1570.58 333 1519 c 0,9,10
EndSplineSet
EndChar

StartChar: cedilla
Encoding: 184 184 133
Width: 900
Flags: HW
LayerCount: 2
Fore
SplineSet
420 -374 m 0,0,1
 503 -374 503 -374 503 -305 c 0,2,3
 503 -276 503 -276 484.5 -255 c 128,-1,4
 466 -234 466 -234 438 -234 c 128,-1,5
 410 -234 410 -234 398 -235.5 c 128,-1,6
 386 -237 386 -237 374 -238.5 c 0,7,8
 346 -242 346 -242 341 -242 c 128,-1,9
 336 -242 336 -242 324.5 -229.5 c 128,-1,10
 313 -217 313 -217 300 -201 c 0,11,12
 268 -161.615 268 -161.615 268 -147 c 1,13,-1
 314 33 l 1,14,-1
 433 33 l 1,15,-1
 411 -112 l 1,16,17
 452.4 -103 452.4 -103 499.2 -103 c 128,-1,18
 546 -103 546 -103 579 -119 c 128,-1,19
 612 -135 612 -135 634.5 -162.5 c 0,20,21
 679 -216.889 679 -216.889 679 -320.444 c 0,22,23
 679 -522 679 -522 432 -522 c 0,24,25
 318 -522 318 -522 241 -489 c 0,26,27
 220 -480 220 -480 220 -471 c 1,28,-1
 241 -364 l 2,29,30
 244 -347 244 -347 260 -347 c 0,31,32
 267 -347 267 -347 295 -354 c 0,33,34
 375 -374 375 -374 420 -374 c 0,0,1
EndSplineSet
EndChar

StartChar: hungarumlaut
Encoding: 733 733 134
Width: 900
Flags: HW
LayerCount: 2
Fore
SplineSet
915 1639 m 2,0,1
 921 1633 921 1633 921 1622.5 c 128,-1,2
 921 1612 921 1612 913 1605 c 2,3,-1
 562 1286 l 2,4,5
 558 1282 558 1282 551 1282 c 128,-1,6
 544 1282 544 1282 538 1288 c 2,7,-1
 462 1356 l 2,8,9
 452 1366 452 1366 452 1374 c 128,-1,10
 452 1382 452 1382 458 1390 c 2,11,-1
 746 1759 l 2,12,13
 755 1770 755 1770 767.5 1770 c 128,-1,14
 780 1770 780 1770 789 1759 c 1,15,-1
 915 1639 l 2,0,1
424 1661 m 2,16,17
 430 1656 430 1656 430 1645.5 c 128,-1,18
 430 1635 430 1635 422 1627 c 2,19,-1
 91 1296 l 2,20,21
 87 1292 87 1292 82.5 1292 c 128,-1,22
 78 1292 78 1292 74.5 1294 c 128,-1,23
 71 1296 71 1296 67 1298 c 2,24,-1
 -12 1356 l 2,25,26
 -21 1363 -21 1363 -21 1372.5 c 128,-1,27
 -21 1382 -21 1382 -16 1390 c 2,28,-1
 250 1778 l 2,29,30
 257 1789 257 1789 266.5 1789 c 0,31,32
 282 1789 282 1789 293 1778 c 2,33,-1
 424 1661 l 2,16,17
EndSplineSet
EndChar

StartChar: ogonek
Encoding: 731 731 135
Width: 900
Flags: HW
LayerCount: 2
Fore
SplineSet
469 -450 m 0,0,1
 254 -450 254 -450 254 -271 c 256,2,3
 254 -133.667 254 -133.667 378 42 c 0,4,5
 414 93 414 93 453 137 c 1,6,-1
 560 50 l 1,7,8
 432 -99.3333 432 -99.3333 432 -181 c 0,9,10
 432 -245 432 -245 528 -245 c 256,11,12
 586.2 -245 586.2 -245 641.6 -225 c 128,-1,13
 697 -205 697 -205 705 -205 c 0,14,15
 719 -205 719 -205 721 -222 c 2,16,-1
 742 -388 l 1,17,18
 742 -402 742 -402 720 -410 c 1,19,20
 592.941 -450 592.941 -450 469 -450 c 0,0,1
EndSplineSet
EndChar

StartChar: caron
Encoding: 711 711 136
Width: 900
Flags: HW
LayerCount: 2
Fore
SplineSet
535 1296 m 1,0,1
 512.833 1273.83 512.833 1273.83 493 1271 c 2,2,-1
 392 1261 l 1,3,4
 369 1261 369 1261 345 1291 c 2,5,-1
 47 1672 l 2,6,7
 42 1679 42 1679 42 1688.5 c 128,-1,8
 42 1698 42 1698 50 1706 c 2,9,-1
 117 1774 l 2,10,11
 123 1780 123 1780 130 1780 c 128,-1,12
 137 1780 137 1780 141 1776 c 2,13,-1
 451 1496 l 1,14,-1
 750 1773 l 2,15,16
 756 1779 756 1779 764 1779 c 128,-1,17
 772 1779 772 1779 780 1771 c 2,18,-1
 850 1699 l 2,19,20
 857 1692 857 1692 857 1685 c 128,-1,21
 857 1678 857 1678 853 1673 c 2,22,-1
 535 1296 l 1,0,1
EndSplineSet
EndChar

StartChar: emdash
Encoding: 8212 8212 137
Width: 2223
Flags: HW
LayerCount: 2
Fore
SplineSet
98 678 m 1,0,1
 82 679.778 82 679.778 82 697 c 2,2,-1
 90 848 l 2,3,4
 91 860 91 860 96 863.5 c 128,-1,5
 101 867 101 867 114 868 c 2,6,-1
 2122 872 l 2,7,8
 2141 872 2141 872 2141 848 c 1,9,-1
 2131 707 l 2,10,11
 2129.27 688 2129.27 688 2115 688 c 2,12,-1
 98 678 l 1,0,1
EndSplineSet
EndChar

StartChar: AE
Encoding: 198 198 138
Width: 1903
Flags: HW
LayerCount: 2
Fore
SplineSet
1539 812 m 1,0,1
 1566 809.75 1566 809.75 1566 787 c 1,2,-1
 1553 631 l 2,3,4
 1550.91 608 1550.91 608 1535 608 c 2,5,-1
 1139 601 l 1,6,-1
 1138 204 l 1,7,-1
 1634 222 l 1,8,-1
 1643 343 l 1,9,10
 1647.1 379.894 1647.1 379.894 1685 382 c 2,11,-1
 1820 387 l 1,12,13
 1848 386 1848 386 1850 356 c 2,14,-1
 1866 -41 l 1,15,16
 1865 -64 1865 -64 1845 -64 c 2,17,-1
 1637 -60 l 2,18,19
 1615 -60 1615 -60 1615 -34 c 1,20,-1
 1619 26 l 1,21,-1
 789 2 l 2,22,23
 767 2 767 2 766 26 c 1,24,-1
 772 205 l 2,25,26
 772 226 772 226 791 229 c 1,27,-1
 917 212 l 1,28,-1
 933 596 l 1,29,-1
 533 585 l 1,30,-1
 385 214 l 1,31,-1
 484 224 l 1,32,33
 496 224 496 224 500.5 219 c 128,-1,34
 505 214 505 214 507 201 c 2,35,-1
 522 49 l 1,36,37
 520 32 520 32 513.5 26 c 128,-1,38
 507 20 507 20 492 19 c 2,39,-1
 56 2 l 1,40,41
 34 3.69231 34 3.69231 34 34 c 2,42,-1
 34 201 l 2,43,44
 34 217 34 217 40.5 223 c 128,-1,45
 47 229 47 229 64 230 c 1,46,-1
 165 225 l 1,47,-1
 682 1490 l 2,48,49
 690.589 1509.33 690.589 1509.33 709 1511 c 2,50,-1
 1725 1553 l 1,51,52
 1755 1550.69 1755 1550.69 1755 1526 c 2,53,-1
 1745 1171 l 2,54,55
 1745 1147 1745 1147 1725 1144 c 2,56,-1
 1563 1114 l 1,57,58
 1549 1114 1549 1114 1545 1120.5 c 128,-1,59
 1541 1127 1541 1127 1540 1140 c 2,60,-1
 1527 1349 l 1,61,-1
 1160 1343 l 1,62,-1
 1141 783 l 1,63,-1
 1539 812 l 1,0,1
603 759 m 1,64,-1
 938 775 l 1,65,-1
 943 1348 l 1,66,-1
 841 1354 l 1,67,-1
 603 759 l 1,64,-1
EndSplineSet
EndChar

StartChar: ordfeminine
Encoding: 170 170 139
Width: 1021
Flags: HW
LayerCount: 2
Fore
SplineSet
311 1503 m 1,0,1
 433.917 1562 433.917 1562 543 1562 c 0,2,3
 685.391 1562 685.391 1562 721 1436 c 0,4,5
 734 1390 734 1390 734 1341.5 c 128,-1,6
 734 1293 734 1293 733 1247 c 128,-1,7
 732 1201 732 1201 730 1148.5 c 2,8,-1
 726 1043 l 2,9,10
 724 990 724 990 722 946 c 1,11,-1
 812 954 l 1,12,13
 826 954 826 954 826 941 c 1,14,-1
 814 794 l 2,15,16
 812.587 782.698 812.587 782.698 799 781 c 2,17,-1
 593 768 l 2,18,19
 583 768 583 768 583 783 c 1,20,-1
 589 863 l 1,21,22
 495.78 765 495.78 765 367 765 c 0,23,24
 187.238 765 187.238 765 133.5 887 c 0,25,26
 115 929 115 929 115 994.5 c 128,-1,27
 115 1060 115 1060 139.5 1108 c 128,-1,28
 164 1156 164 1156 211.5 1184 c 0,29,30
 296.321 1234 296.321 1234 493 1234 c 2,31,-1
 531 1234 l 2,32,33
 548 1234 548 1234 571 1232 c 1,34,-1
 571 1271 l 2,35,36
 571 1410 571 1410 462 1410 c 0,37,38
 380.818 1410 380.818 1410 317 1392 c 1,39,-1
 330 1330 l 1,40,41
 330 1315 330 1315 315 1315 c 2,42,-1
 180 1313 l 2,43,44
 167 1313 167 1313 167 1328 c 2,45,-1
 155 1562 l 1,46,47
 156 1580 156 1580 170 1580 c 2,48,-1
 303 1585 l 2,49,50
 317 1585 317 1585 317 1570 c 1,51,-1
 311 1503 l 1,0,1
278 1002 m 0,52,53
 278 912 278 912 405 912 c 0,54,55
 495.917 912 495.917 912 566 941 c 1,56,-1
 569 1113 l 1,57,58
 398.667 1113 398.667 1113 353.333 1097 c 128,-1,59
 308 1081 308 1081 293 1059 c 128,-1,60
 278 1037 278 1037 278 1002 c 0,52,53
EndSplineSet
EndChar

StartChar: Lslash
Encoding: 321 321 140
Width: 1195
Flags: HW
LayerCount: 2
Fore
SplineSet
969 -43 m 1,0,1
 951.833 -43 951.833 -43 948 -20 c 1,2,-1
 943 28 l 1,3,-1
 100 -7 l 2,4,5
 83 -7 83 -7 82 17 c 1,6,-1
 98 191 l 2,7,8
 99.5795 206.795 99.5795 206.795 114 210 c 1,9,-1
 252 204 l 1,10,-1
 255 566 l 1,11,-1
 140 511 l 2,12,13
 134 508 134 508 125 508 c 128,-1,14
 116 508 116 508 111 519 c 2,15,-1
 55 661 l 2,16,17
 53 667 53 667 53 671.5 c 128,-1,18
 53 676 53 676 62 681 c 1,19,-1
 256 757 l 1,20,-1
 261 1304 l 1,21,-1
 125 1291 l 1,22,23
 114 1291 114 1291 111 1296 c 128,-1,24
 108 1301 108 1301 107 1313 c 2,25,-1
 98 1493 l 1,26,27
 99 1516 99 1516 122 1516 c 2,28,-1
 607 1524 l 1,29,30
 625.723 1522.3 625.723 1522.3 629 1501 c 2,31,-1
 648 1325 l 1,32,33
 648 1311 648 1311 641.5 1307.5 c 128,-1,34
 635 1304 635 1304 625 1303 c 1,35,-1
 479 1308 l 1,36,-1
 478 854 l 1,37,-1
 772 1010 l 2,38,39
 780 1014 780 1014 788 1014 c 128,-1,40
 796 1014 796 1014 802 999 c 2,41,-1
 864 856 l 2,42,43
 866 850 866 850 866 843 c 128,-1,44
 866 836 866 836 855 832 c 2,45,-1
 477 670 l 1,46,-1
 476 209 l 1,47,-1
 922 232 l 1,48,-1
 904 407 l 1,49,50
 904 426 904 426 927 428 c 2,51,-1
 1089 443 l 1,52,53
 1128.83 443 1128.83 443 1131 404 c 2,54,-1
 1149 7 l 1,55,56
 1147.11 -15.6479 1147.11 -15.6479 1127 -19 c 2,57,-1
 969 -43 l 1,0,1
EndSplineSet
EndChar

StartChar: Oslash
Encoding: 216 216 141
Width: 1366
Flags: HW
LayerCount: 2
Fore
SplineSet
1261 751 m 0,0,1
 1261 -10 1261 -10 700 -10 c 0,2,3
 589 -10 589 -10 496 19 c 1,4,-1
 421 -195 l 2,5,6
 416 -209 416 -209 406.5 -209 c 128,-1,7
 397 -209 397 -209 393 -208 c 2,8,-1
 276 -161 l 2,9,10
 260 -155 260 -155 260 -145 c 128,-1,11
 260 -135 260 -135 261 -133 c 2,12,-1
 351 90 l 1,13,14
 106 270 106 270 106 751 c 0,15,16
 106 1330.5 106 1330.5 423 1487.5 c 0,17,18
 529 1540 529 1540 661.5 1540 c 128,-1,19
 794 1540 794 1540 892 1507 c 1,20,-1
 962 1701 l 2,21,22
 968.375 1718 968.375 1718 976.688 1718 c 128,-1,23
 985 1718 985 1718 989 1717 c 2,24,-1
 1108 1674 l 2,25,26
 1123 1669 1123 1669 1123 1657 c 0,27,28
 1123 1654 1123 1654 1121 1646 c 1,29,-1
 1032 1432 l 1,30,31
 1261 1252.07 1261 1252.07 1261 751 c 0,0,1
815 1293 m 1,32,33
 759.727 1312 759.727 1312 668.864 1312 c 128,-1,34
 578 1312 578 1312 512 1278 c 128,-1,35
 446 1244 446 1244 405.5 1175 c 0,36,37
 330 1046.37 330 1046.37 330 755 c 0,38,39
 330 431.821 330 431.821 440 312 c 1,40,-1
 644 816 l 1,41,-1
 815 1293 l 1,32,33
938 1204 m 1,42,-1
 757 764 l 1,43,-1
 571 233 l 1,44,45
 629 217 629 217 713.5 217 c 128,-1,46
 798 217 798 217 861 248.5 c 128,-1,47
 924 280 924 280 962.5 344.5 c 0,48,49
 1035 465.961 1035 465.961 1035 771.002 c 128,-1,50
 1035 1076.04 1035 1076.04 938 1204 c 1,42,-1
EndSplineSet
EndChar

StartChar: OE
Encoding: 338 338 142
Width: 1868
Flags: HW
LayerCount: 2
Fore
SplineSet
1540 882 m 1,0,1
 1565.36 882 1565.36 882 1567 859 c 1,2,-1
 1554 691 l 2,3,4
 1552 668 1552 668 1531 668 c 2,5,-1
 1144 661 l 1,6,-1
 1122 203 l 1,7,-1
 1558 221 l 1,8,-1
 1554 353 l 1,9,10
 1555.92 387.548 1555.92 387.548 1596 392 c 2,11,-1
 1755 407 l 1,12,13
 1780 405 1780 405 1781 383 c 2,14,-1
 1807 -21 l 1,15,16
 1804 -46 1804 -46 1784 -47 c 2,17,-1
 1588 -60 l 1,18,19
 1566 -57 1566 -57 1566 -34 c 2,20,-1
 1564 30 l 1,21,-1
 835 22 l 1,22,23
 751 -12 751 -12 627 -12 c 128,-1,24
 503 -12 503 -12 404.5 41 c 128,-1,25
 306 94 306 94 239.5 193 c 0,26,27
 106 391.744 106 391.744 106 751 c 0,28,29
 106 1330.5 106 1330.5 423 1487.5 c 0,30,31
 529 1540 529 1540 658.95 1540 c 128,-1,32
 788.9 1540 788.9 1540 875 1498 c 1,33,-1
 1696 1553 l 1,34,35
 1726 1553 1726 1553 1726 1526 c 1,36,-1
 1706 1181 l 2,37,38
 1705 1160 1705 1160 1685 1158 c 2,39,-1
 1522 1144 l 1,40,41
 1508 1144 1508 1144 1505 1150.5 c 128,-1,42
 1502 1157 1502 1157 1501 1170 c 1,43,-1
 1505 1341 l 1,44,-1
 1113 1318 l 1,45,-1
 1145 851 l 1,46,-1
 1540 882 l 1,0,1
940.5 496.5 m 128,-1,48
 955 599 955 599 955 759 c 128,-1,49
 955 919 955 919 935.5 1030.5 c 128,-1,50
 916 1142 916 1142 879 1207 c 0,51,52
 813.538 1322 813.538 1322 664 1322 c 0,53,54
 479 1322 479 1322 401 1180 c 0,55,56
 330 1050.74 330 1050.74 330 755 c 0,57,58
 330 331.4 330 331.4 507 237 c 0,59,60
 567 205 567 205 653 205 c 128,-1,61
 739 205 739 205 797.5 235 c 128,-1,62
 856 265 856 265 891 329.5 c 128,-1,47
 926 394 926 394 940.5 496.5 c 128,-1,48
EndSplineSet
EndChar

StartChar: ordmasculine
Encoding: 186 186 143
Width: 1021
Flags: HW
LayerCount: 2
Fore
SplineSet
151 960.5 m 128,-1,1
 127 1039 127 1039 127 1153 c 128,-1,2
 127 1267 127 1267 149.5 1346.5 c 128,-1,3
 172 1426 172 1426 213.5 1476.5 c 0,4,5
 293.624 1574 293.624 1574 445 1574 c 0,6,7
 614.376 1574 614.376 1574 695 1492.5 c 0,8,9
 793 1393.43 793 1393.43 793 1154 c 0,10,11
 793 832.433 793 832.433 609 766.5 c 0,12,13
 549 745 549 745 470.5 745 c 128,-1,14
 392 745 392 745 328.5 765.5 c 128,-1,15
 265 786 265 786 220 834 c 128,-1,0
 175 882 175 882 151 960.5 c 128,-1,1
618 1297.5 m 128,-1,17
 603 1351 603 1351 577.5 1377.5 c 0,18,19
 539.491 1417 539.491 1417 447 1417 c 128,-1,20
 354.424 1417 354.424 1417 321.5 1364.5 c 0,21,22
 286 1307.89 286 1307.89 286 1191.45 c 128,-1,23
 286 1075 286 1075 299.5 1022.5 c 128,-1,24
 313 970 313 970 337.5 941.5 c 0,25,26
 378.333 894 378.333 894 477 894 c 0,27,28
 564.667 894 564.667 894 597 942.5 c 0,29,30
 633 996.5 633 996.5 633 1120.25 c 128,-1,16
 633 1244 633 1244 618 1297.5 c 128,-1,17
EndSplineSet
EndChar

StartChar: ae
Encoding: 230 230 144
Width: 1771
Flags: HW
LayerCount: 2
Fore
SplineSet
906 1012 m 1,0,1
 1040.69 1153 1040.69 1153 1281 1153 c 0,2,3
 1465 1153 1465 1153 1549.5 1068.5 c 128,-1,4
 1634 984 1634 984 1634 801 c 0,5,6
 1634 586.857 1634 586.857 1480 524 c 0,7,8
 1390.01 487.271 1390.01 487.271 1274.01 484.135 c 128,-1,9
 1158 481 1158 481 1102 481 c 2,10,-1
 1018.5 481 l 2,11,12
 991 481 991 481 963 483 c 1,13,14
 976.264 289.728 976.264 289.728 1042 222 c 0,15,16
 1096.35 166 1096.35 166 1229 166 c 0,17,18
 1334 166 1334 166 1434 186 c 1,19,-1
 1437 249 l 2,20,21
 1438 261 1438 261 1442.5 265 c 128,-1,22
 1447 269 1447 269 1459 272 c 2,23,-1
 1603 304 l 1,24,25
 1626.54 304 1626.54 304 1628 285 c 2,26,-1
 1650 -25 l 1,27,28
 1650 -64.1111 1650 -64.1111 1606 -69 c 2,29,-1
 1440 -89 l 1,30,31
 1418 -89 1418 -89 1418 -67 c 0,32,33
 1418 -34 1418 -34 1422 6 c 1,34,35
 1300.4 -26 1300.4 -26 1137 -26 c 0,36,37
 928.886 -26 928.886 -26 837 108 c 1,38,39
 755.326 30.9934 755.326 30.9934 696.663 6.49671 c 0,40,41
 587.711 -39 587.711 -39 482.855 -39 c 128,-1,42
 378 -39 378 -39 315.5 -17 c 128,-1,43
 253 5 253 5 206.5 46.5 c 0,44,45
 105 137.086 105 137.086 105 286 c 0,46,47
 105 472 105 472 232 555 c 128,-1,48
 359 638 359 638 623 638 c 0,49,50
 686 638 686 638 755 635 c 1,51,52
 755 716.5 755 716.5 752 751 c 0,53,54
 745 851 745 851 705.5 898.5 c 128,-1,55
 666 946 666 946 581 946 c 0,56,57
 492.478 946 492.478 946 361 892 c 1,58,59
 367 850 367 850 367 826 c 128,-1,60
 367 802 367 802 345 802 c 2,61,-1
 176 799 l 1,62,63
 157.697 802.328 157.697 802.328 156 821 c 2,64,-1
 139 1107 l 1,65,66
 139 1130.62 139 1130.62 161 1134 c 2,67,-1
 328 1156 l 1,68,69
 349 1156 349 1156 349 1134 c 2,70,-1
 349 1050 l 1,71,72
 527.6 1144 527.6 1144 685.235 1144 c 128,-1,73
 842.87 1144 842.87 1144 906 1012 c 1,0,1
785 219 m 1,74,75
 752.041 323.694 752.041 323.694 750 489 c 1,76,77
 406.042 489 406.042 489 349.5 380.5 c 0,78,79
 331 345 331 345 331 302 c 128,-1,80
 331 259 331 259 346.5 231 c 128,-1,81
 362 203 362 203 388.5 184.5 c 0,82,83
 439.351 149 439.351 149 521.176 149 c 0,84,85
 662.5 149 662.5 149 785 219 c 1,74,75
1382 700.5 m 128,-1,87
 1406 736 1406 736 1406 787 c 128,-1,88
 1406 838 1406 838 1398.5 868.5 c 128,-1,89
 1391 899 1391 899 1372.5 920 c 0,90,91
 1334.62 963 1334.62 963 1246 963 c 0,92,93
 1076.33 963 1076.33 963 1019 877 c 0,94,95
 964.791 795.687 964.791 795.687 960 628 c 1,96,97
 1011 625 1011 625 1075.5 625 c 128,-1,98
 1140 625 1140 625 1204 628.5 c 128,-1,99
 1268 632 1268 632 1313 648.5 c 128,-1,86
 1358 665 1358 665 1382 700.5 c 128,-1,87
EndSplineSet
EndChar

StartChar: dotlessi
Encoding: 305 305 145
Width: 683
Flags: HW
LayerCount: 2
Fore
SplineSet
150 -14 m 2,0,1
 136 -14 136 -14 136 10 c 2,2,-1
 136 161 l 2,3,4
 136 180 136 180 152 180 c 2,5,-1
 272 180 l 1,6,-1
 280 879 l 1,7,-1
 118 896 l 2,8,9
 100 897.636 100 897.636 100 918 c 1,10,-1
 122 1083 l 2,11,12
 125.188 1100.53 125.188 1100.53 146 1104 c 1,13,-1
 467 1137 l 1,14,15
 478 1137 478 1137 481 1131.5 c 128,-1,16
 484 1126 484 1126 485 1114 c 2,17,-1
 498 932 l 1,18,-1
 495 180 l 1,19,-1
 609 180 l 2,20,21
 625 180 625 180 625 161 c 1,22,-1
 607 30 l 2,23,24
 605 18 605 18 600.5 14.5 c 128,-1,25
 596 11 596 11 583 10 c 2,26,-1
 150 -14 l 2,0,1
EndSplineSet
EndChar

StartChar: lslash
Encoding: 322 322 146
Width: 683
Flags: HW
LayerCount: 2
Fore
SplineSet
126 1356 m 1,0,1
 108 1356 108 1356 108 1378 c 2,2,-1
 114 1574 l 2,3,4
 114 1586 114 1586 120 1589.5 c 128,-1,5
 126 1593 126 1593 138 1595 c 1,6,-1
 463 1587 l 2,7,8
 474 1587 474 1587 477 1581.5 c 128,-1,9
 480 1576 480 1576 481 1564 c 1,10,-1
 474 1405 l 1,11,-1
 479 966 l 1,12,-1
 612 1030 l 2,13,14
 619 1033 619 1033 627.5 1033 c 128,-1,15
 636 1033 636 1033 642 1019 c 2,16,-1
 694 876 l 2,17,18
 695 873 695 873 695 865 c 128,-1,19
 695 857 695 857 685 852 c 1,20,-1
 482 779 l 1,21,-1
 489 209 l 1,22,-1
 625 220 l 1,23,24
 639.273 220 639.273 220 641 201 c 2,25,-1
 653 20 l 1,26,27
 651 8 651 8 646.5 4.5 c 128,-1,28
 642 1 642 1 629 0 c 1,29,-1
 86 6 l 2,30,31
 72 6 72 6 72 30 c 2,32,-1
 72 201 l 2,33,34
 72 220 72 220 88 220 c 1,35,-1
 277 208 l 1,36,-1
 277 686 l 1,37,-1
 150 621 l 2,38,39
 144 618 144 618 135 618 c 128,-1,40
 126 618 126 618 121 629 c 2,41,-1
 65 771 l 2,42,43
 63 777 63 777 63 781.5 c 128,-1,44
 63 786 63 786 72 791 c 1,45,-1
 277 875 l 1,46,-1
 277 1368 l 1,47,-1
 126 1356 l 1,0,1
EndSplineSet
EndChar

StartChar: oslash
Encoding: 248 248 147
Width: 1194
Flags: HW
LayerCount: 2
Fore
SplineSet
299 59 m 1,0,1
 123 181.791 123 181.791 123 561 c 0,2,3
 123 891.903 123 891.903 236.5 1027.5 c 0,4,5
 339.874 1151 339.874 1151 575 1151 c 0,6,7
 673.5 1151 673.5 1151 740 1137 c 1,8,-1
 813 1326 l 2,9,10
 819.375 1343 819.375 1343 827.688 1343 c 128,-1,11
 836 1343 836 1343 840 1342 c 2,12,-1
 939 1299 l 2,13,14
 954 1293 954 1293 954 1284.5 c 128,-1,15
 954 1276 954 1276 952 1271 c 2,16,-1
 873 1089 l 1,17,18
 1070 969.087 1070 969.087 1070 557 c 0,19,20
 1070 234.922 1070 234.922 955.5 102.5 c 0,21,22
 849.579 -20 849.579 -20 613 -20 c 0,23,24
 513 -20 513 -20 436 -1 c 1,25,-1
 354 -223 l 2,26,27
 349 -237 349 -237 339.5 -237 c 128,-1,28
 330 -237 330 -237 326 -236 c 2,29,-1
 219 -189 l 2,30,31
 203 -183 203 -183 203 -173 c 128,-1,32
 203 -163 203 -163 204 -161 c 2,33,-1
 299 59 l 1,0,1
509 195 m 1,34,35
 556.667 184 556.667 184 619.833 184 c 128,-1,36
 683 184 683 184 728.5 197.5 c 128,-1,37
 774 211 774 211 804 251 c 0,38,39
 864 331 864 331 864 551 c 0,40,41
 864 792 864 792 781 875 c 1,42,-1
 641 551 l 1,43,-1
 509 195 l 1,34,35
660 931 m 1,44,45
 620 935 620 935 565.5 935 c 128,-1,46
 511 935 511 935 464 923 c 128,-1,47
 417 911 417 911 386.5 872 c 0,48,49
 327 795.918 327 795.918 327 566 c 0,50,51
 327 359.71 327 359.71 391 273 c 1,52,-1
 534 603 l 1,53,-1
 660 931 l 1,44,45
EndSplineSet
EndChar

StartChar: oe
Encoding: 339 339 148
Width: 1881
Flags: HW
LayerCount: 2
Fore
SplineSet
955 976 m 1,0,1
 1084.66 1153 1084.66 1153 1379 1153 c 0,2,3
 1564 1153 1564 1153 1648 1062 c 128,-1,4
 1732 971 1732 971 1732 784 c 0,5,6
 1732 661.556 1732 661.556 1688.5 595.5 c 0,7,8
 1675 575 1675 575 1651 548 c 128,-1,9
 1627 521 1627 521 1561 501 c 128,-1,10
 1495 481 1495 481 1410.5 470.5 c 0,11,12
 1277.71 454 1277.71 454 1050 454 c 1,13,14
 1068.29 213.633 1068.29 213.633 1221 185 c 0,15,16
 1269 176 1269 176 1305.5 176 c 128,-1,17
 1342 176 1342 176 1371.5 177.5 c 128,-1,18
 1401 179 1401 179 1436 182 c 0,19,20
 1533.44 190.352 1533.44 190.352 1572 197 c 1,21,-1
 1575 249 l 2,22,23
 1576 261 1576 261 1580.5 265 c 128,-1,24
 1585 269 1585 269 1597 272 c 2,25,-1
 1741 304 l 1,26,27
 1764.54 304 1764.54 304 1766 285 c 2,28,-1
 1788 -25 l 1,29,30
 1788 -64.1111 1788 -64.1111 1744 -69 c 2,31,-1
 1578 -89 l 1,32,33
 1556 -89 1556 -89 1556 -67 c 1,34,-1
 1560 6 l 1,35,36
 1432 -26 1432 -26 1233.74 -26 c 128,-1,37
 1035.48 -26 1035.48 -26 936 117 c 1,38,39
 824 -20 824 -20 592 -20 c 0,40,41
 342.609 -20 342.609 -20 228.5 99.5 c 0,42,43
 97 237.213 97 237.213 97 561 c 0,44,45
 97 892.5 97 892.5 213 1027.5 c 0,46,47
 319.119 1151 319.119 1151 554 1151 c 0,48,49
 693.55 1151 693.55 1151 766.775 1122 c 128,-1,50
 840 1093 840 1093 881.5 1059 c 128,-1,51
 923 1025 923 1025 955 976 c 1,0,1
832.5 363 m 128,-1,53
 848 435 848 435 848 539 c 128,-1,54
 848 643 848 643 836.5 707 c 128,-1,55
 825 771 825 771 805 813.5 c 128,-1,56
 785 856 785 856 757.5 880.5 c 128,-1,57
 730 905 730 905 697.5 917 c 0,58,59
 648.75 935 648.75 935 569.375 935 c 128,-1,60
 490 935 490 935 442 923 c 128,-1,61
 394 911 394 911 362.5 872 c 0,62,63
 301 795.857 301 795.857 301 566 c 0,64,65
 301 240.055 301 240.055 481.5 197 c 0,66,67
 536 184 536 184 599 184 c 128,-1,68
 662 184 662 184 708.5 197.5 c 128,-1,69
 755 211 755 211 786 251 c 128,-1,52
 817 291 817 291 832.5 363 c 128,-1,53
1498.5 714.5 m 0,70,71
 1504 745 1504 745 1504 786.5 c 128,-1,72
 1504 828 1504 828 1496.5 860 c 128,-1,73
 1489 892 1489 892 1470.5 915 c 0,74,75
 1431.89 963 1431.89 963 1344 963 c 0,76,77
 1174.33 963 1174.33 963 1117 877 c 0,78,79
 1056.12 785.677 1056.12 785.677 1048 601 c 1,80,81
 1277 601 1277 601 1406 634 c 0,82,83
 1487.76 654.914 1487.76 654.914 1498.5 714.5 c 0,70,71
EndSplineSet
EndChar

StartChar: germandbls
Encoding: 223 223 149
Width: 1364
Flags: HW
LayerCount: 2
Fore
SplineSet
235 1309 m 2,0,1
 235 1646 235 1646 786 1646 c 0,2,3
 1000 1646 1000 1646 1102.5 1573.5 c 128,-1,4
 1205 1501 1205 1501 1205 1349 c 0,5,6
 1205 1221.36 1205 1221.36 1151 1138.5 c 0,7,8
 1122 1094 1122 1094 1074.5 1045.5 c 1,9,-1
 956 930 l 2,10,11
 921 897 921 897 897.5 866.5 c 128,-1,12
 874 836 874 836 874 797.5 c 128,-1,13
 874 759 874 759 922 729 c 128,-1,14
 970 699 970 699 1057 665.5 c 128,-1,15
 1144 632 1144 632 1199.5 601.5 c 128,-1,16
 1255 571 1255 571 1287.5 531 c 0,17,18
 1345 460.231 1345 460.231 1345 302 c 0,19,20
 1345 74.2258 1345 74.2258 1149 11 c 0,21,22
 1087 -9 1087 -9 1000.5 -9 c 0,23,24
 861.133 -9 861.133 -9 637 32 c 0,25,26
 598.623 38.3962 598.623 38.3962 595 71 c 1,27,-1
 614 231 l 1,28,29
 617.667 253 617.667 253 641 253 c 0,30,31
 654.308 253 654.308 253 710.654 234 c 128,-1,32
 767 215 767 215 796 206.5 c 128,-1,33
 825 198 825 198 854.5 191.5 c 0,34,35
 920.308 177 920.308 177 984.154 177 c 128,-1,36
 1048 177 1048 177 1094 214.5 c 128,-1,37
 1140 252 1140 252 1140 311 c 128,-1,38
 1140 370 1140 370 1116.5 401 c 128,-1,39
 1093 432 1093 432 1015 459 c 1,40,-1
 862.5 514 l 1,41,42
 712.524 570.367 712.524 570.367 672.5 656 c 0,43,44
 651 702 651 702 651 760 c 128,-1,45
 651 818 651 818 666 858.5 c 128,-1,46
 681 899 681 899 706 937 c 0,47,48
 746.385 998.385 746.385 998.385 807.692 1059.69 c 128,-1,49
 869 1121 869 1121 898.5 1153 c 128,-1,50
 928 1185 928 1185 947 1213 c 0,51,52
 984 1267.53 984 1267.53 984 1332.76 c 128,-1,53
 984 1398 984 1398 935 1426 c 128,-1,54
 886 1454 886 1454 815.5 1454 c 128,-1,55
 745 1454 745 1454 702.5 1452 c 128,-1,56
 660 1450 660 1450 621 1443 c 128,-1,57
 582 1436 582 1436 549 1421 c 128,-1,58
 516 1406 516 1406 491.5 1379.5 c 0,59,60
 439 1322.71 439 1322.71 439 1217 c 0,61,62
 439 1152.6 439 1152.6 442.5 1097.3 c 2,63,-1
 448.5 999.5 l 2,64,65
 451 957 451 957 454 915 c 1,66,-1
 454 206 l 1,67,-1
 436 20 l 2,68,69
 434 8 434 8 429.5 4.5 c 128,-1,70
 425 1 425 1 412 0 c 1,71,-1
 129 6 l 2,72,73
 115 6 115 6 115 30 c 1,74,-1
 105 181 l 1,75,76
 105 200 105 200 121 200 c 2,77,-1
 250 202 l 1,78,-1
 250 888 l 1,79,-1
 94 878 l 1,80,81
 77.4433 879.505 77.4433 879.505 74 895 c 1,82,-1
 83 1070 l 1,83,84
 85.75 1092 85.75 1092 105 1092 c 2,85,-1
 244 1092 l 1,86,87
 235 1182 235 1182 235 1229.5 c 2,88,-1
 235 1309 l 2,0,1
EndSplineSet
EndChar

StartChar: onesuperior
Encoding: 185 185 150
Width: 851
Flags: HW
LayerCount: 2
Fore
SplineSet
191 1030 m 2,0,1
 191 1039 191 1039 199 1039 c 2,2,-1
 317 1030 l 1,3,-1
 317 1442 l 1,4,-1
 192 1424 l 1,5,6
 183 1424 183 1424 182 1435 c 2,7,-1
 165 1538 l 1,8,9
 165 1547 165 1547 176 1552 c 2,10,-1
 357 1636 l 2,11,12
 366 1641 366 1641 375 1641 c 1,13,-1
 499 1624 l 2,14,15
 508 1623 508 1623 508 1613 c 2,16,-1
 500 1476 l 1,17,-1
 494 1031 l 1,18,-1
 611 1039 l 2,19,20
 619 1039 619 1039 619 1030 c 2,21,-1
 614 870 l 2,22,23
 614 858 614 858 607 858 c 2,24,-1
 197 865 l 2,25,26
 186 865 186 865 185 875 c 1,27,-1
 191 1030 l 2,0,1
EndSplineSet
EndChar

StartChar: logicalnot
Encoding: 172 172 151
Width: 1194
Flags: HW
LayerCount: 2
Fore
SplineSet
181 568 m 1,0,1
 167 569.556 167 569.556 167 592 c 1,2,-1
 177 753 l 2,3,4
 178.727 772 178.727 772 193 772 c 2,5,-1
 1007 783 l 1,6,7
 1026 782 1026 782 1026 762 c 2,8,-1
 1026 402 l 2,9,10
 1026 386 1026 386 1007 384 c 2,11,-1
 846 372 l 1,12,13
 834 374 834 374 830.5 378.5 c 128,-1,14
 827 383 827 383 826 396 c 1,15,-1
 833 599 l 1,16,-1
 181 568 l 1,0,1
EndSplineSet
EndChar

StartChar: mu
Encoding: 181 181 152
AltUni2: 0003bc.ffffffff.0
Width: 1194
Flags: HW
LayerCount: 2
Fore
SplineSet
145 -432 m 1,0,1
 129 -432 129 -432 129 -408 c 2,2,-1
 119 1103 l 2,3,4
 119 1124 119 1124 143 1126 c 2,5,-1
 320 1137 l 1,6,7
 341 1135 341 1135 341 1116 c 2,8,-1
 314 432 l 1,9,10
 316.685 265.5 316.685 265.5 426 239 c 0,11,12
 459 231 459 231 500 231 c 128,-1,13
 541 231 541 231 578 239 c 128,-1,14
 615 247 615 247 649 261.5 c 0,15,16
 708.179 286.738 708.179 286.738 785 346 c 1,17,-1
 767 1112 l 1,18,19
 770.385 1132.31 770.385 1132.31 789 1134 c 2,20,-1
 949 1140 l 2,21,22
 970 1140 970 1140 970 1116 c 2,23,-1
 990 210 l 1,24,-1
 1140 207 l 2,25,26
 1161 207 1161 207 1163 183 c 2,27,-1
 1175 30 l 1,28,29
 1172.51 12.5854 1172.51 12.5854 1151 9 c 1,30,-1
 854 -21 l 1,31,32
 819 -21 819 -21 813 17 c 2,33,-1
 791 159 l 1,34,35
 647.246 13 647.246 13 481 13 c 0,36,37
 383 13 383 13 314 59 c 1,38,-1
 341 -379 l 1,39,40
 340 -392 340 -392 335 -395.5 c 128,-1,41
 330 -399 330 -399 318 -401 c 2,42,-1
 145 -432 l 1,0,1
EndSplineSet
EndChar

StartChar: trademark
Encoding: 8482 8482 153
Width: 1881
Flags: HW
LayerCount: 2
Fore
SplineSet
1078 942 m 2,0,1
 1086 942 1086 942 1086 933 c 2,2,-1
 1093 828 l 2,3,4
 1093 818 1093 818 1082 818 c 2,5,-1
 845 814 l 2,6,7
 835 814 835 814 835 827 c 2,8,-1
 843 935 l 2,9,10
 844 943 844 943 850 944 c 1,11,-1
 914 938 l 1,12,-1
 966 1413 l 1,13,-1
 910 1408 l 2,14,15
 903 1408 903 1408 902 1419 c 2,16,-1
 898 1526 l 2,17,18
 898 1533.33 898 1533.33 909 1537 c 1,19,-1
 1165 1548 l 2,20,21
 1177.33 1548 1177.33 1548 1182 1534 c 1,22,-1
 1302 1021 l 1,23,-1
 1414 1530 l 2,24,25
 1417 1543 1417 1543 1432 1543 c 2,26,-1
 1660 1542 l 2,27,28
 1671 1542 1671 1542 1671 1532 c 2,29,-1
 1676 1419 l 2,30,31
 1676 1408 1676 1408 1666 1408 c 2,32,-1
 1616 1408 l 1,33,-1
 1687 938 l 1,34,-1
 1755 939 l 1,35,36
 1762 938 1762 938 1763 930 c 1,37,-1
 1754 830 l 1,38,39
 1752 819 1752 819 1744 819 c 2,40,-1
 1507 818 l 2,41,42
 1496 818 1496 818 1496 828 c 2,43,-1
 1499 927 l 2,44,45
 1499 936 1499 936 1507 936 c 2,46,-1
 1538 936 l 1,47,-1
 1480 1390 l 1,48,-1
 1359 821 l 2,49,50
 1358 812 1358 812 1348 812 c 2,51,-1
 1246 810 l 2,52,53
 1237 810 1237 810 1235 820 c 2,54,-1
 1063 1390 l 1,55,-1
 1027 940 l 1,56,-1
 1078 942 l 2,0,1
252 1312 m 2,57,58
 252 1303 252 1303 240 1303 c 2,59,-1
 128 1296 l 2,60,61
 120 1296 120 1296 118 1307 c 1,62,-1
 122 1552 l 2,63,64
 122 1560 122 1560 134 1560 c 1,65,-1
 241 1551 l 2,66,67
 251 1550 251 1550 251 1540 c 2,68,-1
 251 1526 l 1,69,-1
 632 1531 l 1,70,-1
 746 1541 l 2,71,72
 756 1541 756 1541 756 1530 c 2,73,-1
 741 1301 l 2,74,75
 741 1292 741 1292 732 1292 c 2,76,-1
 621 1295 l 2,77,78
 612 1295 612 1295 612 1306 c 2,79,-1
 613 1428 l 1,80,-1
 510 1436 l 1,81,-1
 518 945 l 1,82,-1
 619 949 l 1,83,84
 627 948 627 948 627 940 c 2,85,-1
 628 835 l 2,86,87
 628 824 628 824 619 824 c 2,88,-1
 286 818 l 2,89,90
 274 818 274 818 274 828 c 2,91,-1
 278 942 l 2,92,93
 278 951 278 951 286 951 c 2,94,-1
 361 946 l 1,95,-1
 353 1429 l 1,96,-1
 251 1415 l 1,97,-1
 252 1312 l 2,57,58
EndSplineSet
EndChar

StartChar: Eth
Encoding: 208 208 154
Width: 1366
Flags: HW
LayerCount: 2
Fore
SplineSet
246 1313 m 1,0,1
 184.8 1309.4 184.8 1309.4 105 1301 c 1,2,3
 94 1301 94 1301 91 1306 c 128,-1,4
 88 1311 88 1311 87 1323 c 2,5,-1
 73 1509 l 1,6,7
 74 1521 74 1521 79.5 1524.5 c 128,-1,8
 85 1528 85 1528 97 1530 c 1,9,10
 196 1532 196 1532 269.5 1534 c 128,-1,11
 343 1536 343 1536 397.5 1537 c 128,-1,12
 452 1538 452 1538 490.5 1538.5 c 128,-1,13
 529 1539 529 1539 557.5 1539.5 c 128,-1,14
 586 1540 586 1540 607.5 1540 c 2,15,-1
 650 1540 l 2,16,17
 948.291 1540 948.291 1540 1092.5 1384 c 0,18,19
 1259 1203.89 1259 1203.89 1259 786 c 0,20,21
 1259 390.559 1259 390.559 1089.5 180 c 0,22,23
 929.305 -19 929.305 -19 645 -19 c 0,24,25
 346.833 -19 346.833 -19 101 6 c 0,26,27
 84 7 84 7 83 30 c 1,28,-1
 95 207 l 2,29,30
 96.5795 222.795 96.5795 222.795 111 226 c 1,31,-1
 220 218 l 1,32,-1
 229 602 l 1,33,-1
 98 596 l 1,34,35
 74 597.846 74 597.846 74 615 c 2,36,-1
 72 746 l 2,37,38
 72 766 72 766 88 766 c 2,39,-1
 233 768 l 1,40,-1
 246 1313 l 1,0,1
453 205 m 1,41,42
 537 199 537 199 575 199 c 2,43,-1
 639 199 l 2,44,45
 842 199 842 199 937.5 340 c 128,-1,46
 1033 481 1033 481 1033 761 c 0,47,48
 1033 1225.38 1033 1225.38 810 1309 c 0,49,50
 738 1336 738 1336 680.5 1336 c 0,51,52
 580.5 1336 580.5 1336 465 1329 c 1,53,-1
 459 772 l 1,54,-1
 469 772 l 1,55,-1
 775 794 l 1,56,57
 791 794 791 794 791 776 c 2,58,-1
 794 642.5 l 1,59,-1
 794 639 l 2,60,61
 794 621 794 621 781 620 c 2,62,-1
 457 614 l 1,63,-1
 453 205 l 1,41,42
EndSplineSet
EndChar

StartChar: onehalf
Encoding: 189 189 155
Width: 1533
Flags: HW
LayerCount: 2
Fore
SplineSet
1254 1407 m 2,0,1
 1262 1401 1262 1401 1262 1393.5 c 128,-1,2
 1262 1386 1262 1386 1257 1378 c 2,3,-1
 784 738 l 1,4,-1
 296 38 l 2,5,6
 290 30 290 30 282 30 c 128,-1,7
 274 30 274 30 266 35 c 2,8,-1
 176 99 l 2,9,10
 168 104 168 104 168 111.5 c 128,-1,11
 168 119 168 119 175 130 c 2,12,-1
 673 821 l 1,13,-1
 1133 1473 l 2,14,15
 1139 1482 1139 1482 1145.5 1482 c 128,-1,16
 1152 1482 1152 1482 1160 1477 c 2,17,-1
 1254 1407 l 2,0,1
155 930 m 2,18,19
 155 939 155 939 163 939 c 2,20,-1
 281 930 l 1,21,-1
 281 1342 l 1,22,-1
 156 1324 l 1,23,24
 147 1324 147 1324 146 1335 c 2,25,-1
 129 1438 l 1,26,27
 129 1447 129 1447 140 1452 c 2,28,-1
 321 1536 l 2,29,30
 330 1541 330 1541 339 1541 c 1,31,-1
 463 1524 l 2,32,33
 472 1523 472 1523 472 1513 c 2,34,-1
 464 1376 l 1,35,-1
 458 931 l 1,36,-1
 575 939 l 2,37,38
 583 939 583 939 583 930 c 2,39,-1
 578 770 l 2,40,41
 578 758 578 758 571 758 c 2,42,-1
 161 765 l 2,43,44
 150 765 150 765 149 775 c 1,45,-1
 155 930 l 2,18,19
991 803 m 2,46,47
 1008.22 803 1008.22 803 1010 787 c 1,48,-1
 1008 733 l 1,49,50
 1110 784 1110 784 1204 784 c 0,51,52
 1284.07 784 1284.07 784 1338 728 c 0,53,54
 1394 669.846 1394 669.846 1394 576 c 0,55,56
 1394 498.118 1394 498.118 1332 411.5 c 0,57,58
 1298 364 1298 364 1241 301.5 c 1,59,-1
 1098 152 l 1,60,-1
 1274 163 l 1,61,-1
 1274 194 l 2,62,63
 1274 213 1274 213 1294 213 c 2,64,-1
 1388 217 l 2,65,66
 1404 217 1404 217 1404 202 c 2,67,-1
 1395 -36 l 2,68,69
 1394 -47 1394 -47 1384 -47 c 2,70,-1
 1272 -46 l 2,71,72
 1261 -46 1261 -46 1261 -33 c 1,73,-1
 1265 -1 l 1,74,-1
 906 -5 l 2,75,76
 898 -5 898 -5 897 7 c 2,77,-1
 885 142 l 2,78,79
 885 149 885 149 937.5 205.5 c 2,80,-1
 1050.5 328.5 l 2,81,82
 1166.37 455.859 1166.37 455.859 1184.18 497.43 c 128,-1,83
 1202 539 1202 539 1202 567 c 0,84,85
 1202 646 1202 646 1116 646 c 0,86,87
 1061 646 1061 646 1005 620 c 1,88,-1
 1004 567 l 2,89,90
 1004 555.375 1004 555.375 993 554 c 1,91,-1
 871 571 l 2,92,93
 863 572 863 572 863 582 c 2,94,-1
 873 784 l 2,95,96
 873 798 873 798 888 800 c 1,97,-1
 991 803 l 2,46,47
EndSplineSet
EndChar

StartChar: plusminus
Encoding: 177 177 156
Width: 1194
Flags: HW
LayerCount: 2
Fore
SplineSet
165 763 m 1,0,1
 166.727 782 166.727 782 181 782 c 2,2,-1
 503 786 l 1,3,-1
 495 1124 l 2,4,5
 495 1144 495 1144 514 1145 c 1,6,-1
 675 1137 l 2,7,8
 695 1135.33 695 1135.33 695 1113 c 2,9,-1
 685 788 l 1,10,-1
 1011 792 l 1,11,12
 1029 790 1029 790 1029 773 c 2,13,-1
 1026 612 l 2,14,15
 1026 600 1026 600 1020.5 596.5 c 128,-1,16
 1015 593 1015 593 1002 592 c 1,17,-1
 683 602 l 1,18,-1
 689 238 l 2,19,20
 689 224 689 224 665 222 c 1,21,-1
 514 229 l 2,22,23
 495 230.727 495 230.727 495 245 c 2,24,-1
 503 601 l 1,25,-1
 189 588 l 2,26,27
 177 588 177 588 175 612 c 2,28,-1
 165 763 l 1,0,1
998 162 m 1,29,30
 1014 160.222 1014 160.222 1014 143 c 1,31,-1
 996 -8 l 2,32,33
 994 -20 994 -20 989.5 -23.5 c 128,-1,34
 985 -27 985 -27 972 -28 c 2,35,-1
 189 -32 l 2,36,37
 175 -32 175 -32 175 -8 c 1,38,-1
 185 133 l 2,39,40
 186.727 152 186.727 152 201 152 c 2,41,-1
 998 162 l 1,29,30
EndSplineSet
EndChar

StartChar: Thorn
Encoding: 222 222 157
Width: 1366
Flags: HW
LayerCount: 2
Fore
SplineSet
113 1511 m 2,0,1
 113 1534 113 1534 131 1534 c 2,2,-1
 630 1542 l 1,3,4
 642 1540 642 1540 647.5 1536.5 c 128,-1,5
 653 1533 653 1533 654 1521 c 1,6,-1
 645 1345 l 2,7,8
 644 1332 644 1332 641 1327.5 c 128,-1,9
 638 1323 638 1323 627 1323 c 2,10,-1
 490 1324 l 1,11,-1
 489 1169 l 1,12,13
 669.4 1202 669.4 1202 797.2 1202 c 128,-1,14
 925 1202 925 1202 1017.5 1180.5 c 128,-1,15
 1110 1159 1110 1159 1178.5 1111 c 0,16,17
 1325 1008.34 1325 1008.34 1325 793 c 0,18,19
 1325 561.656 1325 561.656 1171.5 460 c 0,20,21
 1029.56 366 1029.56 366 732 366 c 0,22,23
 612.1 366 612.1 366 481 385 c 1,24,-1
 479 207 l 1,25,-1
 670 220 l 1,26,27
 689 220 689 220 689 201 c 2,28,-1
 696 23 l 1,29,30
 694.333 2.99976 694.333 2.99976 672 3 c 2,31,-1
 153 -4 l 2,32,33
 133 -4 133 -4 130 20 c 2,34,-1
 112 197 l 1,35,36
 113.58 212.795 113.58 212.795 128 216 c 1,37,-1
 246 209 l 1,38,-1
 271 1320 l 1,39,-1
 140 1313 l 1,40,41
 117 1313 117 1313 117 1335 c 2,42,-1
 113 1511 l 2,0,1
483 588 m 1,43,44
 664.125 567 664.125 567 751.062 567 c 128,-1,45
 838 567 838 567 896.5 577 c 128,-1,46
 955 587 955 587 998.5 612.5 c 0,47,48
 1092 667.31 1092 667.31 1092 791 c 0,49,50
 1092 972.292 1092 972.292 904.5 1000.5 c 0,51,52
 848 1009 848 1009 777 1009 c 0,53,54
 652.818 1009 652.818 1009 487 985 c 1,55,-1
 483 588 l 1,43,44
EndSplineSet
EndChar

StartChar: onequarter
Encoding: 188 188 158
Width: 1533
Flags: HW
LayerCount: 2
Fore
SplineSet
1371 12 m 2,0,1
 1371 3 1371 3 1363 3 c 2,2,-1
 1012 3 l 2,3,4
 1004 3 1004 3 1004 12 c 2,5,-1
 999 112 l 2,6,7
 999 124 999 124 1006 124 c 2,8,-1
 1097 122 l 1,9,-1
 1101 203 l 1,10,-1
 822 201 l 2,11,12
 800.2 201 800.2 201 796 215 c 2,13,-1
 773 295 l 2,14,15
 772 300 772 300 772 306.5 c 128,-1,16
 772 313 772 313 786 348 c 2,17,-1
 949.5 734 l 2,18,19
 964 768 964 768 967.5 775 c 128,-1,20
 971 782 971 782 983 782 c 1,21,-1
 1149 747 l 1,22,23
 1158 744 1158 744 1158 738 c 128,-1,24
 1158 732 1158 732 1147.5 708 c 1,25,-1
 951 307 l 1,26,-1
 1106 313 l 1,27,-1
 1114 481 l 2,28,29
 1114 492 1114 492 1127 493 c 1,30,-1
 1297 474 l 2,31,32
 1307 473 1307 473 1307 463 c 1,33,-1
 1287 320 l 1,34,-1
 1373 323 l 2,35,36
 1380 323 1380 323 1381 313 c 2,37,-1
 1394 215 l 1,38,39
 1394 205 1394 205 1383 205 c 2,40,-1
 1285 204 l 1,41,-1
 1285 118 l 1,42,-1
 1355 117 l 2,43,44
 1366 117 1366 117 1367 107 c 2,45,-1
 1371 12 l 2,0,1
1268 1407 m 2,46,47
 1276 1401 1276 1401 1276 1393.5 c 128,-1,48
 1276 1386 1276 1386 1271 1378 c 2,49,-1
 798 738 l 1,50,-1
 310 38 l 2,51,52
 304 30 304 30 296 30 c 128,-1,53
 288 30 288 30 280 35 c 2,54,-1
 190 99 l 2,55,56
 182 104 182 104 182 111.5 c 128,-1,57
 182 119 182 119 189 130 c 2,58,-1
 687 821 l 1,59,-1
 1147 1473 l 2,60,61
 1153 1482 1153 1482 1159.5 1482 c 128,-1,62
 1166 1482 1166 1482 1174 1477 c 2,63,-1
 1268 1407 l 2,46,47
169 930 m 2,64,65
 169 939 169 939 177 939 c 2,66,-1
 295 930 l 1,67,-1
 295 1342 l 1,68,-1
 170 1324 l 1,69,70
 161 1324 161 1324 160 1335 c 2,71,-1
 143 1438 l 1,72,73
 143 1447 143 1447 154 1452 c 2,74,-1
 335 1536 l 2,75,76
 344 1541 344 1541 353 1541 c 1,77,-1
 477 1524 l 2,78,79
 486 1523 486 1523 486 1513 c 2,80,-1
 478 1376 l 1,81,-1
 472 931 l 1,82,-1
 589 939 l 2,83,84
 597 939 597 939 597 930 c 2,85,-1
 592 770 l 2,86,87
 592 758 592 758 585 758 c 2,88,-1
 175 765 l 2,89,90
 164 765 164 765 163 775 c 1,91,-1
 169 930 l 2,64,65
EndSplineSet
EndChar

StartChar: divide
Encoding: 247 247 159
Width: 1194
Flags: HW
LayerCount: 2
Fore
SplineSet
1011 512 m 2,0,1
 1011 488 1011 488 997 488 c 2,2,-1
 584 500 l 1,3,-1
 214 492 l 1,4,5
 201 493 201 493 196 496.5 c 128,-1,6
 191 500 191 500 190 512 c 2,7,-1
 182 663 l 2,8,9
 182 680.222 182 680.222 198 682 c 1,10,-1
 602 667 l 1,11,-1
 995 672 l 2,12,13
 1009.27 672 1009.27 672 1011 653 c 1,14,-1
 1011 512 l 2,0,1
747.5 948 m 128,-1,16
 752 921 752 921 752 897.5 c 128,-1,17
 752 874 752 874 736.5 855 c 128,-1,18
 721 836 721 836 695.5 823 c 0,19,20
 644.5 797 644.5 797 593.75 797 c 128,-1,21
 543 797 543 797 524.5 812.5 c 128,-1,22
 506 828 506 828 494 851.5 c 0,23,24
 472 894.583 472 894.583 472 939.292 c 128,-1,25
 472 984 472 984 491.5 1003.5 c 128,-1,26
 511 1023 511 1023 539.5 1034 c 0,27,28
 588.727 1053 588.727 1053 636.864 1053 c 128,-1,29
 685 1053 685 1053 703 1037.5 c 128,-1,30
 721 1022 721 1022 732 998.5 c 128,-1,15
 743 975 743 975 747.5 948 c 128,-1,16
747.5 268 m 128,-1,32
 752 241 752 241 752 217.5 c 128,-1,33
 752 194 752 194 736.5 175 c 128,-1,34
 721 156 721 156 695.5 143 c 0,35,36
 644.5 117 644.5 117 593.75 117 c 128,-1,37
 543 117 543 117 524.5 132.5 c 128,-1,38
 506 148 506 148 494 171.5 c 0,39,40
 472 214.583 472 214.583 472 259.292 c 128,-1,41
 472 304 472 304 491.5 323.5 c 128,-1,42
 511 343 511 343 539.5 354 c 0,43,44
 588.727 373 588.727 373 636.864 373 c 128,-1,45
 685 373 685 373 703 357.5 c 128,-1,46
 721 342 721 342 732 318.5 c 128,-1,31
 743 295 743 295 747.5 268 c 128,-1,32
EndSplineSet
EndChar

StartChar: brokenbar
Encoding: 166 166 160
Width: 851
Flags: HW
LayerCount: 2
Fore
SplineSet
325 1618 m 1,0,1
 326.778 1634 326.778 1634 344 1634 c 2,2,-1
 495 1636 l 1,3,4
 515 1634.33 515 1634.33 515 1612 c 2,5,-1
 519 776 l 2,6,7
 519 756 519 756 495 755 c 2,8,-1
 354 745 l 1,9,10
 335 746.727 335 746.727 335 761 c 2,11,-1
 325 1618 l 1,0,1
344 -535 m 1,12,13
 325 -533.273 325 -533.273 325 -519 c 2,14,-1
 335 324 l 2,15,16
 335 343 335 343 354 344 c 2,17,-1
 505 356 l 1,18,19
 525 354.333 525 354.333 525 332 c 2,20,-1
 519 -504 l 2,21,22
 519 -523.417 519 -523.417 500 -525 c 2,23,-1
 344 -535 l 1,12,13
EndSplineSet
EndChar

StartChar: degree
Encoding: 176 176 161
Width: 851
Flags: HW
LayerCount: 2
Fore
SplineSet
698.5 1475.5 m 128,-1,1
 716 1422 716 1422 716 1356.5 c 128,-1,2
 716 1291 716 1291 696.5 1235.5 c 128,-1,3
 677 1180 677 1180 639 1140.5 c 0,4,5
 558.671 1057 558.671 1057 417 1057 c 0,6,7
 281.125 1057 281.125 1057 205 1144 c 0,8,9
 134 1225.14 134 1225.14 134 1351 c 256,10,11
 134 1554.16 134 1554.16 295.5 1624 c 0,12,13
 351 1648 351 1648 426.5 1648 c 128,-1,14
 502 1648 502 1648 556 1626.5 c 128,-1,15
 610 1605 610 1605 645.5 1567 c 128,-1,0
 681 1529 681 1529 698.5 1475.5 c 128,-1,1
486.5 1493.5 m 128,-1,17
 463 1506 463 1506 427 1506 c 128,-1,18
 391 1506 391 1506 365 1492 c 128,-1,19
 339 1478 339 1478 324 1455.5 c 0,20,21
 297 1415 297 1415 297 1368.5 c 128,-1,22
 297 1322 297 1322 304 1295.5 c 128,-1,23
 311 1269 311 1269 326.5 1247 c 0,24,25
 361.023 1198 361.023 1198 424 1198 c 0,26,27
 519.19 1198 519.19 1198 548.5 1298 c 0,28,29
 557 1327 557 1327 557 1357.5 c 128,-1,30
 557 1388 557 1388 549.5 1414.5 c 128,-1,31
 542 1441 542 1441 526 1461 c 128,-1,16
 510 1481 510 1481 486.5 1493.5 c 128,-1,17
EndSplineSet
EndChar

StartChar: thorn
Encoding: 254 254 162
Width: 1195
Flags: HW
LayerCount: 2
Fore
SplineSet
379 1595 m 1,0,1
 397 1595 397 1595 397 1572 c 2,2,-1
 381 1089 l 1,3,-1
 440.5 1110 l 1,4,5
 561.636 1151 561.636 1151 669.318 1151 c 128,-1,6
 777 1151 777 1151 858.5 1115 c 128,-1,7
 940 1079 940 1079 989.5 1006.5 c 0,8,9
 1080 873.949 1080 873.949 1080 573.975 c 128,-1,10
 1080 274 1080 274 979 132.5 c 128,-1,11
 878 -9 878 -9 670 -9 c 0,12,13
 512.179 -9 512.179 -9 374 44 c 1,14,-1
 388 -267 l 1,15,-1
 576 -260 l 1,16,17
 597 -261.909 597 -261.909 597 -281 c 1,18,-1
 587 -428 l 2,19,20
 585.333 -448 585.333 -448 564 -448 c 2,21,-1
 98 -458 l 2,22,23
 80.1818 -458 80.1818 -458 78 -434 c 1,24,-1
 70 -269 l 1,25,26
 72 -256 72 -256 76.5 -252.5 c 128,-1,27
 81 -249 81 -249 92 -248 c 1,28,-1
 181 -258 l 1,29,-1
 181 1385 l 1,30,-1
 35 1377 l 1,31,32
 16 1378 16 1378 15 1396 c 2,33,-1
 3 1551 l 1,34,35
 6.67797 1569.39 6.67797 1569.39 26 1571 c 2,36,-1
 379 1595 l 1,0,1
850 385.5 m 128,-1,38
 864 458 864 458 864 564 c 128,-1,39
 864 670 864 670 854 740.5 c 128,-1,40
 844 811 844 811 817.5 854 c 0,41,42
 767.581 935 767.581 935 627 935 c 0,43,44
 510.3 935 510.3 935 375 894 c 1,45,-1
 362 627 l 1,46,-1
 367 224 l 1,47,48
 492.714 192 492.714 192 586.857 192 c 128,-1,49
 681 192 681 192 728.5 209.5 c 128,-1,50
 776 227 776 227 806 270 c 128,-1,37
 836 313 836 313 850 385.5 c 128,-1,38
EndSplineSet
EndChar

StartChar: threequarters
Encoding: 190 190 163
Width: 1533
Flags: HW
LayerCount: 2
Fore
SplineSet
1408 12 m 2,0,1
 1408 3 1408 3 1400 3 c 2,2,-1
 1049 3 l 2,3,4
 1041 3 1041 3 1041 12 c 2,5,-1
 1036 112 l 2,6,7
 1036 124 1036 124 1043 124 c 2,8,-1
 1134 122 l 1,9,-1
 1138 203 l 1,10,-1
 859 201 l 2,11,12
 838.6 201 838.6 201 833 215 c 1,13,-1
 810 295 l 2,14,15
 809 300 809 300 809 306.5 c 128,-1,16
 809 313 809 313 823 348 c 2,17,-1
 986.5 734 l 2,18,19
 1001 768 1001 768 1004.5 775 c 128,-1,20
 1008 782 1008 782 1020 782 c 1,21,-1
 1186 747 l 1,22,23
 1195 744 1195 744 1195 738 c 128,-1,24
 1195 732 1195 732 1184.5 708 c 1,25,-1
 988 307 l 1,26,-1
 1143 313 l 1,27,-1
 1151 481 l 2,28,29
 1151 492 1151 492 1164 493 c 1,30,-1
 1334 474 l 2,31,32
 1344 473 1344 473 1344 463 c 1,33,-1
 1324 320 l 1,34,-1
 1410 323 l 2,35,36
 1418 323 1418 323 1418 313 c 1,37,-1
 1431 215 l 1,38,39
 1431 205 1431 205 1420 205 c 2,40,-1
 1322 204 l 1,41,-1
 1322 118 l 1,42,-1
 1392 117 l 2,43,44
 1403 117 1403 117 1404 107 c 2,45,-1
 1408 12 l 2,0,1
1305 1407 m 2,46,47
 1313 1401 1313 1401 1313 1393.5 c 128,-1,48
 1313 1386 1313 1386 1308 1378 c 2,49,-1
 835 738 l 1,50,-1
 347 38 l 2,51,52
 341 30 341 30 333 30 c 128,-1,53
 325 30 325 30 317 35 c 2,54,-1
 227 99 l 2,55,56
 219 104 219 104 219 111.5 c 128,-1,57
 219 119 219 119 226 130 c 2,58,-1
 724 821 l 1,59,-1
 1184 1473 l 2,60,61
 1190 1482 1190 1482 1196.5 1482 c 128,-1,62
 1203 1482 1203 1482 1211 1477 c 2,63,-1
 1305 1407 l 2,46,47
266 1534 m 1,64,65
 364.7 1576 364.7 1576 435.85 1576 c 128,-1,66
 507 1576 507 1576 541 1562.5 c 128,-1,67
 575 1549 575 1549 596.5 1526 c 0,68,69
 638 1481.6 638 1481.6 638 1401.3 c 128,-1,70
 638 1321 638 1321 598.5 1270.5 c 128,-1,71
 559 1220 559 1220 481 1187 c 1,72,73
 573 1170 573 1170 625.5 1116.5 c 128,-1,74
 678 1063 678 1063 678 997 c 128,-1,75
 678 931 678 931 665 890 c 128,-1,76
 652 849 652 849 624.5 819.5 c 0,77,78
 568.102 759 568.102 759 452 759 c 0,79,80
 348 759 348 759 254 787 c 1,81,-1
 265 734 l 1,82,83
 265 725 265 725 253 725 c 2,84,-1
 116 718 l 1,85,86
 96 719 96 719 95 737 c 2,87,-1
 81 924 l 2,88,89
 81 933 81 933 93 935 c 2,90,-1
 232 953 l 1,91,92
 242 953 242 953 242 941 c 2,93,-1
 242 898 l 1,94,95
 310.875 879 310.875 879 363.938 879 c 128,-1,96
 417 879 417 879 448.5 901.5 c 128,-1,97
 480 924 480 924 480 966.5 c 128,-1,98
 480 1009 480 1009 473 1030.5 c 128,-1,99
 466 1052 466 1052 454 1068 c 0,100,101
 429.25 1101 429.25 1101 403.625 1101 c 0,102,103
 366.5 1101 366.5 1101 332.25 1093.5 c 0,104,105
 275.167 1081 275.167 1081 261.583 1081 c 128,-1,106
 248 1081 248 1081 248 1092 c 2,107,-1
 241 1205 l 2,108,109
 241 1220 241 1220 256 1222 c 0,110,111
 441 1242.56 441 1242.56 441 1380 c 0,112,113
 441 1423 441 1423 418.5 1438.5 c 128,-1,114
 396 1454 396 1454 348.938 1454 c 128,-1,115
 301.875 1454 301.875 1454 253 1420 c 1,116,-1
 257 1378 l 1,117,118
 255.188 1365.31 255.188 1365.31 246 1364 c 2,119,-1
 106 1356 l 2,120,121
 99 1356 99 1356 98 1368 c 1,122,-1
 108 1570 l 2,123,124
 108 1586 108 1586 123 1586 c 2,125,-1
 253 1584 l 2,126,127
 271.222 1584 271.222 1584 273 1568 c 1,128,-1
 266 1534 l 1,64,65
EndSplineSet
EndChar

StartChar: twosuperior
Encoding: 178 178 164
Width: 851
Flags: HW
LayerCount: 2
Fore
SplineSet
242 1662 m 2,0,1
 259.222 1662 259.222 1662 261 1646 c 1,2,-1
 259 1592 l 1,3,4
 361 1643 361 1643 455 1643 c 0,5,6
 535.074 1643 535.074 1643 589 1587 c 0,7,8
 645 1528.85 645 1528.85 645 1435 c 0,9,10
 645 1357.12 645 1357.12 583 1270.5 c 0,11,12
 549 1223 549 1223 492 1160.5 c 1,13,-1
 349 1011 l 1,14,-1
 525 1022 l 1,15,-1
 525 1053 l 2,16,17
 525 1072 525 1072 545 1072 c 2,18,-1
 639 1076 l 2,19,20
 655 1076 655 1076 655 1061 c 2,21,-1
 646 823 l 2,22,23
 645 812 645 812 635 812 c 2,24,-1
 523 813 l 2,25,26
 512 813 512 813 512 826 c 1,27,-1
 516 858 l 1,28,-1
 157 854 l 2,29,30
 149 854 149 854 148 866 c 2,31,-1
 136 1001 l 2,32,33
 136 1008 136 1008 188.5 1064.5 c 2,34,-1
 301.5 1187.5 l 2,35,36
 417.368 1314.86 417.368 1314.86 435.184 1356.43 c 128,-1,37
 453 1398 453 1398 453 1426 c 0,38,39
 453 1505 453 1505 367 1505 c 0,40,41
 312 1505 312 1505 256 1479 c 1,42,-1
 255 1426 l 2,43,44
 255 1414.38 255 1414.38 244 1413 c 1,45,-1
 122 1430 l 2,46,47
 114 1431 114 1431 114 1441 c 2,48,-1
 124 1643 l 2,49,50
 124 1657 124 1657 139 1659 c 1,51,-1
 242 1662 l 2,0,1
EndSplineSet
EndChar

